<svg width="158" height="55" viewBox="0 0 158 55" fill="none" xmlns="http://www.w3.org/2000/svg">
<g clip-path="url(#clip0_122_60)">
<path d="M100.48 53.8705H89.6L66.4 24.4005V53.8705H53.4V0.980469H64.28L87.48 30.4505V0.980469H100.48V53.8705Z" fill="#BAFF00"/>
<path d="M27.43 54.85C22.24 54.85 17.56 53.69 13.38 51.37C9.20001 49 5.93001 45.73 3.56001 41.55C1.19001 37.37 0.0100098 32.66 0.0100098 27.42C0.0100098 22.18 1.19001 17.47 3.56001 13.29C5.98001 9.11 9.28001 5.86 13.46 3.54C17.63 1.18 22.31 0 27.5 0C31.98 0 36.04 0.83 39.66 2.49C43.29 4.15 46.31 6.57 48.73 9.74L40.27 17.9C37 13.77 32.97 11.7 28.18 11.7C25.31 11.7 22.74 12.35 20.47 13.66C18.25 14.97 16.52 16.83 15.26 19.25C14 21.62 13.37 24.34 13.37 27.41C13.37 30.48 14 33.23 15.26 35.65C16.52 38.02 18.26 39.86 20.47 41.17C22.74 42.48 25.31 43.13 28.18 43.13C33.07 43.13 37.1 41.04 40.27 36.86L48.73 45.02C46.31 48.19 43.29 50.64 39.66 52.35C36.03 54.01 31.95 54.84 27.42 54.84L27.43 54.85Z" fill="#BAFF00"/>
<path d="M131.61 38.8497L141.9 53.8697H157.57L147.29 38.8497C143.5 33.2897 135.41 33.2897 131.62 38.8497H131.61Z" fill="#BAFF00"/>
<path d="M157.56 0.969727H141.89L139.44 4.54973C134.74 11.4297 134.74 20.5497 139.44 27.4197L157.56 0.969727Z" fill="#BAFF00"/>
<path d="M131.61 15.9797L121.33 0.969727H105.66L123.78 27.4197L105.66 53.8697H121.33L131.61 38.8497C136.31 31.9697 136.31 22.8497 131.61 15.9797Z" fill="#BAFF00"/>
</g>
<defs>
<clipPath id="clip0_122_60">
<rect width="157.56" height="54.85" fill="white"/>
</clipPath>
</defs>
</svg>
