<svg width="24" height="24" viewBox="0 0 24 24" fill="none" xmlns="http://www.w3.org/2000/svg">
<g clip-path="url(#clip0_202_459)">
<path fill-rule="evenodd" clip-rule="evenodd" d="M26 21.9997C26 24.2089 24.21 26 22.0008 26H1.99974C-0.208755 26 -2 24.2089 -2 21.9997V1.99959C-2 -0.209547 -0.208755 -2 1.99974 -2H22.0008C24.21 -2 26 -0.209547 26 1.99959V21.9997Z" fill="#FFE400" style="fill:#FFE400;fill:color(display-p3 1.0000 0.8940 0.0000);fill-opacity:1;"/>
<path fill-rule="evenodd" clip-rule="evenodd" d="M12 6C8.13412 6 5 8.44497 5 11.461C5 13.3454 6.22387 15.0075 8.08526 15.9886L7.27962 18.6744C7.21215 18.9006 7.46344 19.0873 7.66063 18.957L10.8587 16.8436C11.231 16.8913 11.6103 16.9221 12 16.9221C15.8659 16.9221 19 14.4771 19 11.461C19 8.44497 15.8659 6 12 6" fill="#1E1E1E" style="fill:#1E1E1E;fill:color(display-p3 0.1176 0.1176 0.1176);fill-opacity:1;"/>
</g>
<defs>
<clipPath id="clip0_202_459">
<rect width="24" height="24" fill="white" style="fill:white;fill-opacity:1;"/>
</clipPath>
</defs>
</svg>
