<svg width="152" height="24" viewBox="0 0 152 24" fill="none" xmlns="http://www.w3.org/2000/svg">
<g clip-path="url(#clip0_123_56)">
<path d="M140.235 17.093L144.892 23.7884H151.989L147.332 17.093C145.61 14.6179 141.946 14.6179 140.235 17.093Z" fill="#BAFF00"/>
<path d="M152 0.200974H144.903L143.794 1.79815C141.66 4.86558 141.66 8.92728 143.794 11.9947L152 0.200974Z" fill="#BAFF00"/>
<path d="M140.235 6.89643L135.577 0.200974H128.48L136.686 11.9841L128.48 23.7673H135.577L140.235 17.0718C142.368 14.0044 142.368 9.94271 140.235 6.87528V6.89643Z" fill="#BAFF00"/>
<path d="M125.575 0.232697V23.7567H119.703L110.948 9.50903V23.7567H105.107V0.232697H110.979L119.735 14.5862V0.232697H125.575Z" fill="#BAFF00"/>
<path d="M79.2635 11.9947C79.2635 10.2494 79.5381 8.64169 80.0978 7.1926C80.6787 5.71177 81.4814 4.43191 82.5164 3.3636C83.5725 2.28471 84.8188 1.45967 86.2763 0.87792C87.7337 0.296166 89.3285 0 91.0711 0C93.7115 0 95.9716 0.655795 97.8516 1.97796C99.7315 3.27898 101.073 5.06655 101.875 7.35126L96.806 8.46188C96.4047 7.63684 95.9188 6.95989 95.3591 6.4416C94.7993 5.90216 94.1656 5.5108 93.4475 5.26752C92.7293 5.02424 91.9372 4.89731 91.0606 4.89731C89.8038 4.89731 88.7371 5.21463 87.8393 5.8387C86.9416 6.46276 86.2657 7.31952 85.7904 8.39841C85.3257 9.45615 85.0828 10.6514 85.0828 11.9947C85.0828 13.338 85.3152 14.5862 85.7904 15.6545C86.2551 16.7122 86.9416 17.5478 87.8393 18.1719C88.7371 18.7748 89.8038 19.0815 91.0606 19.0815C91.9372 19.0815 92.7504 18.9546 93.5108 18.7113C94.2713 18.4469 94.9578 18.0132 95.5598 17.4315C96.1618 16.8286 96.6793 16.0458 97.1017 15.0833L102.034 16.0881C101.231 18.595 99.8794 20.5518 97.9783 21.9374C96.0773 23.3019 93.7749 23.9894 91.0606 23.9894C89.318 23.9894 87.7126 23.6933 86.2657 23.1115C84.8188 22.5297 83.562 21.7153 82.5058 20.6576C81.4814 19.5787 80.6681 18.32 80.0873 16.8603C79.5275 15.3795 79.2529 13.7611 79.2529 11.9841L79.2635 11.9947Z" fill="#BAFF00"/>
<path d="M61.2562 7.3301C61.2562 6.54737 61.0133 5.98677 60.5169 5.6483C60.0206 5.30982 59.3235 5.14059 58.4047 5.14059H53.3035V9.50903H58.3413C59.2601 9.50903 59.9783 9.33979 60.4853 9.00132C61.0028 8.64169 61.2562 8.08109 61.2562 7.31952V7.3301ZM47.4525 23.7673V0.232697H59.5664C61.1823 0.232697 62.5447 0.486553 63.6643 1.00484C64.8049 1.52313 65.6709 2.25297 66.2518 3.19435C66.8538 4.11458 67.1601 5.20405 67.1601 6.45218C67.1601 7.50991 66.9594 8.38783 66.5581 9.10709C66.1779 9.80519 65.6287 10.3552 64.9105 10.7572C64.2134 11.1591 63.4108 11.4341 62.4919 11.561V11.8255C63.6114 11.963 64.5514 12.2591 65.3118 12.7351C66.0934 13.1794 66.6848 13.8034 67.0862 14.5862C67.4875 15.3477 67.6881 16.2574 67.6881 17.3045C67.6881 18.6055 67.3819 19.7373 66.7799 20.6999C66.199 21.6624 65.3224 22.4134 64.1606 22.9528C63.02 23.4923 61.6048 23.7567 59.9361 23.7567H47.4525V23.7673ZM53.2929 18.8594H58.8588C59.7988 18.8594 60.5275 18.6584 61.045 18.2565C61.5625 17.8546 61.816 17.2622 61.816 16.4795C61.816 15.6968 61.552 15.0833 61.0133 14.7025C60.4747 14.3006 59.7354 14.0996 58.7954 14.0996H53.2929V18.87V18.8594Z" fill="#BAFF00"/>
<path d="M43.7771 0.232697V23.7567H37.9049L29.1495 9.50903V23.7567H23.3091V0.232697H29.1812L37.9366 14.5862V0.232697H43.7771Z" fill="#BAFF00"/>
<path d="M13.7932 7.3301C13.7932 6.54737 13.5503 5.98677 13.0539 5.6483C12.5575 5.30982 11.8605 5.14059 10.9416 5.14059H5.84047V9.50903H10.8783C11.7971 9.50903 12.5153 9.33979 13.0222 9.00132C13.5397 8.64169 13.7932 8.08109 13.7932 7.31952V7.3301ZM0 23.7673V0.232697H12.114C13.7298 0.232697 15.0923 0.486553 16.2118 1.00484C17.3524 1.52313 18.2185 2.25297 18.7993 3.19435C19.4013 4.11458 19.7076 5.20405 19.7076 6.45218C19.7076 7.50991 19.5069 8.38783 19.1056 9.10709C18.7254 9.80519 18.1762 10.3552 17.458 10.7572C16.761 11.1591 15.9583 11.4341 15.0395 11.561V11.8255C16.159 11.963 17.0989 12.2591 17.8594 12.7351C18.6409 13.1794 19.2323 13.8034 19.6337 14.5862C20.035 15.3477 20.2357 16.2574 20.2357 17.3045C20.2357 18.6055 19.9294 19.7373 19.3274 20.6999C18.7465 21.6624 17.8699 22.4134 16.7082 22.9528C15.5675 23.4923 14.1523 23.7567 12.4836 23.7567H0V23.7673ZM5.84047 18.8594H11.4063C12.3463 18.8594 13.075 18.6584 13.5926 18.2565C14.1101 17.8546 14.3635 17.2622 14.3635 16.4795C14.3635 15.6968 14.0995 15.0833 13.5609 14.7025C13.0222 14.3006 12.2829 14.0996 11.343 14.0996H5.84047V18.87V18.8594Z" fill="#BAFF00"/>
</g>
<defs>
<clipPath id="clip0_123_56">
<rect width="152" height="24" fill="white"/>
</clipPath>
</defs>
</svg>
