<svg width="255" height="255" viewBox="0 0 255 255" fill="none" xmlns="http://www.w3.org/2000/svg">
<rect x="0.384037" y="0.384037" width="254.232" height="254.232" rx="127.116" stroke="#8423A4" stroke-width="0.768074"/>
<path d="M127.48 86.4558L138.171 101.783H154.457L143.766 86.4558C139.826 80.7771 131.42 80.7771 127.48 86.4558Z" fill="#A523D0"/>
<path d="M154.457 47.783H138.171L135.623 51.4373C130.738 58.4568 130.738 67.7635 135.623 74.7829L154.457 47.783Z" fill="#A523D0"/>
<path d="M127.481 63.1101L116.79 47.783H100.505L119.338 74.7829L100.505 101.783H116.79L127.481 86.4558C132.367 79.4363 132.367 70.1296 127.481 63.1101Z" fill="#A523D0"/>
<path d="M89.4729 127.398C89.4729 127.433 89.4552 127.682 89.4196 128.144H82.5574C82.6877 128.737 82.9781 129.205 83.4285 129.549C83.8907 129.893 84.4655 130.064 85.1529 130.064C85.627 130.064 86.0418 129.993 86.3974 129.851C86.7648 129.697 87.1085 129.46 87.4285 129.14L88.8329 130.74C87.9677 131.771 86.7174 132.287 85.0818 132.287C84.0507 132.287 83.1381 132.079 82.344 131.664C81.5618 131.238 80.9574 130.651 80.5307 129.904C80.104 129.158 79.8907 128.31 79.8907 127.362C79.8907 126.426 80.0981 125.584 80.5129 124.838C80.9396 124.079 81.5203 123.493 82.2552 123.078C83.0018 122.651 83.8315 122.438 84.744 122.438C85.6329 122.438 86.4329 122.639 87.144 123.042C87.867 123.445 88.4359 124.026 88.8507 124.784C89.2655 125.531 89.4729 126.402 89.4729 127.398ZM84.7618 124.536C84.1692 124.536 83.6655 124.713 83.2507 125.069C82.8477 125.424 82.6048 125.91 82.5218 126.527H86.984C86.8892 125.922 86.6403 125.442 86.2374 125.087C85.8463 124.719 85.3544 124.536 84.7618 124.536ZM94.8377 127.824L92.0466 132.144H88.8999L93.2733 125.816L89.1133 119.7H92.2244L94.9444 123.736L97.6111 119.7H100.562L96.4555 125.709L100.847 132.144H97.6999L94.8377 127.824ZM107.047 122.438C107.888 122.438 108.653 122.645 109.34 123.06C110.027 123.463 110.567 124.038 110.958 124.784C111.361 125.519 111.562 126.378 111.562 127.362C111.562 128.346 111.361 129.211 110.958 129.958C110.567 130.693 110.027 131.267 109.34 131.682C108.653 132.085 107.888 132.287 107.047 132.287C105.885 132.287 104.973 131.901 104.309 131.131V135.593H101.66V122.58H104.184V123.682C104.836 122.853 105.79 122.438 107.047 122.438ZM106.584 130.011C107.26 130.011 107.811 129.774 108.238 129.3C108.676 128.814 108.896 128.168 108.896 127.362C108.896 126.556 108.676 125.916 108.238 125.442C107.811 124.956 107.26 124.713 106.584 124.713C105.909 124.713 105.352 124.956 104.913 125.442C104.487 125.916 104.273 126.556 104.273 127.362C104.273 128.168 104.487 128.814 104.913 129.3C105.352 129.774 105.909 130.011 106.584 130.011ZM121.879 127.398C121.879 127.433 121.861 127.682 121.826 128.144H114.964C115.094 128.737 115.384 129.205 115.835 129.549C116.297 129.893 116.872 130.064 117.559 130.064C118.033 130.064 118.448 129.993 118.804 129.851C119.171 129.697 119.515 129.46 119.835 129.14L121.239 130.74C120.374 131.771 119.124 132.287 117.488 132.287C116.457 132.287 115.544 132.079 114.75 131.664C113.968 131.238 113.364 130.651 112.937 129.904C112.51 129.158 112.297 128.31 112.297 127.362C112.297 126.426 112.504 125.584 112.919 124.838C113.346 124.079 113.927 123.493 114.661 123.078C115.408 122.651 116.238 122.438 117.15 122.438C118.039 122.438 118.839 122.639 119.55 123.042C120.273 123.445 120.842 124.026 121.257 124.784C121.672 125.531 121.879 126.402 121.879 127.398ZM117.168 124.536C116.575 124.536 116.072 124.713 115.657 125.069C115.254 125.424 115.011 125.91 114.928 126.527H119.39C119.295 125.922 119.047 125.442 118.644 125.087C118.253 124.719 117.761 124.536 117.168 124.536ZM125.794 123.842C126.114 123.38 126.541 123.03 127.074 122.793C127.607 122.556 128.223 122.438 128.923 122.438V124.998C128.615 124.974 128.413 124.962 128.318 124.962C127.572 124.962 126.985 125.187 126.558 125.638C126.132 126.076 125.918 126.74 125.918 127.629V132.144H123.269V122.58H125.794V123.842ZM131.525 121.247C131.039 121.247 130.642 121.098 130.333 120.802C130.025 120.506 129.871 120.138 129.871 119.7C129.871 119.261 130.025 118.894 130.333 118.598C130.642 118.301 131.039 118.153 131.525 118.153C132.011 118.153 132.402 118.296 132.698 118.58C133.006 118.864 133.16 119.22 133.16 119.647C133.16 120.109 133.006 120.494 132.698 120.802C132.402 121.098 132.011 121.247 131.525 121.247ZM132.84 122.58V132.144H130.191V122.58H132.84ZM143.832 127.398C143.832 127.433 143.815 127.682 143.779 128.144H136.917C137.047 128.737 137.337 129.205 137.788 129.549C138.25 129.893 138.825 130.064 139.512 130.064C139.986 130.064 140.401 129.993 140.757 129.851C141.124 129.697 141.468 129.46 141.788 129.14L143.192 130.74C142.327 131.771 141.077 132.287 139.441 132.287C138.41 132.287 137.497 132.079 136.703 131.664C135.921 131.238 135.317 130.651 134.89 129.904C134.463 129.158 134.25 128.31 134.25 127.362C134.25 126.426 134.457 125.584 134.872 124.838C135.299 124.079 135.88 123.493 136.615 123.078C137.361 122.651 138.191 122.438 139.103 122.438C139.992 122.438 140.792 122.639 141.503 123.042C142.226 123.445 142.795 124.026 143.21 124.784C143.625 125.531 143.832 126.402 143.832 127.398ZM139.121 124.536C138.529 124.536 138.025 124.713 137.61 125.069C137.207 125.424 136.964 125.91 136.881 126.527H141.343C141.249 125.922 141 125.442 140.597 125.087C140.206 124.719 139.714 124.536 139.121 124.536ZM150.751 122.438C151.889 122.438 152.802 122.793 153.489 123.504C154.177 124.216 154.52 125.27 154.52 126.669V132.144H151.889V127.096C151.889 126.337 151.729 125.774 151.409 125.407C151.089 125.027 150.633 124.838 150.04 124.838C149.377 124.838 148.849 125.057 148.458 125.496C148.067 125.922 147.871 126.562 147.871 127.416V132.144H145.223V122.58H147.747V123.7C148.103 123.297 148.535 122.989 149.045 122.776C149.566 122.55 150.135 122.438 150.751 122.438ZM160.926 132.287C159.954 132.287 159.083 132.079 158.313 131.664C157.542 131.238 156.938 130.651 156.499 129.904C156.073 129.158 155.859 128.31 155.859 127.362C155.859 126.414 156.073 125.567 156.499 124.82C156.938 124.073 157.542 123.493 158.313 123.078C159.083 122.651 159.954 122.438 160.926 122.438C161.886 122.438 162.722 122.651 163.433 123.078C164.144 123.493 164.665 124.091 164.997 124.873L162.953 126.029C162.491 125.152 161.809 124.713 160.908 124.713C160.221 124.713 159.652 124.95 159.202 125.424C158.763 125.898 158.544 126.544 158.544 127.362C158.544 128.18 158.763 128.826 159.202 129.3C159.652 129.774 160.221 130.011 160.908 130.011C161.821 130.011 162.502 129.573 162.953 128.696L164.997 129.869C164.665 130.639 164.144 131.238 163.433 131.664C162.722 132.079 161.886 132.287 160.926 132.287ZM175.067 127.398C175.067 127.433 175.049 127.682 175.013 128.144H168.151C168.281 128.737 168.572 129.205 169.022 129.549C169.484 129.893 170.059 130.064 170.747 130.064C171.221 130.064 171.636 129.993 171.991 129.851C172.359 129.697 172.702 129.46 173.022 129.14L174.427 130.74C173.561 131.771 172.311 132.287 170.676 132.287C169.644 132.287 168.732 132.079 167.938 131.664C167.156 131.238 166.551 130.651 166.124 129.904C165.698 129.158 165.484 128.31 165.484 127.362C165.484 126.426 165.692 125.584 166.107 124.838C166.533 124.079 167.114 123.493 167.849 123.078C168.596 122.651 169.425 122.438 170.338 122.438C171.227 122.438 172.027 122.639 172.738 123.042C173.461 123.445 174.03 124.026 174.444 124.784C174.859 125.531 175.067 126.402 175.067 127.398ZM170.356 124.536C169.763 124.536 169.259 124.713 168.844 125.069C168.441 125.424 168.199 125.91 168.116 126.527H172.578C172.483 125.922 172.234 125.442 171.831 125.087C171.44 124.719 170.948 124.536 170.356 124.536Z" fill="#8423A4"/>
<path d="M62.4434 156.499V155.115H65.4145V153.87H67.1412V155.115H69.8012V156.499H62.4434ZM70.1434 160.933V159.439H71.6212V158.055H70.1434V156.561H71.6212V154.088H73.2856V163.017H71.6212V160.933H70.1434ZM66.2856 161.959C65.3212 161.959 64.5227 161.741 63.8901 161.306C63.2575 160.87 62.9412 160.269 62.9412 159.501C62.9412 158.724 63.2523 158.122 63.8745 157.697C64.5071 157.261 65.3108 157.044 66.2856 157.044C67.2605 157.044 68.059 157.261 68.6812 157.697C69.3138 158.122 69.6301 158.724 69.6301 159.501C69.6301 160.269 69.3138 160.87 68.6812 161.306C68.0486 161.741 67.2501 161.959 66.2856 161.959ZM66.2856 158.35C65.7464 158.35 65.3212 158.459 65.0101 158.677C64.699 158.895 64.5434 159.17 64.5434 159.501C64.5434 159.833 64.699 160.108 65.0101 160.326C65.3212 160.533 65.7464 160.637 66.2856 160.637C66.8145 160.637 67.2345 160.533 67.5456 160.326C67.8568 160.108 68.0123 159.833 68.0123 159.501C68.0123 159.17 67.8568 158.895 67.5456 158.677C67.2345 158.459 66.8145 158.35 66.2856 158.35ZM73.5034 165.941H63.4234V162.441H65.119V164.386H73.5034V165.941ZM85.5262 166.035H83.8462V154.088H85.5262V166.035ZM79.8173 156.079C79.7862 157.448 79.6773 158.61 79.4907 159.564L83.0373 164.261L81.7151 165.304L78.9462 161.539C78.521 162.711 77.9714 163.629 77.2973 164.293C76.6233 164.946 75.861 165.309 75.0107 165.381V163.608C75.6225 163.504 76.1566 163.126 76.6129 162.473C77.0796 161.809 77.4425 160.927 77.7018 159.828C77.961 158.729 78.101 157.479 78.1218 156.079H75.2907V154.461H82.5551V156.079H79.8173ZM90.8563 161.757V154.415H92.5208V156.484H99.1941V154.415H100.859V161.757H90.8563ZM99.1941 158.039H92.5208V160.17H99.1941V158.039ZM101.559 165.521H90.1563V163.873H101.559V165.521ZM108.899 163.033V154.15H110.47V157.137H111.964V154.088H113.55V163.235H111.964V158.724H110.47V163.033H108.899ZM108.23 161.15C107.546 161.441 106.535 161.586 105.197 161.586H102.77V157.23H106.13V155.784H102.77V154.321H107.686V158.615H104.326V160.124H105.306C106.592 160.124 107.567 159.984 108.23 159.704V161.15ZM113.784 165.941H103.424V162.41H105.135V164.355H113.784V165.941ZM123.877 160.684V154.088H125.557V160.684H123.877ZM116.955 155.799V158.599H119.957C120.621 158.599 121.238 158.558 121.809 158.475C122.379 158.381 122.83 158.257 123.162 158.101V159.579C122.83 159.735 122.379 159.859 121.809 159.953C121.249 160.035 120.621 160.077 119.926 160.077H115.26V154.321H122.415V155.799H116.955ZM120.673 160.979C122.197 160.979 123.416 161.187 124.329 161.601C125.241 162.006 125.697 162.649 125.697 163.53C125.697 164.422 125.241 165.075 124.329 165.49C123.416 165.895 122.197 166.097 120.673 166.097C119.149 166.097 117.925 165.895 117.002 165.49C116.089 165.075 115.633 164.422 115.633 163.53C115.633 162.649 116.089 162.006 117.002 161.601C117.925 161.187 119.149 160.979 120.673 160.979ZM120.673 162.426C119.719 162.426 118.941 162.519 118.34 162.706C117.749 162.882 117.453 163.157 117.453 163.53C117.453 163.904 117.749 164.184 118.34 164.37C118.941 164.557 119.719 164.65 120.673 164.65C121.627 164.65 122.4 164.557 122.991 164.37C123.592 164.184 123.893 163.904 123.893 163.53C123.893 163.157 123.592 162.882 122.991 162.706C122.4 162.519 121.627 162.426 120.673 162.426ZM137.934 164.293C136.97 165.195 135.762 165.646 134.31 165.646C133.563 165.646 132.889 165.527 132.288 165.288C131.696 165.039 131.23 164.697 130.888 164.261C130.556 163.815 130.39 163.313 130.39 162.753C130.39 162.089 130.587 161.503 130.981 160.995C131.375 160.476 132.028 159.958 132.941 159.439C132.505 158.983 132.189 158.568 131.992 158.195C131.805 157.821 131.712 157.427 131.712 157.013C131.712 156.266 131.992 155.664 132.552 155.208C133.112 154.741 133.859 154.508 134.792 154.508C135.663 154.508 136.353 154.721 136.861 155.146C137.379 155.561 137.639 156.126 137.639 156.841C137.639 157.391 137.462 157.884 137.11 158.319C136.768 158.755 136.192 159.201 135.383 159.657L137.841 162.099C138.121 161.539 138.328 160.907 138.463 160.201L139.91 160.653C139.702 161.658 139.381 162.488 138.945 163.141L140.361 164.526L139.35 165.677L137.934 164.293ZM134.792 155.768C134.346 155.768 133.993 155.882 133.734 156.11C133.485 156.328 133.361 156.624 133.361 156.997C133.361 157.267 133.428 157.526 133.563 157.775C133.708 158.013 133.978 158.33 134.372 158.724C135.025 158.35 135.476 158.029 135.725 157.759C135.985 157.49 136.114 157.194 136.114 156.873C136.114 156.541 135.995 156.276 135.756 156.079C135.528 155.872 135.207 155.768 134.792 155.768ZM134.434 164.215C135.399 164.215 136.213 163.909 136.876 163.297L133.952 160.388C133.278 160.782 132.806 161.145 132.536 161.477C132.277 161.798 132.148 162.161 132.148 162.566C132.148 163.053 132.355 163.453 132.77 163.764C133.195 164.064 133.75 164.215 134.434 164.215ZM154.584 160.45V166.035H152.904V154.088H154.584V158.739H156.078V160.45H154.584ZM151.069 154.461V165.381H144.629V154.461H151.069ZM149.373 163.733V156.11H146.309V163.733H149.373ZM167.54 166.035H165.954V154.088H167.54V166.035ZM164.678 154.15V165.833H163.123V160.404H161.474C161.225 161.949 160.675 163.157 159.825 164.028C158.975 164.889 157.932 165.335 156.698 165.366V163.764C157.58 163.722 158.29 163.401 158.829 162.799C159.379 162.187 159.742 161.353 159.918 160.295H156.698V158.724H160.043V157.775V156.033H156.698V154.461H161.629V157.713V158.739H163.123V154.15H164.678ZM177.868 161.197V154.088H179.548V161.197H177.868ZM177.09 160.233C176.758 160.388 176.297 160.513 175.705 160.606C175.125 160.689 174.477 160.73 173.761 160.73H169.25V154.321H176.328V155.69H170.93V156.873H176.11V158.164H170.93V159.361H173.885C174.549 159.361 175.161 159.32 175.721 159.237C176.291 159.144 176.748 159.024 177.09 158.879V160.233ZM174.663 161.493C176.198 161.493 177.417 161.674 178.319 162.037C179.231 162.4 179.688 162.986 179.688 163.795C179.688 164.604 179.231 165.19 178.319 165.553C177.417 165.915 176.198 166.097 174.663 166.097C173.128 166.097 171.905 165.915 170.992 165.553C170.08 165.19 169.623 164.604 169.623 163.795C169.623 162.986 170.08 162.4 170.992 162.037C171.905 161.674 173.128 161.493 174.663 161.493ZM174.663 164.713C175.638 164.713 176.421 164.64 177.012 164.495C177.603 164.35 177.899 164.116 177.899 163.795C177.899 163.473 177.603 163.24 177.012 163.095C176.421 162.939 175.638 162.861 174.663 162.861C173.688 162.861 172.905 162.939 172.314 163.095C171.723 163.24 171.428 163.473 171.428 163.795C171.428 164.116 171.718 164.35 172.299 164.495C172.89 164.64 173.678 164.713 174.663 164.713ZM186.811 153.979C188.345 153.979 189.569 154.155 190.482 154.508C191.394 154.85 191.851 155.405 191.851 156.173C191.851 156.94 191.394 157.5 190.482 157.853C189.569 158.205 188.345 158.381 186.811 158.381C185.276 158.381 184.047 158.205 183.124 157.853C182.201 157.5 181.739 156.94 181.739 156.173C181.739 155.405 182.196 154.85 183.108 154.508C184.031 154.155 185.265 153.979 186.811 153.979ZM186.811 155.286C185.815 155.286 185.016 155.358 184.415 155.504C183.824 155.649 183.528 155.872 183.528 156.173C183.528 156.484 183.824 156.712 184.415 156.857C185.016 157.002 185.815 157.075 186.811 157.075C187.806 157.075 188.599 157.002 189.191 156.857C189.782 156.712 190.077 156.484 190.077 156.173C190.077 155.872 189.782 155.649 189.191 155.504C188.599 155.358 187.806 155.286 186.811 155.286ZM181.102 160.326V158.988H192.504V160.326H181.102ZM183.513 163.997V164.744H191.944V165.941H181.848V163.001H190.124V162.27H181.817V161.104H191.788V163.997H183.513ZM84.8085 180.213H83.1285V173.088H84.8085V180.213ZM78.1351 177.63C77.7203 178.284 77.181 178.813 76.5173 179.217C75.8536 179.621 75.1173 179.86 74.3085 179.933V178.33C75.1796 178.227 75.8847 177.858 76.424 177.226C76.9633 176.583 77.2744 175.784 77.3573 174.83H74.464V173.321H81.8218V174.83H79.0685C79.0581 175.297 78.9751 175.764 78.8196 176.23L82.1951 178.533L81.3085 179.839L78.1351 177.63ZM84.8085 180.773V185.097H83.0973V182.297H74.884V180.773H84.8085ZM97.2046 179.404H95.5246V176.604H93.5801V175.11H95.5246V173.088H97.2046V179.404ZM90.3601 177.241C89.9453 177.853 89.4113 178.346 88.7579 178.719C88.115 179.093 87.3942 179.31 86.5957 179.373V177.817C87.415 177.713 88.089 177.387 88.6179 176.837C89.1468 176.287 89.4631 175.608 89.5668 174.799H86.7357V173.321H93.9846V174.799H91.2779C91.2468 175.162 91.1742 175.535 91.0601 175.919L94.3735 177.941L93.5801 179.264L90.3601 177.241ZM97.2046 179.886V184.941H87.3424V179.886H88.9913V180.959H95.5401V179.886H97.2046ZM95.5401 182.328H88.9913V183.541H95.5401V182.328ZM108.757 178.564V177.039H110.919V175.764H109.208V174.239H110.919V173.088H112.599V179.684H110.919V178.564H108.757ZM108.664 174.753C108.664 176.318 108.078 177.485 106.906 178.253C105.734 179.01 104.127 179.388 102.084 179.388V177.864C103.598 177.853 104.785 177.61 105.646 177.133C106.507 176.655 106.937 175.976 106.937 175.095V174.815H102.084V173.321H108.664V174.753ZM107.684 179.979C109.198 179.979 110.416 180.187 111.339 180.601C112.272 181.006 112.739 181.649 112.739 182.53C112.739 183.422 112.278 184.075 111.355 184.49C110.432 184.895 109.208 185.097 107.684 185.097C106.169 185.097 104.951 184.895 104.028 184.49C103.115 184.075 102.659 183.422 102.659 182.53C102.659 181.649 103.115 181.006 104.028 180.601C104.951 180.187 106.169 179.979 107.684 179.979ZM107.684 183.65C108.638 183.65 109.415 183.557 110.017 183.37C110.629 183.184 110.935 182.904 110.935 182.53C110.935 182.157 110.629 181.882 110.017 181.706C109.415 181.519 108.638 181.426 107.684 181.426C106.74 181.426 105.962 181.519 105.35 181.706C104.749 181.882 104.448 182.157 104.448 182.53C104.448 182.904 104.749 183.184 105.35 183.37C105.962 183.557 106.74 183.65 107.684 183.65ZM114.075 175.313V173.975H117.093V172.87H118.804V173.975H121.822V175.313H114.075ZM124.917 180.181H123.237V178.097H121.682V176.541H123.237V173.088H124.917V180.181ZM117.949 180.15C116.984 180.15 116.18 179.958 115.537 179.575C114.905 179.191 114.589 178.662 114.589 177.988C114.589 177.314 114.905 176.78 115.537 176.386C116.18 175.992 116.984 175.795 117.949 175.795C118.913 175.795 119.712 175.992 120.344 176.386C120.987 176.78 121.309 177.314 121.309 177.988C121.309 178.662 120.987 179.191 120.344 179.575C119.712 179.958 118.913 180.15 117.949 180.15ZM117.949 177.07C117.409 177.07 116.979 177.158 116.657 177.335C116.346 177.501 116.191 177.718 116.191 177.988C116.191 178.247 116.346 178.465 116.657 178.641C116.979 178.807 117.409 178.89 117.949 178.89C118.488 178.89 118.918 178.807 119.24 178.641C119.561 178.465 119.722 178.247 119.722 177.988C119.722 177.718 119.561 177.501 119.24 177.335C118.918 177.158 118.488 177.07 117.949 177.07ZM124.886 180.757V184.941H115.055V180.757H124.886ZM123.222 183.557V182.141H116.72V183.557H123.222ZM126.347 175.126V173.85H129.334V172.855H131.06V173.85H134.078V175.126H126.347ZM138.325 176.961H136.831V179.31H135.151V173.088H136.831V175.359H138.325V176.961ZM130.205 179.341C129.22 179.341 128.411 179.181 127.778 178.859C127.145 178.527 126.829 178.061 126.829 177.459C126.829 176.847 127.145 176.381 127.778 176.059C128.411 175.738 129.22 175.577 130.205 175.577C131.19 175.577 131.999 175.738 132.631 176.059C133.264 176.381 133.58 176.847 133.58 177.459C133.58 178.061 133.264 178.527 132.631 178.859C131.999 179.181 131.19 179.341 130.205 179.341ZM130.205 176.759C129.655 176.759 129.22 176.821 128.898 176.946C128.577 177.07 128.416 177.241 128.416 177.459C128.416 177.677 128.577 177.848 128.898 177.973C129.22 178.097 129.655 178.159 130.205 178.159C130.754 178.159 131.19 178.097 131.511 177.973C131.833 177.848 131.994 177.677 131.994 177.459C131.994 177.241 131.833 177.07 131.511 176.946C131.19 176.821 130.754 176.759 130.205 176.759ZM137.049 183.744V184.941H127.14V181.846H135.183V181.068H127.109V179.855H136.831V182.95H128.805V183.744H137.049ZM147.373 176.635C146.73 177.506 145.936 178.195 144.993 178.704C144.059 179.212 143.079 179.471 142.053 179.481V177.801C142.83 177.801 143.582 177.594 144.308 177.179C145.034 176.754 145.646 176.173 146.144 175.437C146.641 174.69 146.963 173.866 147.108 172.964L148.835 173.244C148.71 173.97 148.493 174.649 148.181 175.281L153.019 177.988L152.21 179.466L147.373 176.635ZM148.353 182.235V185.315H146.626V182.235H141.788V180.586H153.19V182.235H148.353ZM166.267 179.715V173.088H167.947V179.715H166.267ZM164.509 176.324C164.509 176.946 164.359 177.495 164.058 177.973C163.768 178.45 163.348 178.823 162.798 179.093C162.259 179.352 161.626 179.481 160.9 179.481C160.185 179.481 159.552 179.352 159.003 179.093C158.463 178.823 158.043 178.45 157.743 177.973C157.442 177.495 157.292 176.946 157.292 176.324C157.292 175.701 157.442 175.152 157.743 174.675C158.043 174.198 158.463 173.83 159.003 173.57C159.552 173.301 160.185 173.166 160.9 173.166C161.626 173.166 162.259 173.301 162.798 173.57C163.348 173.83 163.768 174.198 164.058 174.675C164.359 175.152 164.509 175.701 164.509 176.324ZM158.972 176.324C158.972 176.842 159.148 177.252 159.5 177.553C159.863 177.853 160.33 178.004 160.9 178.004C161.492 178.004 161.963 177.853 162.316 177.553C162.669 177.252 162.845 176.842 162.845 176.324C162.845 175.795 162.669 175.38 162.316 175.079C161.963 174.778 161.492 174.628 160.9 174.628C160.32 174.628 159.853 174.784 159.5 175.095C159.148 175.395 158.972 175.805 158.972 176.324ZM165.769 183.23C165.406 183.759 164.971 184.174 164.463 184.475C163.955 184.765 163.415 184.921 162.845 184.941L160.963 183.277C160.589 183.785 160.154 184.184 159.656 184.475C159.169 184.765 158.65 184.921 158.1 184.941V183.339C158.484 183.318 158.847 183.158 159.189 182.857C159.542 182.556 159.832 182.162 160.06 181.675C160.289 181.187 160.423 180.658 160.465 180.088L162.098 180.353C162.036 180.954 161.912 181.493 161.725 181.97L163.249 183.261C163.757 183.106 164.193 182.733 164.556 182.141C164.929 181.55 165.147 180.866 165.209 180.088L166.827 180.353C166.786 180.871 166.672 181.4 166.485 181.939L168.803 183.775L167.838 185.019L165.769 183.23ZM180.25 176.277V177.77H170.279V173.057H171.974V176.277H180.25ZM169.501 180.43V178.921H180.903V180.43H169.501ZM180.343 183.448V184.941H170.248V181.333H171.959V183.448H180.343ZM98.523 197.953V192.088H100.203V197.953H98.523ZM93.483 195.713C93.0371 196.314 92.4822 196.807 91.8185 197.19C91.1548 197.564 90.4185 197.797 89.6096 197.89V196.319C90.6156 196.153 91.4193 195.692 92.0208 194.935C92.6222 194.167 92.9334 193.244 92.9541 192.166L94.6496 192.275C94.6496 193.042 94.5096 193.763 94.2296 194.437L97.6363 196.381L96.8585 197.688L93.483 195.713ZM100.421 203.941H90.3719V200.659H98.5385V199.788H90.3408V198.513H100.203V201.795H92.0363V202.681H100.421V203.941ZM101.539 194.313V193.006H103.779V191.901H105.459V193.006H107.606V194.313H101.539ZM108.275 199.057V192.15H109.83V194.733H111.277V192.088H112.832V199.477H111.277V196.319H109.83V199.057H108.275ZM107.372 197.035C107.372 197.709 107.113 198.248 106.595 198.653C106.076 199.057 105.428 199.259 104.65 199.259C103.862 199.259 103.209 199.057 102.69 198.653C102.172 198.248 101.912 197.709 101.912 197.035C101.912 196.361 102.172 195.827 102.69 195.433C103.209 195.028 103.862 194.826 104.65 194.826C105.428 194.826 106.076 195.028 106.595 195.433C107.113 195.827 107.372 196.361 107.372 197.035ZM103.406 197.035C103.406 197.315 103.52 197.548 103.748 197.735C103.976 197.911 104.277 197.999 104.65 197.999C105.013 197.999 105.309 197.911 105.537 197.735C105.765 197.548 105.879 197.315 105.879 197.035C105.879 196.755 105.765 196.527 105.537 196.35C105.309 196.174 105.013 196.086 104.65 196.086C104.277 196.086 103.976 196.174 103.748 196.35C103.52 196.527 103.406 196.755 103.406 197.035ZM107.761 199.633C109.338 199.633 110.592 199.809 111.526 200.161C112.469 200.514 112.941 201.079 112.941 201.857C112.941 202.645 112.469 203.215 111.526 203.568C110.592 203.921 109.338 204.097 107.761 204.097C106.185 204.097 104.925 203.921 103.981 203.568C103.048 203.215 102.581 202.645 102.581 201.857C102.581 201.079 103.048 200.514 103.981 200.161C104.925 199.809 106.185 199.633 107.761 199.633ZM107.761 202.744C108.757 202.744 109.571 202.671 110.204 202.526C110.847 202.37 111.168 202.147 111.168 201.857C111.168 201.567 110.847 201.349 110.204 201.204C109.571 201.048 108.757 200.97 107.761 200.97C106.766 200.97 105.947 201.048 105.304 201.204C104.661 201.349 104.339 201.567 104.339 201.857C104.339 202.147 104.661 202.37 105.304 202.526C105.947 202.671 106.766 202.744 107.761 202.744ZM117.727 199.664V198.03H119.625V194.141H117.836V192.508H127.885V194.141H126.096V198.03H127.994V199.664H117.727ZM124.416 198.03V194.141H121.305V198.03H124.416ZM128.554 203.521H117.151V201.857H128.554V203.521ZM140.872 203.521H129.47V201.904H134.308V200.006H130.185V195.479H138.523V194.017H130.185V192.461H140.188V196.973H131.865V198.435H140.328V200.006H136.019V201.904H140.872V203.521ZM152.864 204.035H151.277V192.088H152.864V204.035ZM149.955 192.15V203.833H148.368V197.688H146.797V196.008H148.368V192.15H149.955ZM145.708 192.415C145.708 194.292 145.625 195.91 145.459 197.268L148.135 202.51L146.75 203.241L144.946 199.679C144.334 201.919 143.302 203.153 141.85 203.381V201.593C143.344 201.167 144.101 198.087 144.121 192.353L145.708 192.415ZM159.691 196.288C159.027 197.325 158.224 198.144 157.28 198.746C156.347 199.337 155.367 199.638 154.34 199.648V197.968C155.118 197.968 155.864 197.709 156.58 197.19C157.306 196.672 157.923 195.967 158.431 195.075C158.939 194.183 159.276 193.193 159.442 192.104L161.169 192.399C161.003 193.343 160.759 194.173 160.438 194.888L165.369 198.279L164.467 199.695L159.691 196.288ZM165.509 201.873V203.521H154.107V201.873H165.509Z" fill="#8423A4"/>
</svg>
