<svg width="255" height="255" viewBox="0 0 255 255" fill="none" xmlns="http://www.w3.org/2000/svg">
<rect x="0.384037" y="0.384037" width="254.232" height="254.232" rx="127.116" stroke="#BAFF00" stroke-width="0.768074"/>
<path d="M127.48 47.8826C112.298 47.8826 99.9805 59.976 99.9805 74.8826C99.9805 89.7891 112.298 101.883 127.48 101.883H154.98V88.5272H127.48C119.795 88.5272 113.583 82.4278 113.583 74.8826C113.583 67.3373 119.795 61.238 127.48 61.238H154.98V47.8826H127.48Z" fill="#BAFF00"/>
<path d="M41.2091 132.457C40.0002 132.457 38.9098 132.185 37.938 131.64C36.9661 131.083 36.2017 130.318 35.6446 129.346C35.0876 128.363 34.8091 127.254 34.8091 126.022C34.8091 124.789 35.0876 123.687 35.6446 122.715C36.2017 121.731 36.9661 120.967 37.938 120.422C38.9217 119.865 40.018 119.586 41.2269 119.586C42.2461 119.586 43.1706 119.776 44.0002 120.155C44.8417 120.534 45.5409 121.08 46.098 121.791L44.338 123.497C43.532 122.525 42.5424 122.04 41.3691 122.04C40.6343 122.04 39.9765 122.211 39.3957 122.555C38.8269 122.887 38.3824 123.355 38.0624 123.96C37.7424 124.564 37.5824 125.251 37.5824 126.022C37.5824 126.792 37.7424 127.48 38.0624 128.084C38.3824 128.688 38.8269 129.163 39.3957 129.506C39.9765 129.838 40.6343 130.004 41.3691 130.004C42.5424 130.004 43.532 129.512 44.338 128.528L46.098 130.235C45.5409 130.958 44.8417 131.509 44.0002 131.888C43.1706 132.268 42.2402 132.457 41.2091 132.457ZM51.2712 132.386C50.3112 132.386 49.452 132.179 48.6935 131.764C47.9349 131.337 47.3364 130.751 46.8979 130.004C46.4712 129.257 46.2579 128.41 46.2579 127.462C46.2579 126.514 46.4712 125.666 46.8979 124.92C47.3364 124.173 47.9349 123.592 48.6935 123.177C49.452 122.751 50.3112 122.537 51.2712 122.537C52.2194 122.537 53.0727 122.751 53.8312 123.177C54.5898 123.592 55.1823 124.173 55.609 124.92C56.0357 125.666 56.249 126.514 56.249 127.462C56.249 128.41 56.0357 129.257 55.609 130.004C55.1823 130.751 54.5898 131.337 53.8312 131.764C53.0727 132.179 52.2194 132.386 51.2712 132.386ZM51.2712 130.111C51.9468 130.111 52.4979 129.874 52.9246 129.4C53.3631 128.914 53.5823 128.268 53.5823 127.462C53.5823 126.656 53.3631 126.016 52.9246 125.542C52.4979 125.056 51.9468 124.813 51.2712 124.813C50.5957 124.813 50.0386 125.056 49.6001 125.542C49.1616 126.016 48.9423 126.656 48.9423 127.462C48.9423 128.268 49.1616 128.914 49.6001 129.4C50.0386 129.874 50.5957 130.111 51.2712 130.111ZM69.281 122.537C70.4188 122.537 71.3195 122.893 71.9832 123.604C72.6588 124.303 72.9966 125.358 72.9966 126.768V132.244H70.3655V127.195C70.3655 126.437 70.2114 125.874 69.9032 125.506C69.607 125.127 69.1862 124.937 68.641 124.937C68.0247 124.937 67.5329 125.151 67.1655 125.577C66.8099 125.992 66.6321 126.614 66.6321 127.444V132.244H64.001V127.195C64.001 126.437 63.8529 125.874 63.5566 125.506C63.2603 125.127 62.8336 124.937 62.2766 124.937C61.6721 124.937 61.1862 125.151 60.8188 125.577C60.4632 125.992 60.2855 126.614 60.2855 127.444V132.244H57.6366V122.68H60.161V123.782C60.4929 123.379 60.9018 123.071 61.3877 122.857C61.8855 122.644 62.4307 122.537 63.0232 122.537C63.6632 122.537 64.2381 122.674 64.7477 122.946C65.2692 123.207 65.6899 123.592 66.0099 124.102C66.3773 123.604 66.8455 123.219 67.4144 122.946C67.9832 122.674 68.6055 122.537 69.281 122.537ZM86.656 122.537C87.7938 122.537 88.6945 122.893 89.3582 123.604C90.0338 124.303 90.3716 125.358 90.3716 126.768V132.244H87.7405V127.195C87.7405 126.437 87.5864 125.874 87.2782 125.506C86.982 125.127 86.5612 124.937 86.016 124.937C85.3997 124.937 84.9079 125.151 84.5405 125.577C84.1849 125.992 84.0071 126.614 84.0071 127.444V132.244H81.376V127.195C81.376 126.437 81.2279 125.874 80.9316 125.506C80.6353 125.127 80.2086 124.937 79.6516 124.937C79.0471 124.937 78.5612 125.151 78.1938 125.577C77.8382 125.992 77.6605 126.614 77.6605 127.444V132.244H75.0116V122.68H77.536V123.782C77.8679 123.379 78.2768 123.071 78.7627 122.857C79.2605 122.644 79.8057 122.537 80.3982 122.537C81.0382 122.537 81.6131 122.674 82.1227 122.946C82.6442 123.207 83.0649 123.592 83.3849 124.102C83.7523 123.604 84.2205 123.219 84.7894 122.946C85.3582 122.674 85.9805 122.537 86.656 122.537ZM101.293 127.497C101.293 127.533 101.275 127.782 101.24 128.244H94.3777C94.5081 128.837 94.7984 129.305 95.2488 129.648C95.711 129.992 96.2858 130.164 96.9732 130.164C97.4473 130.164 97.8621 130.093 98.2177 129.951C98.5851 129.797 98.9288 129.56 99.2488 129.24L100.653 130.84C99.7881 131.871 98.5377 132.386 96.9021 132.386C95.871 132.386 94.9584 132.179 94.1644 131.764C93.3821 131.337 92.7777 130.751 92.351 130.004C91.9244 129.257 91.711 128.41 91.711 127.462C91.711 126.525 91.9184 125.684 92.3332 124.937C92.7599 124.179 93.3407 123.592 94.0755 123.177C94.8221 122.751 95.6518 122.537 96.5644 122.537C97.4532 122.537 98.2532 122.739 98.9644 123.142C99.6873 123.545 100.256 124.125 100.671 124.884C101.086 125.631 101.293 126.502 101.293 127.497ZM96.5821 124.635C95.9895 124.635 95.4858 124.813 95.071 125.168C94.6681 125.524 94.4251 126.01 94.3421 126.626H98.8044C98.7095 126.022 98.4607 125.542 98.0577 125.186C97.6666 124.819 97.1747 124.635 96.5821 124.635ZM105.208 123.942C105.528 123.48 105.955 123.13 106.488 122.893C107.021 122.656 107.638 122.537 108.337 122.537V125.097C108.029 125.074 107.827 125.062 107.732 125.062C106.986 125.062 106.399 125.287 105.972 125.737C105.546 126.176 105.332 126.84 105.332 127.728V132.244H102.683V122.68H105.208V123.942ZM113.996 132.386C113.025 132.386 112.153 132.179 111.383 131.764C110.613 131.337 110.008 130.751 109.57 130.004C109.143 129.257 108.93 128.41 108.93 127.462C108.93 126.514 109.143 125.666 109.57 124.92C110.008 124.173 110.613 123.592 111.383 123.177C112.153 122.751 113.025 122.537 113.996 122.537C114.956 122.537 115.792 122.751 116.503 123.177C117.214 123.592 117.736 124.191 118.068 124.973L116.023 126.128C115.561 125.251 114.879 124.813 113.979 124.813C113.291 124.813 112.722 125.05 112.272 125.524C111.833 125.998 111.614 126.644 111.614 127.462C111.614 128.28 111.833 128.925 112.272 129.4C112.722 129.874 113.291 130.111 113.979 130.111C114.891 130.111 115.573 129.672 116.023 128.795L118.068 129.968C117.736 130.739 117.214 131.337 116.503 131.764C115.792 132.179 114.956 132.386 113.996 132.386ZM128.137 127.497C128.137 127.533 128.119 127.782 128.084 128.244H121.221C121.352 128.837 121.642 129.305 122.093 129.648C122.555 129.992 123.13 130.164 123.817 130.164C124.291 130.164 124.706 130.093 125.061 129.951C125.429 129.797 125.773 129.56 126.093 129.24L127.497 130.84C126.632 131.871 125.381 132.386 123.746 132.386C122.715 132.386 121.802 132.179 121.008 131.764C120.226 131.337 119.621 130.751 119.195 130.004C118.768 129.257 118.555 128.41 118.555 127.462C118.555 126.525 118.762 125.684 119.177 124.937C119.604 124.179 120.184 123.592 120.919 123.177C121.666 122.751 122.496 122.537 123.408 122.537C124.297 122.537 125.097 122.739 125.808 123.142C126.531 123.545 127.1 124.125 127.515 124.884C127.93 125.631 128.137 126.502 128.137 127.497ZM123.426 124.635C122.833 124.635 122.33 124.813 121.915 125.168C121.512 125.524 121.269 126.01 121.186 126.626H125.648C125.553 126.022 125.304 125.542 124.901 125.186C124.51 124.819 124.018 124.635 123.426 124.635ZM141.558 131.071C140.373 131.995 138.987 132.457 137.398 132.457C136.498 132.457 135.686 132.315 134.963 132.031C134.24 131.734 133.671 131.326 133.256 130.804C132.853 130.283 132.652 129.696 132.652 129.044C132.652 128.274 132.865 127.598 133.292 127.017C133.73 126.425 134.429 125.862 135.389 125.328C134.939 124.866 134.613 124.428 134.412 124.013C134.21 123.586 134.109 123.148 134.109 122.697C134.109 122.093 134.269 121.56 134.589 121.097C134.909 120.635 135.36 120.28 135.941 120.031C136.533 119.77 137.215 119.64 137.985 119.64C139.064 119.64 139.929 119.9 140.581 120.422C141.232 120.931 141.558 121.625 141.558 122.502C141.558 123.142 141.363 123.711 140.972 124.208C140.592 124.706 139.976 125.186 139.123 125.648L141.398 127.764C141.671 127.195 141.878 126.549 142.021 125.826L144.243 126.52C144.006 127.622 143.627 128.564 143.105 129.346L144.563 130.697L143.052 132.457L141.558 131.071ZM137.985 121.524C137.57 121.524 137.238 121.631 136.989 121.844C136.752 122.057 136.634 122.33 136.634 122.662C136.634 122.911 136.699 123.148 136.829 123.373C136.96 123.586 137.215 123.877 137.594 124.244C138.198 123.924 138.619 123.64 138.856 123.391C139.093 123.13 139.212 122.851 139.212 122.555C139.212 122.247 139.105 121.998 138.892 121.808C138.678 121.619 138.376 121.524 137.985 121.524ZM137.594 130.288C138.459 130.288 139.235 130.046 139.923 129.56L136.918 126.751C136.361 127.071 135.964 127.385 135.727 127.693C135.49 128.001 135.372 128.351 135.372 128.742C135.372 129.204 135.573 129.577 135.976 129.862C136.379 130.146 136.918 130.288 137.594 130.288ZM155.256 132.457C154.047 132.457 152.957 132.185 151.985 131.64C151.013 131.083 150.249 130.318 149.692 129.346C149.134 128.363 148.856 127.254 148.856 126.022C148.856 124.789 149.134 123.687 149.692 122.715C150.249 121.731 151.013 120.967 151.985 120.422C152.969 119.865 154.065 119.586 155.274 119.586C156.293 119.586 157.217 119.776 158.047 120.155C158.889 120.534 159.588 121.08 160.145 121.791L158.385 123.497C157.579 122.525 156.589 122.04 155.416 122.04C154.681 122.04 154.023 122.211 153.443 122.555C152.874 122.887 152.429 123.355 152.109 123.96C151.789 124.564 151.629 125.251 151.629 126.022C151.629 126.792 151.789 127.48 152.109 128.084C152.429 128.688 152.874 129.163 153.443 129.506C154.023 129.838 154.681 130.004 155.416 130.004C156.589 130.004 157.579 129.512 158.385 128.528L160.145 130.235C159.588 130.958 158.889 131.509 158.047 131.888C157.217 132.268 156.287 132.457 155.256 132.457ZM165.318 132.386C164.358 132.386 163.499 132.179 162.74 131.764C161.982 131.337 161.383 130.751 160.945 130.004C160.518 129.257 160.305 128.41 160.305 127.462C160.305 126.514 160.518 125.666 160.945 124.92C161.383 124.173 161.982 123.592 162.74 123.177C163.499 122.751 164.358 122.537 165.318 122.537C166.266 122.537 167.12 122.751 167.878 123.177C168.637 123.592 169.229 124.173 169.656 124.92C170.083 125.666 170.296 126.514 170.296 127.462C170.296 128.41 170.083 129.257 169.656 130.004C169.229 130.751 168.637 131.337 167.878 131.764C167.12 132.179 166.266 132.386 165.318 132.386ZM165.318 130.111C165.994 130.111 166.545 129.874 166.971 129.4C167.41 128.914 167.629 128.268 167.629 127.462C167.629 126.656 167.41 126.016 166.971 125.542C166.545 125.056 165.994 124.813 165.318 124.813C164.643 124.813 164.086 125.056 163.647 125.542C163.208 126.016 162.989 126.656 162.989 127.462C162.989 128.268 163.208 128.914 163.647 129.4C164.086 129.874 164.643 130.111 165.318 130.111ZM177.212 122.537C178.35 122.537 179.263 122.893 179.95 123.604C180.638 124.315 180.981 125.37 180.981 126.768V132.244H178.35V127.195C178.35 126.437 178.19 125.874 177.87 125.506C177.55 125.127 177.094 124.937 176.501 124.937C175.838 124.937 175.31 125.157 174.919 125.595C174.528 126.022 174.332 126.662 174.332 127.515V132.244H171.683V122.68H174.208V123.8C174.563 123.397 174.996 123.088 175.506 122.875C176.027 122.65 176.596 122.537 177.212 122.537ZM188.525 122.537C189.663 122.537 190.575 122.893 191.263 123.604C191.95 124.315 192.294 125.37 192.294 126.768V132.244H189.663V127.195C189.663 126.437 189.503 125.874 189.183 125.506C188.863 125.127 188.406 124.937 187.814 124.937C187.15 124.937 186.623 125.157 186.232 125.595C185.84 126.022 185.645 126.662 185.645 127.515V132.244H182.996V122.68H185.52V123.8C185.876 123.397 186.309 123.088 186.818 122.875C187.34 122.65 187.909 122.537 188.525 122.537ZM203.215 127.497C203.215 127.533 203.197 127.782 203.162 128.244H196.3C196.43 128.837 196.72 129.305 197.171 129.648C197.633 129.992 198.208 130.164 198.895 130.164C199.369 130.164 199.784 130.093 200.14 129.951C200.507 129.797 200.851 129.56 201.171 129.24L202.575 130.84C201.71 131.871 200.46 132.386 198.824 132.386C197.793 132.386 196.88 132.179 196.086 131.764C195.304 131.337 194.7 130.751 194.273 130.004C193.846 129.257 193.633 128.41 193.633 127.462C193.633 126.525 193.84 125.684 194.255 124.937C194.682 124.179 195.263 123.592 195.997 123.177C196.744 122.751 197.574 122.537 198.486 122.537C199.375 122.537 200.175 122.739 200.886 123.142C201.609 123.545 202.178 124.125 202.593 124.884C203.008 125.631 203.215 126.502 203.215 127.497ZM198.504 124.635C197.911 124.635 197.408 124.813 196.993 125.168C196.59 125.524 196.347 126.01 196.264 126.626H200.726C200.631 126.022 200.383 125.542 199.98 125.186C199.588 124.819 199.097 124.635 198.504 124.635ZM208.996 132.386C208.025 132.386 207.153 132.179 206.383 131.764C205.613 131.337 205.008 130.751 204.57 130.004C204.143 129.257 203.93 128.41 203.93 127.462C203.93 126.514 204.143 125.666 204.57 124.92C205.008 124.173 205.613 123.592 206.383 123.177C207.153 122.751 208.025 122.537 208.996 122.537C209.956 122.537 210.792 122.751 211.503 123.177C212.214 123.592 212.736 124.191 213.068 124.973L211.023 126.128C210.561 125.251 209.879 124.813 208.979 124.813C208.291 124.813 207.722 125.05 207.272 125.524C206.833 125.998 206.614 126.644 206.614 127.462C206.614 128.28 206.833 128.925 207.272 129.4C207.722 129.874 208.291 130.111 208.979 130.111C209.891 130.111 210.573 129.672 211.023 128.795L213.068 129.968C212.736 130.739 212.214 131.337 211.503 131.764C210.792 132.179 209.956 132.386 208.996 132.386ZM220.456 131.782C220.196 131.983 219.876 132.137 219.496 132.244C219.129 132.339 218.732 132.386 218.305 132.386C217.227 132.386 216.391 132.096 215.799 131.515C215.206 130.934 214.91 130.081 214.91 128.955V125.026H213.523V122.893H214.91V120.564H217.559V122.893H219.816V125.026H217.559V128.92C217.559 129.323 217.653 129.637 217.843 129.862C218.045 130.075 218.323 130.182 218.679 130.182C219.093 130.182 219.449 130.063 219.745 129.826L220.456 131.782Z" fill="#BAFF00"/>
<path d="M89.3919 156.614V155.199H92.3785V153.97H94.1052V155.199H97.123V156.614H89.3919ZM101.37 158.979H99.8763V163.132H98.1963V154.188H99.8763V157.252H101.37V158.979ZM93.2496 162.059C92.2645 162.059 91.4504 161.841 90.8074 161.406C90.1645 160.97 89.843 160.368 89.843 159.601C89.843 158.834 90.1645 158.232 90.8074 157.797C91.4504 157.361 92.2645 157.143 93.2496 157.143C94.2348 157.143 95.0489 157.361 95.6919 157.797C96.3452 158.232 96.6719 158.834 96.6719 159.601C96.6719 160.368 96.3452 160.97 95.6919 161.406C95.0489 161.841 94.2348 162.059 93.2496 162.059ZM93.2496 158.466C92.7 158.466 92.2593 158.574 91.9274 158.792C91.6059 159 91.4452 159.269 91.4452 159.601C91.4452 159.933 91.6059 160.208 91.9274 160.426C92.2593 160.633 92.7 160.737 93.2496 160.737C93.7993 160.737 94.2348 160.633 94.5563 160.426C94.8882 160.208 95.0541 159.933 95.0541 159.601C95.0541 159.269 94.8882 159 94.5563 158.792C94.2348 158.574 93.7993 158.466 93.2496 158.466ZM100.141 164.486V166.041H90.1696V162.619H91.8808V164.486H100.141ZM102.504 155.79V154.281H112.381V158.31H110.67V155.79H102.504ZM108.306 162.106H112.428V166.197H110.717V163.614H102.426V162.106H106.61V160.426H101.757V158.917H113.159V160.426H108.306V162.106ZM117.851 161.857V154.514H119.516V156.583H126.189V154.514H127.854V161.857H117.851ZM126.189 158.139H119.516V160.27H126.189V158.139ZM128.554 165.621H117.151V163.972H128.554V165.621ZM135.894 163.132V154.25H137.465V157.237H138.959V154.188H140.545V163.334H138.959V158.823H137.465V163.132H135.894ZM135.225 161.25C134.541 161.54 133.53 161.686 132.192 161.686H129.765V157.33H133.125V155.883H129.765V154.421H134.681V158.714H131.321V160.223H132.301C133.587 160.223 134.562 160.083 135.225 159.803V161.25ZM140.779 166.041H130.419V162.51H132.13V164.454H140.779V166.041ZM144.215 156.21V160.114H152.63V161.748H142.488V154.561H152.506V156.21H144.215ZM141.788 165.621V163.972H153.19V165.621H141.788ZM164.575 160.441V166.134H162.895V154.188H164.575V158.73H166.038V160.441H164.575ZM158.695 163.832C160.22 163.832 161.345 163.666 162.071 163.334V164.999C161.687 165.154 161.195 165.274 160.593 165.357C160.002 165.44 159.349 165.481 158.633 165.481H154.107V163.832H157V161.717C156.212 161.54 155.574 161.126 155.087 160.472C154.609 159.819 154.371 159.026 154.371 158.092C154.371 157.366 154.516 156.723 154.807 156.163C155.107 155.593 155.522 155.152 156.051 154.841C156.58 154.53 157.181 154.374 157.855 154.374C158.519 154.374 159.115 154.53 159.644 154.841C160.184 155.152 160.604 155.593 160.904 156.163C161.205 156.723 161.355 157.366 161.355 158.092C161.355 159.026 161.112 159.819 160.624 160.472C160.137 161.126 159.494 161.54 158.695 161.717V163.832ZM157.855 155.961C157.285 155.961 156.829 156.163 156.487 156.568C156.155 156.962 155.989 157.47 155.989 158.092C155.989 158.714 156.155 159.228 156.487 159.632C156.829 160.026 157.285 160.223 157.855 160.223C158.415 160.223 158.867 160.021 159.209 159.617C159.561 159.212 159.738 158.704 159.738 158.092C159.738 157.48 159.561 156.972 159.209 156.568C158.867 156.163 158.415 155.961 157.855 155.961ZM81.011 176.408C80.4406 176.833 79.7251 177.165 78.8643 177.403C78.0139 177.631 77.1117 177.756 76.1576 177.777V176.377C77.1117 176.356 78.0036 176.195 78.8332 175.894C79.6732 175.583 80.2176 175.174 80.4665 174.666H76.3132V173.281H86.2688V174.666H82.3176C82.3073 174.873 82.2399 175.08 82.1154 175.288L86.5643 176.47L86.1599 177.823L81.011 176.408ZM82.131 180.763C83.4273 180.826 84.4539 181.033 85.211 181.386C85.9784 181.728 86.3621 182.257 86.3621 182.972C86.3621 183.76 85.9006 184.331 84.9776 184.683C84.0651 185.036 82.8362 185.212 81.291 185.212C79.7458 185.212 78.5117 185.036 77.5888 184.683C76.6762 184.331 76.2199 183.76 76.2199 182.972C76.2199 182.257 76.5984 181.728 77.3554 181.386C78.1228 181.033 79.1547 180.826 80.451 180.763V179.861H75.5821V178.461H86.9843V179.861H82.131V180.763ZM84.5576 182.972C84.5576 182.661 84.2569 182.438 83.6554 182.303C83.0643 182.168 82.2762 182.101 81.291 182.101C79.1028 182.101 78.0088 182.391 78.0088 182.972C78.0088 183.283 78.3095 183.511 78.911 183.657C79.5125 183.791 80.3058 183.859 81.291 183.859C82.2658 183.859 83.0539 183.791 83.6554 183.657C84.2569 183.511 84.5576 183.283 84.5576 182.972ZM88.6471 174.79V173.281H98.5249V177.31H96.8138V174.79H88.6471ZM94.4493 181.106H98.5716V185.197H96.8605V182.614H88.5693V181.106H92.7538V179.426H87.9005V177.917H99.3027V179.426H94.4493V181.106ZM108.879 177.31C108.226 178.316 107.428 179.109 106.484 179.69C105.551 180.271 104.565 180.561 103.528 180.561V178.881C104.316 178.881 105.068 178.637 105.784 178.15C106.499 177.652 107.111 176.973 107.619 176.112C108.128 175.241 108.465 174.271 108.631 173.203L110.357 173.499C110.191 174.422 109.958 175.226 109.657 175.91L114.542 179.161L113.655 180.592L108.879 177.31ZM114.697 182.972V184.621H103.295V182.972H108.148V179.892H109.844V182.972H114.697ZM126.378 185.134H124.698V173.188H126.378V185.134ZM122.769 173.514V184.481H116.22V173.514H117.884V177.388H121.104V173.514H122.769ZM121.104 179.006H117.884V182.863H121.104V179.006ZM138.369 179.55V185.134H136.689V173.188H138.369V177.839H139.863V179.55H138.369ZM132.816 175.179C132.785 176.465 132.676 177.631 132.489 178.679L135.989 183.361L134.652 184.403L131.929 180.67C131.515 181.831 130.975 182.739 130.312 183.392C129.648 184.046 128.896 184.408 128.056 184.481V182.708C128.668 182.604 129.202 182.226 129.658 181.572C130.115 180.908 130.467 180.027 130.716 178.928C130.965 177.828 131.095 176.579 131.105 175.179H128.336V173.561H135.476V175.179H132.816ZM142.677 176.066V176.797H151.03V177.87H141.043V175.086H149.272V174.354H141.028V173.281H150.906V176.066H142.677ZM140.25 179.783V178.57H151.652V179.783H140.25ZM142.63 183.237V183.968H151.092V185.041H140.997V182.272H149.303V181.572H140.966V180.483H150.937V183.237H142.63ZM164.729 181.354V173.188H166.409V181.354H164.729ZM159.347 180.001C158.631 180.001 157.999 179.856 157.449 179.566C156.899 179.275 156.474 178.876 156.173 178.368C155.873 177.86 155.722 177.279 155.722 176.626C155.722 175.983 155.873 175.407 156.173 174.899C156.474 174.391 156.899 173.991 157.449 173.701C157.999 173.411 158.631 173.266 159.347 173.266C160.062 173.266 160.695 173.411 161.245 173.701C161.794 173.991 162.219 174.391 162.52 174.899C162.821 175.407 162.971 175.983 162.971 176.626C162.971 177.279 162.821 177.86 162.52 178.368C162.219 178.876 161.794 179.275 161.245 179.566C160.695 179.856 160.062 180.001 159.347 180.001ZM159.347 174.743C158.776 174.743 158.31 174.914 157.947 175.257C157.584 175.599 157.402 176.055 157.402 176.626C157.402 177.206 157.584 177.668 157.947 178.01C158.31 178.352 158.776 178.523 159.347 178.523C159.928 178.523 160.399 178.352 160.762 178.01C161.125 177.668 161.307 177.206 161.307 176.626C161.307 176.055 161.125 175.599 160.762 175.257C160.399 174.914 159.928 174.743 159.347 174.743ZM161.447 183.05C160.856 183.683 160.13 184.175 159.269 184.528C158.408 184.87 157.511 185.041 156.578 185.041V183.377C157.293 183.366 157.968 183.242 158.6 183.003C159.233 182.754 159.772 182.402 160.218 181.946C160.664 181.479 160.959 180.934 161.105 180.312L162.785 180.623C162.681 181.059 162.551 181.443 162.396 181.774L166.922 183.641L166.3 185.197L161.447 183.05ZM178.712 176.377V177.87H168.741V173.157H170.436V176.377H178.712ZM167.963 180.53V179.021H179.365V180.53H167.963ZM178.805 183.548V185.041H168.71V181.432H170.421V183.548H178.805ZM106.44 204.134H104.76V198.519H102.147C101.898 199.556 101.473 200.448 100.871 201.194C100.28 201.931 99.5696 202.491 98.7399 202.874C97.9103 203.258 97.0133 203.455 96.0488 203.466V201.801C97.1481 201.801 98.0814 201.511 98.8488 200.93C99.6162 200.349 100.155 199.509 100.467 198.41H96.0488V196.792H100.731C100.741 196.647 100.747 196.419 100.747 196.108V194.179H96.0488V192.561H102.427V195.999C102.427 196.206 102.416 196.497 102.395 196.87H104.76V192.188H106.44V204.134ZM118.758 204.134H117.078V198.519H114.869V203.481H108.461V192.561H114.869V196.87H117.078V192.188H118.758V204.134ZM110.156 194.21V201.832H113.189V194.21H110.156ZM125.819 196.388C125.155 197.425 124.351 198.244 123.408 198.846C122.474 199.437 121.494 199.737 120.468 199.748V198.068C121.246 198.068 121.992 197.808 122.708 197.29C123.434 196.771 124.051 196.066 124.559 195.174C125.067 194.283 125.404 193.292 125.57 192.203L127.297 192.499C127.131 193.443 126.887 194.272 126.566 194.988L131.497 198.379L130.594 199.794L125.819 196.388ZM131.637 201.972V203.621H120.234V201.972H131.637ZM135.956 195.501V193.868H138.787V192.141H140.498V193.868H143.313V195.501H135.956ZM146.471 204.134H144.776V198.721H143.096V197.041H144.776V192.188H146.471V204.134ZM139.627 196.263C140.259 196.263 140.819 196.424 141.307 196.746C141.794 197.057 142.173 197.492 142.442 198.052C142.712 198.612 142.847 199.245 142.847 199.95C142.847 200.655 142.712 201.288 142.442 201.848C142.173 202.408 141.794 202.843 141.307 203.154C140.819 203.466 140.259 203.621 139.627 203.621C138.994 203.621 138.434 203.466 137.947 203.154C137.47 202.843 137.096 202.408 136.827 201.848C136.557 201.288 136.422 200.655 136.422 199.95C136.422 199.245 136.557 198.612 136.827 198.052C137.096 197.492 137.47 197.057 137.947 196.746C138.434 196.424 138.994 196.263 139.627 196.263ZM139.627 202.097C140.093 202.097 140.477 201.9 140.778 201.506C141.079 201.111 141.229 200.593 141.229 199.95C141.229 199.297 141.079 198.778 140.778 198.394C140.487 198 140.104 197.803 139.627 197.803C139.16 197.803 138.776 198 138.476 198.394C138.185 198.778 138.04 199.297 138.04 199.95C138.04 200.593 138.185 201.111 138.476 201.506C138.776 201.9 139.16 202.097 139.627 202.097ZM148.647 199.857V192.514H150.312V194.583H156.985V192.514H158.65V199.857H148.647ZM156.985 196.139H150.312V198.27H156.985V196.139ZM159.35 203.621H147.947V201.972H159.35V203.621Z" fill="#BAFF00"/>
</svg>
