<svg width="255" height="255" viewBox="0 0 255 255" fill="none" xmlns="http://www.w3.org/2000/svg">
<rect x="0.384037" y="0.384037" width="254.232" height="254.232" rx="127.116" stroke="white" stroke-width="0.768074"/>
<path d="M127.48 47.9777H99.9805V101.978H113.583V61.3331H127.427H127.534C132.006 61.3331 135.969 63.4363 138.513 66.67C140.307 68.9573 141.378 71.8492 141.378 74.9777V101.978H154.98V74.9777C154.98 60.0712 142.663 47.9777 127.48 47.9777Z" fill="white"/>
<path d="M102.314 132.339H100.056L94.172 124.784V132.339H91.4698V119.895H93.7276L99.612 127.45V119.895H102.314V132.339ZM113.035 127.593C113.035 127.628 113.018 127.877 112.982 128.339H106.12C106.25 128.932 106.541 129.4 106.991 129.744C107.453 130.087 108.028 130.259 108.715 130.259C109.19 130.259 109.604 130.188 109.96 130.046C110.327 129.892 110.671 129.655 110.991 129.335L112.395 130.935C111.53 131.966 110.28 132.481 108.644 132.481C107.613 132.481 106.701 132.274 105.907 131.859C105.124 131.433 104.52 130.846 104.093 130.099C103.667 129.353 103.453 128.505 103.453 127.557C103.453 126.621 103.661 125.779 104.075 125.033C104.502 124.274 105.083 123.687 105.818 123.273C106.564 122.846 107.394 122.633 108.307 122.633C109.195 122.633 109.995 122.834 110.707 123.237C111.43 123.64 111.998 124.221 112.413 124.979C112.828 125.726 113.035 126.597 113.035 127.593ZM108.324 124.73C107.732 124.73 107.228 124.908 106.813 125.264C106.41 125.619 106.167 126.105 106.084 126.721H110.547C110.452 126.117 110.203 125.637 109.8 125.281C109.409 124.914 108.917 124.73 108.324 124.73ZM120.292 131.877C120.032 132.078 119.712 132.233 119.332 132.339C118.965 132.434 118.568 132.481 118.141 132.481C117.063 132.481 116.227 132.191 115.635 131.61C115.042 131.03 114.746 130.176 114.746 129.05V125.121H113.359V122.988H114.746V120.659H117.395V122.988H119.652V125.121H117.395V129.015C117.395 129.418 117.489 129.732 117.679 129.957C117.88 130.17 118.159 130.277 118.515 130.277C118.929 130.277 119.285 130.158 119.581 129.921L120.292 131.877ZM133.076 132.339H130.534L128.507 126.401L126.392 132.339H123.849L120.578 122.775H123.067L125.201 129.246L127.441 122.775H129.663L131.832 129.246L134.036 122.775H136.365L133.076 132.339ZM141.576 132.481C140.616 132.481 139.757 132.274 138.998 131.859C138.24 131.433 137.641 130.846 137.203 130.099C136.776 129.353 136.563 128.505 136.563 127.557C136.563 126.609 136.776 125.761 137.203 125.015C137.641 124.268 138.24 123.687 138.998 123.273C139.757 122.846 140.616 122.633 141.576 122.633C142.524 122.633 143.377 122.846 144.136 123.273C144.894 123.687 145.487 124.268 145.914 125.015C146.34 125.761 146.554 126.609 146.554 127.557C146.554 128.505 146.34 129.353 145.914 130.099C145.487 130.846 144.894 131.433 144.136 131.859C143.377 132.274 142.524 132.481 141.576 132.481ZM141.576 130.206C142.251 130.206 142.803 129.969 143.229 129.495C143.668 129.009 143.887 128.363 143.887 127.557C143.887 126.751 143.668 126.111 143.229 125.637C142.803 125.151 142.251 124.908 141.576 124.908C140.9 124.908 140.343 125.151 139.905 125.637C139.466 126.111 139.247 126.751 139.247 127.557C139.247 128.363 139.466 129.009 139.905 129.495C140.343 129.969 140.9 130.206 141.576 130.206ZM150.466 124.037C150.786 123.575 151.212 123.225 151.746 122.988C152.279 122.751 152.895 122.633 153.595 122.633V125.193C153.286 125.169 153.085 125.157 152.99 125.157C152.243 125.157 151.657 125.382 151.23 125.833C150.803 126.271 150.59 126.935 150.59 127.824V132.339H147.941V122.775H150.466V124.037ZM157.512 129.904V132.339H154.863V119.148H157.512V126.615L161.352 122.775H164.499L160.712 126.828L164.836 132.339H161.636L158.774 128.588L157.512 129.904Z" fill="white"/>
<path d="M56.9337 156.694V155.31H59.9048V154.065H61.6314V155.31H64.2914V156.694H56.9337ZM64.6337 161.127V159.634H66.1114V158.25H64.6337V156.756H66.1114V154.283H67.7759V163.212H66.1114V161.127H64.6337ZM60.7759 162.154C59.8114 162.154 59.0129 161.936 58.3803 161.501C57.7477 161.065 57.4314 160.464 57.4314 159.696C57.4314 158.918 57.7425 158.317 58.3648 157.892C58.9974 157.456 59.8011 157.238 60.7759 157.238C61.7507 157.238 62.5492 157.456 63.1714 157.892C63.804 158.317 64.1203 158.918 64.1203 159.696C64.1203 160.464 63.804 161.065 63.1714 161.501C62.5388 161.936 61.7403 162.154 60.7759 162.154ZM60.7759 158.545C60.2366 158.545 59.8114 158.654 59.5003 158.872C59.1892 159.09 59.0337 159.364 59.0337 159.696C59.0337 160.028 59.1892 160.303 59.5003 160.521C59.8114 160.728 60.2366 160.832 60.7759 160.832C61.3048 160.832 61.7248 160.728 62.0359 160.521C62.347 160.303 62.5025 160.028 62.5025 159.696C62.5025 159.364 62.347 159.09 62.0359 158.872C61.7248 158.654 61.3048 158.545 60.7759 158.545ZM67.9937 166.136H57.9137V162.636H59.6092V164.581H67.9937V166.136ZM80.0165 166.23H78.3365V154.283H80.0165V166.23ZM74.3076 156.274C74.2765 157.643 74.1676 158.804 73.9809 159.758L77.5276 164.456L76.2053 165.498L73.4365 161.734C73.0113 162.906 72.4616 163.824 71.7876 164.487C71.1135 165.141 70.3513 165.504 69.5009 165.576V163.803C70.1128 163.699 70.6468 163.321 71.1031 162.667C71.5698 162.004 71.9328 161.122 72.192 160.023C72.4513 158.924 72.5913 157.674 72.612 156.274H69.7809V154.656H77.0453V156.274H74.3076ZM94.1354 160.365V154.283H95.7221V160.365H94.1354ZM89.531 157.223V155.667H91.2888V154.345H92.8443V160.241H91.2888V157.223H89.531ZM87.6332 158.296C86.9384 159.437 85.9377 160.101 84.631 160.287V158.732C86.1762 158.307 86.9488 156.86 86.9488 154.392L88.551 154.454C88.551 155.429 88.4525 156.238 88.2554 156.881L90.8843 158.965L89.9199 160.194L87.6332 158.296ZM95.9399 166.136H85.5954V162.994H94.0732V162.216H85.5643V160.925H95.7221V164.052H87.2443V164.845H95.9399V166.136ZM107.807 160.941H106.127V157.892H104.369V156.274H106.127V154.283H107.807V160.941ZM102.052 155.87H97.3538V154.516H103.716V158.281H99.0493V159.432H101.725C102.399 159.432 103.016 159.39 103.576 159.307C104.136 159.224 104.587 159.11 104.929 158.965V160.287C104.608 160.443 104.157 160.567 103.576 160.661C102.995 160.744 102.347 160.785 101.632 160.785H97.3849V157.005H102.052V155.87ZM107.776 161.423V166.136H97.9449V161.423H99.6093V162.403H106.112V161.423H107.776ZM106.112 163.741H99.6093V164.752H106.112V163.741ZM110.699 163.43C111.041 163.43 111.321 163.544 111.539 163.772C111.757 163.99 111.865 164.27 111.865 164.612C111.865 164.788 111.845 164.959 111.803 165.125C111.762 165.291 111.679 165.53 111.554 165.841L110.777 168.034H109.594L110.217 165.67C109.999 165.587 109.823 165.452 109.688 165.265C109.563 165.078 109.501 164.861 109.501 164.612C109.501 164.27 109.615 163.99 109.843 163.772C110.071 163.544 110.357 163.43 110.699 163.43ZM116.702 158.561V157.285H118.6V155.636H116.827V154.376H126.72V155.636H124.931V157.285H126.829V158.561H116.702ZM123.267 157.285V155.636H120.28V157.285H123.267ZM127.467 160.661H116.065V159.354H127.467V160.661ZM126.907 165.001V166.136H116.811V163.29H125.087V162.574H116.78V161.438H126.751V164.285H118.46V165.001H126.907ZM134.807 161.61V154.345H136.378V156.99H137.872V154.283H139.458V162.714H137.872V158.623H136.378V161.61H134.807ZM134.138 160.987C133.454 161.278 132.443 161.423 131.105 161.423H128.678V157.285H132.038V155.932H128.678V154.516H133.594V158.623H130.234V159.992H131.214C132.5 159.992 133.475 159.852 134.138 159.572V160.987ZM134.278 164.41C133.667 164.97 132.915 165.395 132.023 165.685C131.131 165.975 130.193 166.126 129.207 166.136V164.534C129.954 164.524 130.664 164.415 131.338 164.207C132.023 163.99 132.604 163.684 133.081 163.29C133.558 162.885 133.864 162.408 133.998 161.858L135.647 162.232C135.595 162.491 135.487 162.797 135.321 163.15L139.987 164.752L139.412 166.292L134.278 164.41ZM152.103 161.314H140.701V159.945H145.57V158.965H141.339V157.596H143.237V155.73H141.463V154.376H151.357V155.73H149.568V157.596H151.466V158.965H147.25V159.945H152.103V161.314ZM147.903 157.596V155.73H144.917V157.596H147.903ZM151.372 162.201V166.136H141.448V162.201H151.372ZM149.692 164.798V163.538H143.112V164.798H149.692ZM154.435 163.43C154.777 163.43 155.057 163.544 155.275 163.772C155.493 163.99 155.602 164.27 155.602 164.612C155.602 164.788 155.581 164.959 155.54 165.125C155.498 165.291 155.415 165.53 155.291 165.841L154.513 168.034H153.331L153.953 165.67C153.735 165.587 153.559 165.452 153.424 165.265C153.3 165.078 153.237 164.861 153.237 164.612C153.237 164.27 153.351 163.99 153.58 163.772C153.808 163.544 154.093 163.43 154.435 163.43ZM170.099 158.11L166.568 164.425H165.759L162.228 158.203V165.701H160.563V154.812H162.025L166.194 162.201L170.316 154.812H171.779L171.794 165.701H170.114L170.099 158.11ZM178.936 165.841C177.899 165.841 176.961 165.602 176.121 165.125C175.281 164.638 174.617 163.969 174.13 163.118C173.653 162.268 173.414 161.314 173.414 160.256C173.414 159.198 173.653 158.244 174.13 157.394C174.617 156.544 175.281 155.88 176.121 155.403C176.961 154.915 177.905 154.672 178.952 154.672C179.792 154.672 180.554 154.822 181.239 155.123C181.934 155.424 182.519 155.864 182.996 156.445L181.861 157.565C181.094 156.704 180.15 156.274 179.03 156.274C178.304 156.274 177.651 156.445 177.07 156.787C176.489 157.13 176.033 157.607 175.701 158.218C175.379 158.82 175.219 159.499 175.219 160.256C175.219 161.013 175.379 161.698 175.701 162.31C176.033 162.911 176.489 163.383 177.07 163.725C177.651 164.067 178.304 164.238 179.03 164.238C180.15 164.238 181.094 163.803 181.861 162.932L182.996 164.052C182.519 164.643 181.934 165.089 181.239 165.39C180.544 165.69 179.776 165.841 178.936 165.841ZM193.56 165.701H192.097L186.233 158.016V165.701H184.475V154.812H185.937L191.802 162.496V154.812H193.56V165.701ZM196.64 163.43C196.982 163.43 197.262 163.544 197.48 163.772C197.698 163.99 197.807 164.27 197.807 164.612C197.807 164.788 197.786 164.959 197.745 165.125C197.703 165.291 197.62 165.53 197.496 165.841L196.718 168.034H195.536L196.158 165.67C195.94 165.587 195.764 165.452 195.629 165.265C195.505 165.078 195.442 164.861 195.442 164.612C195.442 164.27 195.557 163.99 195.785 163.772C196.013 163.544 196.298 163.43 196.64 163.43ZM66.642 185.23H65.0554V173.283H66.642V185.23ZM63.7331 173.345V185.027H62.1465V179.381H60.4976V177.716H62.1465V173.345H63.7331ZM59.362 175.258C59.3517 176.503 59.2894 177.623 59.1754 178.618L61.8665 183.612L60.5287 184.405L58.6931 180.952C58.102 183.181 57.0805 184.39 55.6287 184.576V182.85C56.3028 182.684 56.8213 181.932 57.1842 180.594C57.5472 179.256 57.7391 177.478 57.7598 175.258H55.8309V173.656H61.1976V175.258H59.362ZM78.3226 177.327V180.407H76.6426V173.283H78.3226V175.632H79.8159V177.327H78.3226ZM71.8048 177.825C71.39 178.478 70.8559 179.007 70.2026 179.412C69.5596 179.816 68.8389 180.055 68.0404 180.127V178.525C68.9011 178.421 69.5908 178.053 70.1093 177.421C70.6382 176.778 70.9441 175.979 71.027 175.025H68.1959V173.516H75.4448V175.025H72.7382C72.707 175.564 72.6241 176.031 72.4893 176.425L75.787 178.727L74.9159 180.034L71.8048 177.825ZM78.3226 180.967V185.292H76.6115V182.492H68.5382V180.967H78.3226ZM92.3638 182.15V173.283H94.0438V182.15H92.3638ZM86.9816 173.361C87.7075 173.361 88.3453 173.511 88.8949 173.812C89.4549 174.102 89.8853 174.517 90.186 175.056C90.4868 175.585 90.6371 176.192 90.6371 176.876C90.6371 177.561 90.4868 178.173 90.186 178.712C89.8853 179.241 89.4549 179.655 88.8949 179.956C88.3453 180.247 87.7075 180.392 86.9816 180.392C86.2557 180.392 85.6127 180.247 85.0527 179.956C84.5031 179.655 84.0779 179.241 83.7771 178.712C83.4764 178.173 83.326 177.561 83.326 176.876C83.326 176.192 83.4764 175.585 83.7771 175.056C84.0779 174.517 84.5031 174.102 85.0527 173.812C85.6127 173.511 86.2557 173.361 86.9816 173.361ZM86.9816 174.854C86.4008 174.854 85.929 175.035 85.566 175.398C85.2031 175.751 85.0216 176.244 85.0216 176.876C85.0216 177.509 85.2031 178.007 85.566 178.37C85.929 178.733 86.4008 178.914 86.9816 178.914C87.5727 178.914 88.0497 178.733 88.4127 178.37C88.7757 178.007 88.9571 177.509 88.9571 176.876C88.9571 176.244 88.7757 175.751 88.4127 175.398C88.0497 175.035 87.5727 174.854 86.9816 174.854ZM94.2927 183.55V185.136H84.3371V181.123H86.0482V183.55H94.2927ZM96.1733 180.858V179.225H98.0711V175.336H96.2822V173.703H106.331V175.336H104.542V179.225H106.44V180.858H96.1733ZM102.862 179.225V175.336H99.7511V179.225H102.862ZM107 184.716H95.5977V183.052H107V184.716ZM118.354 179.645V185.23H116.674V173.283H118.354V177.934H119.847V179.645H118.354ZM112.941 182.99C113.48 182.99 114.019 182.938 114.558 182.834C115.098 182.73 115.538 182.59 115.881 182.414V184.001C115.538 184.177 115.092 184.317 114.543 184.421C113.993 184.524 113.438 184.576 112.878 184.576H108.398V178.261H113.065V175.258H108.367V173.656H114.745V179.847H110.063V182.99H112.941ZM132.473 173.283H134.153V182.15H132.473V177.545H130.528V176.005H132.473V173.283ZM127.339 178.012C126.914 178.738 126.375 179.324 125.722 179.77C125.068 180.205 124.342 180.454 123.544 180.516V178.914C124.394 178.8 125.084 178.39 125.613 177.685C126.142 176.98 126.448 176.098 126.531 175.041H123.684V173.516H130.933V175.041H128.226C128.216 175.518 128.138 176.031 127.993 176.581L131.322 179.147L130.373 180.423L127.339 178.012ZM134.355 185.136H124.291V181.185H126.002V183.55H134.355V185.136ZM147.56 177.685H146.067V182.15H144.387V173.283H146.067V175.974H147.56V177.685ZM135.971 180.298V173.47H137.636V175.321H141.073V173.47H142.722V180.298H135.971ZM141.073 176.783H137.636V178.79H141.073V176.783ZM146.331 183.55V185.136H136.36V181.201H138.071V183.55H146.331ZM153.656 173.174C155.191 173.174 156.415 173.35 157.327 173.703C158.24 174.045 158.696 174.6 158.696 175.367C158.696 176.135 158.24 176.695 157.327 177.047C156.415 177.4 155.191 177.576 153.656 177.576C152.121 177.576 150.893 177.4 149.97 177.047C149.047 176.695 148.585 176.135 148.585 175.367C148.585 174.6 149.041 174.045 149.954 173.703C150.877 173.35 152.111 173.174 153.656 173.174ZM153.656 174.481C152.661 174.481 151.862 174.553 151.261 174.698C150.67 174.844 150.374 175.067 150.374 175.367C150.374 175.678 150.67 175.907 151.261 176.052C151.862 176.197 152.661 176.27 153.656 176.27C154.652 176.27 155.445 176.197 156.036 176.052C156.627 175.907 156.923 175.678 156.923 175.367C156.923 175.067 156.627 174.844 156.036 174.698C155.445 174.553 154.652 174.481 153.656 174.481ZM147.947 179.521V178.183H159.35V179.521H147.947ZM150.358 183.192V183.938H158.79V185.136H148.694V182.196H156.97V181.465H148.663V180.298H158.634V183.192H150.358ZM174.744 184.716H163.342V183.067H168.195V180.718H164.042V173.61H165.706V175.507H172.38V173.61H174.044V180.718H169.891V183.067H174.744V184.716ZM172.38 179.116V177.078H165.706V179.116H172.38ZM181.369 179.754C180.342 179.754 179.44 179.63 178.662 179.381C177.895 179.121 177.299 178.748 176.874 178.261C176.459 177.773 176.251 177.198 176.251 176.534C176.251 175.87 176.459 175.3 176.874 174.823C177.299 174.335 177.895 173.967 178.662 173.718C179.44 173.459 180.342 173.33 181.369 173.33C182.396 173.33 183.293 173.459 184.06 173.718C184.838 173.967 185.434 174.335 185.849 174.823C186.274 175.3 186.487 175.87 186.487 176.534C186.487 177.198 186.274 177.773 185.849 178.261C185.434 178.748 184.838 179.121 184.06 179.381C183.293 179.63 182.396 179.754 181.369 179.754ZM181.369 174.901C180.363 174.901 179.549 175.046 178.927 175.336C178.315 175.616 178.009 176.015 178.009 176.534C178.009 177.053 178.315 177.457 178.927 177.747C179.549 178.038 180.363 178.183 181.369 178.183C182.375 178.183 183.184 178.038 183.796 177.747C184.408 177.457 184.714 177.053 184.714 176.534C184.714 176.015 184.402 175.616 183.78 175.336C183.168 175.046 182.365 174.901 181.369 174.901ZM184.434 182.352V185.51H182.754V182.352H179.985V185.51H178.305V182.352H175.66V180.718H187.062V182.352H184.434ZM187.932 175.71V174.294H190.919V173.065H192.645V174.294H195.663V175.71H187.932ZM199.91 178.074H198.416V182.227H196.736V173.283H198.416V176.347H199.91V178.074ZM191.79 181.154C190.805 181.154 189.99 180.936 189.347 180.501C188.705 180.065 188.383 179.464 188.383 178.696C188.383 177.929 188.705 177.327 189.347 176.892C189.99 176.456 190.805 176.238 191.79 176.238C192.775 176.238 193.589 176.456 194.232 176.892C194.885 177.327 195.212 177.929 195.212 178.696C195.212 179.464 194.885 180.065 194.232 180.501C193.589 180.936 192.775 181.154 191.79 181.154ZM191.79 177.561C191.24 177.561 190.799 177.67 190.467 177.887C190.146 178.095 189.985 178.364 189.985 178.696C189.985 179.028 190.146 179.303 190.467 179.521C190.799 179.728 191.24 179.832 191.79 179.832C192.339 179.832 192.775 179.728 193.096 179.521C193.428 179.303 193.594 179.028 193.594 178.696C193.594 178.364 193.428 178.095 193.096 177.887C192.775 177.67 192.339 177.561 191.79 177.561ZM198.681 183.581V185.136H188.71V181.714H190.421V183.581H198.681ZM98.6008 192.283H100.281V201.15H98.6008V196.545H96.6563V195.005H98.6008V192.283ZM93.4674 197.012C93.0422 197.738 92.503 198.324 91.8496 198.77C91.1963 199.205 90.4704 199.454 89.6719 199.516V197.914C90.5222 197.8 91.2119 197.39 91.7408 196.685C92.2696 195.98 92.5756 195.098 92.6585 194.041H89.8119V192.516H97.0608V194.041H94.3541C94.3437 194.518 94.2659 195.031 94.1208 195.581L97.4496 198.147L96.5008 199.423L93.4674 197.012ZM100.483 204.136H90.4185V200.185H92.1296V202.55H100.483V204.136ZM102.535 197.261V192.376H112.397V197.261H102.535ZM104.199 193.792V195.83H110.717V193.792H104.199ZM113.159 199.75H108.306V201.632H106.61V199.75H101.757V198.272H113.159V199.75ZM112.615 202.658V204.136H102.504V200.652H104.215V202.658H112.615ZM128.227 204.23H126.64V192.283H128.227V204.23ZM125.427 192.345V204.027H123.856V198.163H121.149V196.498H123.856V192.345H125.427ZM120.371 202.005C120.838 202.005 121.31 201.969 121.787 201.896C122.264 201.813 122.674 201.704 123.016 201.57V203.125C122.694 203.27 122.274 203.384 121.756 203.467C121.237 203.54 120.714 203.576 120.185 203.576H117.463V192.625H119.096V202.005H120.371ZM130.185 200.434V192.656H140.188V194.212H131.865V195.783H140.016V197.276H131.865V198.863H140.328V200.434H130.185ZM140.872 203.716H129.47V202.098H140.872V203.716ZM152.646 204.23H150.95V203.078H147.73V201.554H150.95V192.283H152.646V204.23ZM145.786 198.272C145.122 198.272 144.531 198.153 144.013 197.914C143.494 197.675 143.09 197.338 142.799 196.903C142.509 196.457 142.364 195.949 142.364 195.378C142.364 194.798 142.509 194.29 142.799 193.854C143.09 193.408 143.494 193.066 144.013 192.827C144.531 192.589 145.122 192.47 145.786 192.47C146.45 192.47 147.041 192.589 147.559 192.827C148.078 193.066 148.482 193.408 148.773 193.854C149.063 194.29 149.208 194.798 149.208 195.378C149.208 195.949 149.063 196.457 148.773 196.903C148.482 197.338 148.078 197.675 147.559 197.914C147.041 198.153 146.45 198.272 145.786 198.272ZM145.786 193.885C145.247 193.885 144.806 194.025 144.464 194.305C144.132 194.575 143.966 194.933 143.966 195.378C143.966 195.814 144.132 196.167 144.464 196.436C144.806 196.706 145.247 196.841 145.786 196.841C146.325 196.841 146.761 196.706 147.093 196.436C147.424 196.167 147.59 195.814 147.59 195.378C147.59 194.933 147.424 194.575 147.093 194.305C146.761 194.025 146.325 193.885 145.786 193.885ZM150.126 200.17C149.41 200.47 148.264 200.621 146.688 200.621H146.455V204.23H144.775V200.621H141.788V199.065H146.704C148.301 199.065 149.441 198.915 150.126 198.614V200.17ZM154.807 198.614V196.965H163.067V194.305H154.807V192.656H164.762V201.087H163.067V198.614H154.807ZM165.509 203.716H154.107V202.067H165.509V203.716Z" fill="white"/>
</svg>
