<svg width="616" height="582" viewBox="0 0 616 582" fill="none" xmlns="http://www.w3.org/2000/svg">
<g clip-path="url(#clip0_102_139)">
<rect x="144.5" y="0.5" width="331" height="331" rx="165.5" stroke="#BAFF00"/>
<path d="M310.5 57C291.177 57 275.5 72.6767 275.5 92C275.5 111.323 291.177 127 310.5 127H345.5V109.687H310.5C300.719 109.687 292.813 101.781 292.813 92C292.813 82.2191 300.719 74.3126 310.5 74.3126H345.5V57H310.5Z" fill="#BAFF00"/>
<path d="M202.489 166.267C200.978 166.267 199.615 165.926 198.4 165.244C197.185 164.548 196.23 163.593 195.533 162.378C194.837 161.148 194.489 159.763 194.489 158.222C194.489 156.681 194.837 155.304 195.533 154.089C196.23 152.859 197.185 151.904 198.4 151.222C199.63 150.526 201 150.178 202.511 150.178C203.785 150.178 204.941 150.415 205.978 150.889C207.03 151.363 207.904 152.044 208.6 152.933L206.4 155.067C205.393 153.852 204.156 153.244 202.689 153.244C201.77 153.244 200.948 153.459 200.222 153.889C199.511 154.304 198.956 154.889 198.556 155.644C198.156 156.4 197.956 157.259 197.956 158.222C197.956 159.185 198.156 160.044 198.556 160.8C198.956 161.556 199.511 162.148 200.222 162.578C200.948 162.993 201.77 163.2 202.689 163.2C204.156 163.2 205.393 162.585 206.4 161.356L208.6 163.489C207.904 164.393 207.03 165.081 205.978 165.556C204.941 166.03 203.778 166.267 202.489 166.267ZM215.067 166.178C213.867 166.178 212.793 165.919 211.844 165.4C210.896 164.867 210.148 164.133 209.6 163.2C209.067 162.267 208.8 161.207 208.8 160.022C208.8 158.837 209.067 157.778 209.6 156.844C210.148 155.911 210.896 155.185 211.844 154.667C212.793 154.133 213.867 153.867 215.067 153.867C216.252 153.867 217.318 154.133 218.267 154.667C219.215 155.185 219.955 155.911 220.489 156.844C221.022 157.778 221.289 158.837 221.289 160.022C221.289 161.207 221.022 162.267 220.489 163.2C219.955 164.133 219.215 164.867 218.267 165.4C217.318 165.919 216.252 166.178 215.067 166.178ZM215.067 163.333C215.911 163.333 216.6 163.037 217.133 162.444C217.681 161.837 217.955 161.03 217.955 160.022C217.955 159.015 217.681 158.215 217.133 157.622C216.6 157.015 215.911 156.711 215.067 156.711C214.222 156.711 213.526 157.015 212.978 157.622C212.43 158.215 212.155 159.015 212.155 160.022C212.155 161.03 212.43 161.837 212.978 162.444C213.526 163.037 214.222 163.333 215.067 163.333ZM237.579 153.867C239.001 153.867 240.127 154.311 240.957 155.2C241.801 156.074 242.223 157.393 242.223 159.156V166H238.934V159.689C238.934 158.741 238.742 158.037 238.357 157.578C237.986 157.104 237.46 156.867 236.779 156.867C236.008 156.867 235.394 157.133 234.934 157.667C234.49 158.185 234.268 158.963 234.268 160V166H230.979V159.689C230.979 158.741 230.794 158.037 230.423 157.578C230.053 157.104 229.52 156.867 228.823 156.867C228.068 156.867 227.46 157.133 227.001 157.667C226.557 158.185 226.334 158.963 226.334 160V166H223.023V154.044H226.179V155.422C226.594 154.919 227.105 154.533 227.712 154.267C228.334 154 229.016 153.867 229.757 153.867C230.557 153.867 231.275 154.037 231.912 154.378C232.564 154.704 233.09 155.185 233.49 155.822C233.949 155.2 234.534 154.719 235.245 154.378C235.957 154.037 236.734 153.867 237.579 153.867ZM259.298 153.867C260.72 153.867 261.846 154.311 262.675 155.2C263.52 156.074 263.942 157.393 263.942 159.156V166H260.653V159.689C260.653 158.741 260.461 158.037 260.075 157.578C259.705 157.104 259.179 156.867 258.498 156.867C257.727 156.867 257.112 157.133 256.653 157.667C256.209 158.185 255.986 158.963 255.986 160V166H252.698V159.689C252.698 158.741 252.512 158.037 252.142 157.578C251.772 157.104 251.238 156.867 250.542 156.867C249.786 156.867 249.179 157.133 248.72 157.667C248.275 158.185 248.053 158.963 248.053 160V166H244.742V154.044H247.898V155.422C248.312 154.919 248.823 154.533 249.431 154.267C250.053 154 250.735 153.867 251.475 153.867C252.275 153.867 252.994 154.037 253.631 154.378C254.283 154.704 254.809 155.185 255.209 155.822C255.668 155.2 256.253 154.719 256.964 154.378C257.675 154.037 258.453 153.867 259.298 153.867ZM277.594 160.067C277.594 160.111 277.572 160.422 277.527 161H268.95C269.113 161.741 269.476 162.326 270.039 162.756C270.616 163.185 271.335 163.4 272.194 163.4C272.787 163.4 273.305 163.311 273.75 163.133C274.209 162.941 274.639 162.644 275.039 162.244L276.794 164.244C275.713 165.533 274.15 166.178 272.105 166.178C270.816 166.178 269.676 165.919 268.683 165.4C267.705 164.867 266.95 164.133 266.416 163.2C265.883 162.267 265.616 161.207 265.616 160.022C265.616 158.852 265.876 157.8 266.394 156.867C266.927 155.919 267.653 155.185 268.572 154.667C269.505 154.133 270.542 153.867 271.683 153.867C272.794 153.867 273.794 154.119 274.683 154.622C275.587 155.126 276.298 155.852 276.816 156.8C277.335 157.733 277.594 158.822 277.594 160.067ZM271.705 156.489C270.964 156.489 270.335 156.711 269.816 157.156C269.313 157.6 269.009 158.207 268.905 158.978H274.483C274.364 158.222 274.053 157.622 273.55 157.178C273.061 156.719 272.446 156.489 271.705 156.489ZM282.487 155.622C282.887 155.044 283.421 154.607 284.087 154.311C284.754 154.015 285.524 153.867 286.399 153.867V157.067C286.013 157.037 285.761 157.022 285.643 157.022C284.71 157.022 283.976 157.304 283.443 157.867C282.91 158.415 282.643 159.244 282.643 160.356V166H279.332V154.044H282.487V155.622ZM293.473 166.178C292.258 166.178 291.169 165.919 290.206 165.4C289.243 164.867 288.488 164.133 287.94 163.2C287.406 162.267 287.14 161.207 287.14 160.022C287.14 158.837 287.406 157.778 287.94 156.844C288.488 155.911 289.243 155.185 290.206 154.667C291.169 154.133 292.258 153.867 293.473 153.867C294.673 153.867 295.718 154.133 296.606 154.667C297.495 155.185 298.147 155.933 298.562 156.911L296.006 158.356C295.429 157.259 294.577 156.711 293.451 156.711C292.592 156.711 291.88 157.007 291.318 157.6C290.769 158.193 290.495 159 290.495 160.022C290.495 161.044 290.769 161.852 291.318 162.444C291.88 163.037 292.592 163.333 293.451 163.333C294.592 163.333 295.443 162.785 296.006 161.689L298.562 163.156C298.147 164.119 297.495 164.867 296.606 165.4C295.718 165.919 294.673 166.178 293.473 166.178ZM311.149 160.067C311.149 160.111 311.127 160.422 311.082 161H302.504C302.667 161.741 303.03 162.326 303.593 162.756C304.171 163.185 304.89 163.4 305.749 163.4C306.341 163.4 306.86 163.311 307.304 163.133C307.764 162.941 308.193 162.644 308.593 162.244L310.349 164.244C309.267 165.533 307.704 166.178 305.66 166.178C304.371 166.178 303.23 165.919 302.238 165.4C301.26 164.867 300.504 164.133 299.971 163.2C299.438 162.267 299.171 161.207 299.171 160.022C299.171 158.852 299.43 157.8 299.949 156.867C300.482 155.919 301.208 155.185 302.127 154.667C303.06 154.133 304.097 153.867 305.238 153.867C306.349 153.867 307.349 154.119 308.238 154.622C309.141 155.126 309.852 155.852 310.371 156.8C310.89 157.733 311.149 158.822 311.149 160.067ZM305.26 156.489C304.519 156.489 303.89 156.711 303.371 157.156C302.867 157.6 302.564 158.207 302.46 158.978H308.038C307.919 158.222 307.608 157.622 307.104 157.178C306.615 156.719 306.001 156.489 305.26 156.489ZM327.926 164.533C326.444 165.689 324.711 166.267 322.726 166.267C321.6 166.267 320.585 166.089 319.681 165.733C318.777 165.363 318.066 164.852 317.548 164.2C317.044 163.548 316.792 162.815 316.792 162C316.792 161.037 317.059 160.193 317.592 159.467C318.14 158.726 319.014 158.022 320.214 157.356C319.651 156.778 319.244 156.23 318.992 155.711C318.74 155.178 318.614 154.63 318.614 154.067C318.614 153.311 318.814 152.644 319.214 152.067C319.614 151.489 320.177 151.044 320.903 150.733C321.644 150.407 322.496 150.244 323.459 150.244C324.807 150.244 325.888 150.57 326.703 151.222C327.518 151.859 327.926 152.726 327.926 153.822C327.926 154.622 327.681 155.333 327.192 155.956C326.718 156.578 325.948 157.178 324.881 157.756L327.726 160.4C328.066 159.689 328.326 158.881 328.503 157.978L331.281 158.844C330.985 160.222 330.511 161.4 329.859 162.378L331.681 164.067L329.792 166.267L327.926 164.533ZM323.459 152.6C322.94 152.6 322.526 152.733 322.214 153C321.918 153.267 321.77 153.607 321.77 154.022C321.77 154.333 321.851 154.63 322.014 154.911C322.177 155.178 322.496 155.541 322.97 156C323.726 155.6 324.251 155.244 324.548 154.933C324.844 154.607 324.992 154.259 324.992 153.889C324.992 153.504 324.859 153.193 324.592 152.956C324.326 152.719 323.948 152.6 323.459 152.6ZM322.97 163.556C324.051 163.556 325.022 163.252 325.881 162.644L322.126 159.133C321.429 159.533 320.933 159.926 320.637 160.311C320.34 160.696 320.192 161.133 320.192 161.622C320.192 162.2 320.444 162.667 320.948 163.022C321.451 163.378 322.126 163.556 322.97 163.556ZM345.047 166.267C343.536 166.267 342.173 165.926 340.959 165.244C339.744 164.548 338.788 163.593 338.092 162.378C337.396 161.148 337.047 159.763 337.047 158.222C337.047 156.681 337.396 155.304 338.092 154.089C338.788 152.859 339.744 151.904 340.959 151.222C342.188 150.526 343.559 150.178 345.07 150.178C346.344 150.178 347.499 150.415 348.536 150.889C349.588 151.363 350.462 152.044 351.159 152.933L348.959 155.067C347.951 153.852 346.714 153.244 345.247 153.244C344.329 153.244 343.507 153.459 342.781 153.889C342.07 154.304 341.514 154.889 341.114 155.644C340.714 156.4 340.514 157.259 340.514 158.222C340.514 159.185 340.714 160.044 341.114 160.8C341.514 161.556 342.07 162.148 342.781 162.578C343.507 162.993 344.329 163.2 345.247 163.2C346.714 163.2 347.951 162.585 348.959 161.356L351.159 163.489C350.462 164.393 349.588 165.081 348.536 165.556C347.499 166.03 346.336 166.267 345.047 166.267ZM357.625 166.178C356.425 166.178 355.351 165.919 354.403 165.4C353.455 164.867 352.707 164.133 352.159 163.2C351.625 162.267 351.359 161.207 351.359 160.022C351.359 158.837 351.625 157.778 352.159 156.844C352.707 155.911 353.455 155.185 354.403 154.667C355.351 154.133 356.425 153.867 357.625 153.867C358.81 153.867 359.877 154.133 360.825 154.667C361.773 155.185 362.514 155.911 363.047 156.844C363.581 157.778 363.847 158.837 363.847 160.022C363.847 161.207 363.581 162.267 363.047 163.2C362.514 164.133 361.773 164.867 360.825 165.4C359.877 165.919 358.81 166.178 357.625 166.178ZM357.625 163.333C358.47 163.333 359.159 163.037 359.692 162.444C360.24 161.837 360.514 161.03 360.514 160.022C360.514 159.015 360.24 158.215 359.692 157.622C359.159 157.015 358.47 156.711 357.625 156.711C356.781 156.711 356.084 157.015 355.536 157.622C354.988 158.215 354.714 159.015 354.714 160.022C354.714 161.03 354.988 161.837 355.536 162.444C356.084 163.037 356.781 163.333 357.625 163.333ZM372.493 153.867C373.915 153.867 375.056 154.311 375.915 155.2C376.774 156.089 377.204 157.407 377.204 159.156V166H373.915V159.689C373.915 158.741 373.715 158.037 373.315 157.578C372.915 157.104 372.345 156.867 371.604 156.867C370.774 156.867 370.115 157.141 369.626 157.689C369.137 158.222 368.893 159.022 368.893 160.089V166H365.582V154.044H368.737V155.444C369.182 154.941 369.723 154.556 370.36 154.289C371.011 154.007 371.723 153.867 372.493 153.867ZM386.634 153.867C388.056 153.867 389.197 154.311 390.056 155.2C390.915 156.089 391.345 157.407 391.345 159.156V166H388.056V159.689C388.056 158.741 387.856 158.037 387.456 157.578C387.056 157.104 386.485 156.867 385.745 156.867C384.915 156.867 384.256 157.141 383.767 157.689C383.278 158.222 383.034 159.022 383.034 160.089V166H379.722V154.044H382.878V155.444C383.322 154.941 383.863 154.556 384.5 154.289C385.152 154.007 385.863 153.867 386.634 153.867ZM404.996 160.067C404.996 160.111 404.974 160.422 404.93 161H396.352C396.515 161.741 396.878 162.326 397.441 162.756C398.019 163.185 398.737 163.4 399.596 163.4C400.189 163.4 400.708 163.311 401.152 163.133C401.611 162.941 402.041 162.644 402.441 162.244L404.196 164.244C403.115 165.533 401.552 166.178 399.508 166.178C398.219 166.178 397.078 165.919 396.085 165.4C395.108 164.867 394.352 164.133 393.819 163.2C393.285 162.267 393.019 161.207 393.019 160.022C393.019 158.852 393.278 157.8 393.796 156.867C394.33 155.919 395.056 155.185 395.974 154.667C396.908 154.133 397.945 153.867 399.085 153.867C400.196 153.867 401.196 154.119 402.085 154.622C402.989 155.126 403.7 155.852 404.219 156.8C404.737 157.733 404.996 158.822 404.996 160.067ZM399.108 156.489C398.367 156.489 397.737 156.711 397.219 157.156C396.715 157.6 396.411 158.207 396.308 158.978H401.885C401.767 158.222 401.456 157.622 400.952 157.178C400.463 156.719 399.848 156.489 399.108 156.489ZM412.223 166.178C411.008 166.178 409.919 165.919 408.956 165.4C407.993 164.867 407.238 164.133 406.69 163.2C406.156 162.267 405.89 161.207 405.89 160.022C405.89 158.837 406.156 157.778 406.69 156.844C407.238 155.911 407.993 155.185 408.956 154.667C409.919 154.133 411.008 153.867 412.223 153.867C413.423 153.867 414.468 154.133 415.356 154.667C416.245 155.185 416.897 155.933 417.312 156.911L414.756 158.356C414.179 157.259 413.327 156.711 412.201 156.711C411.342 156.711 410.63 157.007 410.068 157.6C409.519 158.193 409.245 159 409.245 160.022C409.245 161.044 409.519 161.852 410.068 162.444C410.63 163.037 411.342 163.333 412.201 163.333C413.342 163.333 414.193 162.785 414.756 161.689L417.312 163.156C416.897 164.119 416.245 164.867 415.356 165.4C414.468 165.919 413.423 166.178 412.223 166.178ZM426.548 165.422C426.222 165.674 425.822 165.867 425.348 166C424.889 166.119 424.392 166.178 423.859 166.178C422.511 166.178 421.467 165.815 420.726 165.089C419.985 164.363 419.615 163.296 419.615 161.889V156.978H417.881V154.311H419.615V151.4H422.926V154.311H425.748V156.978H422.926V161.844C422.926 162.348 423.044 162.741 423.281 163.022C423.533 163.289 423.881 163.422 424.326 163.422C424.844 163.422 425.289 163.274 425.659 162.978L426.548 165.422Z" fill="#BAFF00"/>
<path d="M266.97 195.724V194.107H270.383V192.702H272.357V194.107H275.806V195.724H266.97ZM280.659 198.427H278.952V203.173H277.032V192.951H278.952V196.453H280.659V198.427ZM271.379 201.947C270.253 201.947 269.323 201.698 268.588 201.2C267.853 200.702 267.486 200.015 267.486 199.138C267.486 198.261 267.853 197.573 268.588 197.076C269.323 196.578 270.253 196.329 271.379 196.329C272.505 196.329 273.435 196.578 274.17 197.076C274.917 197.573 275.29 198.261 275.29 199.138C275.29 200.015 274.917 200.702 274.17 201.2C273.435 201.698 272.505 201.947 271.379 201.947ZM271.379 197.84C270.751 197.84 270.247 197.964 269.868 198.213C269.5 198.45 269.317 198.759 269.317 199.138C269.317 199.517 269.5 199.831 269.868 200.08C270.247 200.317 270.751 200.436 271.379 200.436C272.007 200.436 272.505 200.317 272.872 200.08C273.252 199.831 273.441 199.517 273.441 199.138C273.441 198.759 273.252 198.45 272.872 198.213C272.505 197.964 272.007 197.84 271.379 197.84ZM279.254 204.72V206.498H267.859V202.587H269.814V204.72H279.254ZM281.955 194.782V193.058H293.244V197.662H291.288V194.782H281.955ZM288.586 202H293.297V206.676H291.341V203.724H281.866V202H286.648V200.08H281.101V198.356H294.133V200.08H288.586V202ZM299.495 201.716V193.324H301.397V195.689H309.024V193.324H310.926V201.716H299.495ZM309.024 197.467H301.397V199.902H309.024V197.467ZM311.726 206.018H298.695V204.133H311.726V206.018ZM320.116 203.173V193.022H321.911V196.436H323.618V192.951H325.431V203.404H323.618V198.249H321.911V203.173H320.116ZM319.351 201.022C318.569 201.354 317.413 201.52 315.884 201.52H313.111V196.542H316.951V194.889H313.111V193.218H318.729V198.124H314.889V199.849H316.009C317.479 199.849 318.593 199.689 319.351 199.369V201.022ZM325.698 206.498H313.858V202.462H315.813V204.684H325.698V206.498ZM329.625 195.262V199.724H339.243V201.591H327.651V193.378H339.1V195.262H329.625ZM326.851 206.018V204.133H339.883V206.018H326.851ZM352.894 200.098V206.604H350.974V192.951H352.894V198.142H354.565V200.098H352.894ZM346.174 203.973C347.916 203.973 349.202 203.784 350.032 203.404V205.307C349.593 205.484 349.03 205.621 348.343 205.716C347.667 205.81 346.921 205.858 346.103 205.858H340.93V203.973H344.236V201.556C343.336 201.354 342.607 200.88 342.05 200.133C341.504 199.387 341.232 198.48 341.232 197.413C341.232 196.584 341.398 195.849 341.73 195.209C342.073 194.557 342.547 194.053 343.152 193.698C343.756 193.342 344.444 193.164 345.214 193.164C345.973 193.164 346.654 193.342 347.259 193.698C347.875 194.053 348.355 194.557 348.699 195.209C349.042 195.849 349.214 196.584 349.214 197.413C349.214 198.48 348.936 199.387 348.379 200.133C347.821 200.88 347.087 201.354 346.174 201.556V203.973ZM345.214 194.978C344.562 194.978 344.041 195.209 343.65 195.671C343.27 196.121 343.081 196.702 343.081 197.413C343.081 198.124 343.27 198.711 343.65 199.173C344.041 199.624 344.562 199.849 345.214 199.849C345.854 199.849 346.37 199.618 346.761 199.156C347.164 198.693 347.365 198.113 347.365 197.413C347.365 196.714 347.164 196.133 346.761 195.671C346.37 195.209 345.854 194.978 345.214 194.978ZM257.392 218.631C256.74 219.117 255.922 219.496 254.939 219.769C253.967 220.03 252.936 220.172 251.845 220.196V218.596C252.936 218.572 253.955 218.388 254.903 218.044C255.863 217.689 256.485 217.221 256.77 216.64H252.023V215.058H263.401V216.64H258.885C258.873 216.877 258.796 217.114 258.654 217.351L263.739 218.702L263.276 220.249L257.392 218.631ZM258.672 223.609C260.153 223.68 261.327 223.917 262.192 224.32C263.069 224.711 263.507 225.316 263.507 226.133C263.507 227.034 262.98 227.686 261.925 228.089C260.882 228.492 259.478 228.693 257.712 228.693C255.946 228.693 254.536 228.492 253.481 228.089C252.438 227.686 251.916 227.034 251.916 226.133C251.916 225.316 252.349 224.711 253.214 224.32C254.091 223.917 255.27 223.68 256.752 223.609V222.578H251.187V220.978H264.219V222.578H258.672V223.609ZM261.445 226.133C261.445 225.778 261.102 225.523 260.414 225.369C259.739 225.215 258.838 225.138 257.712 225.138C255.211 225.138 253.961 225.47 253.961 226.133C253.961 226.489 254.304 226.75 254.992 226.916C255.679 227.07 256.586 227.147 257.712 227.147C258.826 227.147 259.727 227.07 260.414 226.916C261.102 226.75 261.445 226.489 261.445 226.133ZM266.119 216.782V215.058H277.408V219.662H275.452V216.782H266.119ZM272.75 224H277.461V228.676H275.506V225.724H266.03V224H270.812V222.08H265.266V220.356H278.297V222.08H272.75V224ZM289.242 219.662C288.495 220.812 287.582 221.719 286.504 222.382C285.437 223.046 284.311 223.378 283.126 223.378V221.458C284.027 221.458 284.886 221.179 285.704 220.622C286.522 220.053 287.221 219.277 287.802 218.293C288.382 217.298 288.767 216.19 288.957 214.969L290.93 215.307C290.741 216.361 290.474 217.28 290.13 218.062L295.713 221.778L294.699 223.413L289.242 219.662ZM295.89 226.133V228.018H282.859V226.133H288.406V222.613H290.344V226.133H295.89ZM309.24 228.604H307.32V214.951H309.24V228.604ZM305.115 215.324V227.858H297.631V215.324H299.533V219.751H303.213V215.324H305.115ZM303.213 221.6H299.533V226.009H303.213V221.6ZM322.944 222.222V228.604H321.024V214.951H322.944V220.267H324.651V222.222H322.944ZM316.598 217.227C316.562 218.696 316.438 220.03 316.224 221.227L320.224 226.578L318.696 227.769L315.584 223.502C315.11 224.83 314.494 225.867 313.736 226.613C312.977 227.36 312.118 227.775 311.158 227.858V225.831C311.857 225.713 312.467 225.28 312.989 224.533C313.51 223.775 313.913 222.767 314.198 221.511C314.482 220.255 314.63 218.827 314.642 217.227H311.478V215.378H319.638V217.227H316.598ZM327.867 218.24V219.076H337.414V220.302H326V217.12H335.405V216.284H325.983V215.058H337.271V218.24H327.867ZM325.094 222.489V221.102H338.125V222.489H325.094ZM327.814 226.436V227.271H337.485V228.498H325.947V225.333H335.44V224.533H325.911V223.289H337.307V226.436H327.814ZM353.07 224.284V214.951H354.99V224.284H353.07ZM346.919 222.738C346.101 222.738 345.378 222.572 344.75 222.24C344.122 221.908 343.636 221.452 343.292 220.871C342.948 220.29 342.776 219.627 342.776 218.88C342.776 218.145 342.948 217.487 343.292 216.907C343.636 216.326 344.122 215.87 344.75 215.538C345.378 215.206 346.101 215.04 346.919 215.04C347.736 215.04 348.459 215.206 349.087 215.538C349.716 215.87 350.202 216.326 350.545 216.907C350.889 217.487 351.061 218.145 351.061 218.88C351.061 219.627 350.889 220.29 350.545 220.871C350.202 221.452 349.716 221.908 349.087 222.24C348.459 222.572 347.736 222.738 346.919 222.738ZM346.919 216.729C346.267 216.729 345.733 216.924 345.319 217.316C344.904 217.707 344.696 218.228 344.696 218.88C344.696 219.544 344.904 220.071 345.319 220.462C345.733 220.853 346.267 221.049 346.919 221.049C347.582 221.049 348.122 220.853 348.536 220.462C348.951 220.071 349.159 219.544 349.159 218.88C349.159 218.228 348.951 217.707 348.536 217.316C348.122 216.924 347.582 216.729 346.919 216.729ZM349.319 226.222C348.643 226.945 347.813 227.508 346.83 227.911C345.846 228.302 344.821 228.498 343.754 228.498V226.596C344.572 226.584 345.342 226.441 346.065 226.169C346.788 225.884 347.404 225.481 347.914 224.96C348.424 224.427 348.762 223.804 348.927 223.093L350.847 223.449C350.729 223.947 350.581 224.385 350.403 224.764L355.576 226.898L354.865 228.676L349.319 226.222ZM369.05 218.596V220.302H357.654V214.916H359.592V218.596H369.05ZM356.766 223.342V221.618H369.797V223.342H356.766ZM369.157 226.791V228.498H357.619V224.373H359.574V226.791H369.157ZM286.454 250.604H284.534V244.187H281.547C281.262 245.372 280.777 246.391 280.089 247.244C279.414 248.086 278.602 248.726 277.654 249.164C276.705 249.603 275.68 249.828 274.578 249.84V247.938C275.834 247.938 276.901 247.606 277.778 246.942C278.655 246.279 279.271 245.319 279.627 244.062H274.578V242.213H279.929C279.941 242.047 279.947 241.787 279.947 241.431V239.227H274.578V237.378H281.867V241.307C281.867 241.544 281.855 241.876 281.831 242.302H284.534V236.951H286.454V250.604ZM300.532 250.604H298.612V244.187H296.087V249.858H288.763V237.378H296.087V242.302H298.612V236.951H300.532V250.604ZM290.701 239.262V247.973H294.167V239.262H290.701ZM308.601 241.751C307.842 242.936 306.924 243.873 305.845 244.56C304.779 245.236 303.659 245.579 302.485 245.591V243.671C303.374 243.671 304.228 243.375 305.045 242.782C305.875 242.19 306.58 241.384 307.161 240.364C307.742 239.345 308.127 238.213 308.316 236.969L310.29 237.307C310.1 238.385 309.822 239.333 309.454 240.151L315.09 244.027L314.059 245.644L308.601 241.751ZM315.25 248.133V250.018H302.219V248.133H315.25ZM320.186 240.738V238.871H323.421V236.898H325.377V238.871H328.595V240.738H320.186ZM332.204 250.604H330.266V244.418H328.346V242.498H330.266V236.951H332.204V250.604ZM324.381 241.609C325.104 241.609 325.744 241.793 326.301 242.16C326.858 242.516 327.291 243.013 327.599 243.653C327.907 244.293 328.061 245.016 328.061 245.822C328.061 246.628 327.907 247.351 327.599 247.991C327.291 248.631 326.858 249.129 326.301 249.484C325.744 249.84 325.104 250.018 324.381 250.018C323.658 250.018 323.018 249.84 322.461 249.484C321.916 249.129 321.489 248.631 321.181 247.991C320.873 247.351 320.719 246.628 320.719 245.822C320.719 245.016 320.873 244.293 321.181 243.653C321.489 243.013 321.916 242.516 322.461 242.16C323.018 241.793 323.658 241.609 324.381 241.609ZM324.381 248.276C324.915 248.276 325.353 248.05 325.697 247.6C326.041 247.15 326.212 246.557 326.212 245.822C326.212 245.076 326.041 244.483 325.697 244.044C325.365 243.594 324.927 243.369 324.381 243.369C323.848 243.369 323.409 243.594 323.066 244.044C322.734 244.483 322.568 245.076 322.568 245.822C322.568 246.557 322.734 247.15 323.066 247.6C323.409 248.05 323.848 248.276 324.381 248.276ZM334.691 245.716V237.324H336.593V239.689H344.219V237.324H346.122V245.716H334.691ZM344.219 241.467H336.593V243.902H344.219V241.467ZM346.922 250.018H333.891V248.133H346.922V250.018Z" fill="#BAFF00"/>
<rect x="0.5" y="250.5" width="331" height="331" rx="165.5" stroke="white"/>
<path d="M166.5 327H131V398H148.56V344.56H166.431H166.569C172.342 344.56 177.458 347.325 180.741 351.577C183.057 354.584 184.44 358.387 184.44 362.5V398H202V362.5C202 342.901 186.099 327 166.5 327Z" fill="white"/>
<path d="M135.042 437H132.22L124.864 427.556V437H121.487V421.444H124.309L131.664 430.889V421.444H135.042V437ZM148.444 431.067C148.444 431.111 148.421 431.422 148.377 432H139.799C139.962 432.741 140.325 433.326 140.888 433.756C141.466 434.185 142.184 434.4 143.044 434.4C143.636 434.4 144.155 434.311 144.599 434.133C145.059 433.941 145.488 433.644 145.888 433.244L147.644 435.244C146.562 436.533 144.999 437.178 142.955 437.178C141.666 437.178 140.525 436.919 139.533 436.4C138.555 435.867 137.799 435.133 137.266 434.2C136.733 433.267 136.466 432.207 136.466 431.022C136.466 429.852 136.725 428.8 137.244 427.867C137.777 426.919 138.503 426.185 139.421 425.667C140.355 425.133 141.392 424.867 142.533 424.867C143.644 424.867 144.644 425.119 145.533 425.622C146.436 426.126 147.147 426.852 147.666 427.8C148.184 428.733 148.444 429.822 148.444 431.067ZM142.555 427.489C141.814 427.489 141.184 427.711 140.666 428.156C140.162 428.6 139.859 429.207 139.755 429.978H145.333C145.214 429.222 144.903 428.622 144.399 428.178C143.91 427.719 143.296 427.489 142.555 427.489ZM157.515 436.422C157.189 436.674 156.789 436.867 156.315 437C155.856 437.119 155.359 437.178 154.826 437.178C153.478 437.178 152.433 436.815 151.693 436.089C150.952 435.363 150.581 434.296 150.581 432.889V427.978H148.848V425.311H150.581V422.4H153.893V425.311H156.715V427.978H153.893V432.844C153.893 433.348 154.011 433.741 154.248 434.022C154.5 434.289 154.848 434.422 155.293 434.422C155.811 434.422 156.256 434.274 156.626 433.978L157.515 436.422ZM173.494 437H170.317L167.783 429.578L165.139 437H161.961L157.872 425.044H160.983L163.65 433.133L166.45 425.044H169.228L171.939 433.133L174.694 425.044H177.606L173.494 437ZM184.119 437.178C182.919 437.178 181.845 436.919 180.897 436.4C179.949 435.867 179.201 435.133 178.653 434.2C178.119 433.267 177.853 432.207 177.853 431.022C177.853 429.837 178.119 428.778 178.653 427.844C179.201 426.911 179.949 426.185 180.897 425.667C181.845 425.133 182.919 424.867 184.119 424.867C185.304 424.867 186.371 425.133 187.319 425.667C188.267 426.185 189.008 426.911 189.542 427.844C190.075 428.778 190.342 429.837 190.342 431.022C190.342 432.207 190.075 433.267 189.542 434.2C189.008 435.133 188.267 435.867 187.319 436.4C186.371 436.919 185.304 437.178 184.119 437.178ZM184.119 434.333C184.964 434.333 185.653 434.037 186.186 433.444C186.734 432.837 187.008 432.03 187.008 431.022C187.008 430.015 186.734 429.215 186.186 428.622C185.653 428.015 184.964 427.711 184.119 427.711C183.275 427.711 182.579 428.015 182.03 428.622C181.482 429.215 181.208 430.015 181.208 431.022C181.208 432.03 181.482 432.837 182.03 433.444C182.579 434.037 183.275 434.333 184.119 434.333ZM195.232 426.622C195.632 426.044 196.165 425.607 196.832 425.311C197.498 425.015 198.269 424.867 199.143 424.867V428.067C198.757 428.037 198.506 428.022 198.387 428.022C197.454 428.022 196.72 428.304 196.187 428.867C195.654 429.415 195.387 430.244 195.387 431.356V437H192.076V425.044H195.232V426.622ZM204.039 433.956V437H200.728V420.511H204.039V429.844L208.839 425.044H212.773L208.039 430.111L213.195 437H209.195L205.617 432.311L204.039 433.956Z" fill="white"/>
<path d="M85.8749 466.707V465.124H89.2705V463.702H91.2438V465.124H94.2838V466.707H85.8749ZM94.6749 471.773V470.067H96.3638V468.484H94.6749V466.778H96.3638V463.951H98.266V474.156H96.3638V471.773H94.6749ZM90.266 472.947C89.1638 472.947 88.2512 472.698 87.5283 472.2C86.8053 471.702 86.4438 471.015 86.4438 470.138C86.4438 469.249 86.7994 468.561 87.5105 468.076C88.2334 467.578 89.152 467.329 90.266 467.329C91.3801 467.329 92.2927 467.578 93.0038 468.076C93.7268 468.561 94.0883 469.249 94.0883 470.138C94.0883 471.015 93.7268 471.702 93.0038 472.2C92.2809 472.698 91.3683 472.947 90.266 472.947ZM90.266 468.822C89.6497 468.822 89.1638 468.947 88.8083 469.196C88.4527 469.444 88.2749 469.759 88.2749 470.138C88.2749 470.517 88.4527 470.831 88.8083 471.08C89.1638 471.317 89.6497 471.436 90.266 471.436C90.8705 471.436 91.3505 471.317 91.706 471.08C92.0616 470.831 92.2394 470.517 92.2394 470.138C92.2394 469.759 92.0616 469.444 91.706 469.196C91.3505 468.947 90.8705 468.822 90.266 468.822ZM98.5149 477.498H86.9949V473.498H88.9327V475.72H98.5149V477.498ZM112.255 477.604H110.335V463.951H112.255V477.604ZM105.731 466.227C105.695 467.791 105.571 469.119 105.358 470.209L109.411 475.578L107.9 476.769L104.735 472.467C104.249 473.806 103.621 474.855 102.851 475.613C102.08 476.36 101.209 476.775 100.238 476.858V474.831C100.937 474.713 101.547 474.28 102.069 473.533C102.602 472.775 103.017 471.767 103.313 470.511C103.609 469.255 103.769 467.827 103.793 466.227H100.558V464.378H108.86V466.227H105.731ZM128.391 470.902V463.951H130.205V470.902H128.391ZM123.129 467.311V465.533H125.138V464.022H126.916V470.76H125.138V467.311H123.129ZM120.96 468.538C120.166 469.841 119.022 470.6 117.529 470.813V469.036C119.295 468.55 120.178 466.896 120.178 464.076L122.009 464.147C122.009 465.261 121.896 466.185 121.671 466.92L124.676 469.302L123.573 470.707L120.96 468.538ZM130.453 477.498H118.631V473.907H128.32V473.018H118.596V471.542H130.205V475.116H120.516V476.022H130.453V477.498ZM144.016 471.56H142.096V468.076H140.087V466.227H142.096V463.951H144.016V471.56ZM137.438 465.764H132.069V464.218H139.34V468.52H134.007V469.836H137.065C137.835 469.836 138.54 469.788 139.18 469.693C139.82 469.599 140.336 469.468 140.727 469.302V470.813C140.36 470.991 139.844 471.133 139.18 471.24C138.517 471.335 137.776 471.382 136.958 471.382H132.105V467.062H137.438V465.764ZM143.98 472.111V477.498H132.745V472.111H134.647V473.231H142.078V472.111H143.98ZM142.078 474.76H134.647V475.916H142.078V474.76ZM147.321 474.404C147.712 474.404 148.032 474.535 148.281 474.796C148.53 475.044 148.654 475.364 148.654 475.756C148.654 475.957 148.63 476.153 148.583 476.342C148.536 476.532 148.441 476.804 148.299 477.16L147.41 479.667H146.059L146.77 476.964C146.521 476.87 146.319 476.716 146.165 476.502C146.023 476.289 145.952 476.04 145.952 475.756C145.952 475.364 146.082 475.044 146.343 474.796C146.604 474.535 146.93 474.404 147.321 474.404ZM154.182 468.84V467.382H156.351V465.498H154.324V464.058H165.631V465.498H163.586V467.382H165.755V468.84H154.182ZM161.684 467.382V465.498H158.271V467.382H161.684ZM166.484 471.24H153.453V469.747H166.484V471.24ZM165.844 476.2V477.498H154.306V474.244H163.764V473.427H154.271V472.129H165.666V475.382H156.191V476.2H165.844ZM174.873 472.324V464.022H176.669V467.044H178.376V463.951H180.189V473.587H178.376V468.911H176.669V472.324H174.873ZM174.109 471.613C173.327 471.945 172.171 472.111 170.642 472.111H167.869V467.382H171.709V465.836H167.869V464.218H173.487V468.911H169.647V470.476H170.767C172.236 470.476 173.35 470.316 174.109 469.996V471.613ZM174.269 475.524C173.57 476.164 172.71 476.65 171.691 476.982C170.672 477.314 169.599 477.486 168.473 477.498V475.667C169.327 475.655 170.139 475.53 170.909 475.293C171.691 475.044 172.355 474.695 172.9 474.244C173.445 473.782 173.795 473.237 173.949 472.609L175.833 473.036C175.774 473.332 175.65 473.681 175.46 474.084L180.793 475.916L180.136 477.676L174.269 475.524ZM194.64 471.987H181.609V470.422H187.174V469.302H182.338V467.738H184.507V465.604H182.48V464.058H193.787V465.604H191.743V467.738H193.912V469.302H189.094V470.422H194.64V471.987ZM189.84 467.738V465.604H186.427V467.738H189.84ZM193.805 473V477.498H182.463V473H193.805ZM191.885 475.969V474.529H184.365V475.969H191.885ZM197.305 474.404C197.696 474.404 198.016 474.535 198.265 474.796C198.514 475.044 198.639 475.364 198.639 475.756C198.639 475.957 198.615 476.153 198.567 476.342C198.52 476.532 198.425 476.804 198.283 477.16L197.394 479.667H196.043L196.754 476.964C196.505 476.87 196.304 476.716 196.15 476.502C196.007 476.289 195.936 476.04 195.936 475.756C195.936 475.364 196.067 475.044 196.327 474.796C196.588 474.535 196.914 474.404 197.305 474.404ZM215.206 468.324L211.171 475.542H210.246L206.211 468.431V477H204.309V464.556H205.98L210.744 473L215.455 464.556H217.126L217.144 477H215.224L215.206 468.324ZM225.307 477.16C224.122 477.16 223.049 476.887 222.089 476.342C221.129 475.785 220.37 475.021 219.813 474.049C219.268 473.077 218.996 471.987 218.996 470.778C218.996 469.569 219.268 468.479 219.813 467.507C220.37 466.535 221.129 465.776 222.089 465.231C223.049 464.674 224.127 464.396 225.325 464.396C226.285 464.396 227.156 464.567 227.938 464.911C228.732 465.255 229.402 465.759 229.947 466.422L228.649 467.702C227.772 466.719 226.693 466.227 225.413 466.227C224.584 466.227 223.837 466.422 223.173 466.813C222.51 467.204 221.988 467.75 221.609 468.449C221.242 469.136 221.058 469.913 221.058 470.778C221.058 471.643 221.242 472.425 221.609 473.124C221.988 473.812 222.51 474.351 223.173 474.742C223.837 475.133 224.584 475.329 225.413 475.329C226.693 475.329 227.772 474.831 228.649 473.836L229.947 475.116C229.402 475.791 228.732 476.301 227.938 476.644C227.144 476.988 226.267 477.16 225.307 477.16ZM242.019 477H240.348L233.646 468.218V477H231.637V464.556H233.308L240.01 473.338V464.556H242.019V477ZM245.54 474.404C245.931 474.404 246.251 474.535 246.5 474.796C246.748 475.044 246.873 475.364 246.873 475.756C246.873 475.957 246.849 476.153 246.802 476.342C246.754 476.532 246.66 476.804 246.517 477.16L245.628 479.667H244.277L244.988 476.964C244.74 476.87 244.538 476.716 244.384 476.502C244.242 476.289 244.171 476.04 244.171 475.756C244.171 475.364 244.301 475.044 244.562 474.796C244.823 474.535 245.148 474.404 245.54 474.404ZM96.9702 499.604H95.1569V485.951H96.9702V499.604ZM93.6458 486.022V499.373H91.8324V492.92H89.948V491.018H91.8324V486.022H93.6458ZM88.6502 488.209C88.6384 489.631 88.5672 490.911 88.4369 492.049L91.5124 497.756L89.9835 498.662L87.8858 494.716C87.2102 497.264 86.0428 498.644 84.3835 498.858V496.884C85.1539 496.695 85.7465 495.836 86.1613 494.307C86.5761 492.778 86.7954 490.745 86.8191 488.209H84.6147V486.378H90.748V488.209H88.6502ZM110.319 490.573V494.093H108.399V485.951H110.319V488.636H112.026V490.573H110.319ZM102.871 491.142C102.396 491.889 101.786 492.493 101.039 492.956C100.305 493.418 99.4809 493.69 98.5683 493.773V491.942C99.552 491.824 100.34 491.403 100.933 490.68C101.537 489.945 101.887 489.033 101.982 487.942H98.7461V486.218H107.031V487.942H103.937C103.902 488.559 103.807 489.092 103.653 489.542L107.422 492.173L106.426 493.667L102.871 491.142ZM110.319 494.733V499.676H108.364V496.476H99.1372V494.733H110.319ZM126.367 496.084V485.951H128.287V496.084H126.367ZM120.215 486.04C121.045 486.04 121.774 486.212 122.402 486.556C123.042 486.887 123.534 487.361 123.878 487.978C124.221 488.582 124.393 489.276 124.393 490.058C124.393 490.84 124.221 491.539 123.878 492.156C123.534 492.76 123.042 493.234 122.402 493.578C121.774 493.91 121.045 494.076 120.215 494.076C119.386 494.076 118.651 493.91 118.011 493.578C117.383 493.234 116.897 492.76 116.553 492.156C116.209 491.539 116.038 490.84 116.038 490.058C116.038 489.276 116.209 488.582 116.553 487.978C116.897 487.361 117.383 486.887 118.011 486.556C118.651 486.212 119.386 486.04 120.215 486.04ZM120.215 487.747C119.552 487.747 119.012 487.954 118.598 488.369C118.183 488.772 117.975 489.335 117.975 490.058C117.975 490.781 118.183 491.35 118.598 491.764C119.012 492.179 119.552 492.387 120.215 492.387C120.891 492.387 121.436 492.179 121.851 491.764C122.266 491.35 122.473 490.781 122.473 490.058C122.473 489.335 122.266 488.772 121.851 488.369C121.436 487.954 120.891 487.747 120.215 487.747ZM128.571 497.684V499.498H117.193V494.911H119.149V497.684H128.571ZM130.72 494.609V492.742H132.889V488.298H130.845V486.431H142.329V488.298H140.285V492.742H142.454V494.609H130.72ZM138.365 492.742V488.298H134.809V492.742H138.365ZM143.094 499.018H130.062V497.116H143.094V499.018ZM156.069 493.222V499.604H154.149V485.951H156.069V491.267H157.776V493.222H156.069ZM149.883 497.044C150.499 497.044 151.115 496.985 151.732 496.867C152.348 496.748 152.852 496.588 153.243 496.387V498.2C152.852 498.401 152.342 498.561 151.714 498.68C151.086 498.799 150.452 498.858 149.812 498.858H144.692V491.64H150.025V488.209H144.656V486.378H151.945V493.453H146.594V497.044H149.883ZM172.205 485.951H174.125V496.084H172.205V490.822H169.983V489.062H172.205V485.951ZM166.339 491.356C165.853 492.185 165.237 492.855 164.49 493.364C163.743 493.862 162.914 494.147 162.001 494.218V492.387C162.973 492.256 163.761 491.788 164.365 490.982C164.97 490.176 165.319 489.169 165.414 487.96H162.161V486.218H170.445V487.96H167.352C167.34 488.505 167.251 489.092 167.085 489.72L170.89 492.653L169.805 494.111L166.339 491.356ZM174.357 499.498H162.854V494.982H164.81V497.684H174.357V499.498ZM189.448 490.982H187.741V496.084H185.821V485.951H187.741V489.027H189.448V490.982ZM176.204 493.969V486.164H178.106V488.28H182.035V486.164H183.919V493.969H176.204ZM182.035 489.951H178.106V492.244H182.035V489.951ZM188.044 497.684V499.498H176.648V495H178.604V497.684H188.044ZM196.415 485.827C198.169 485.827 199.568 486.028 200.611 486.431C201.654 486.822 202.175 487.456 202.175 488.333C202.175 489.21 201.654 489.85 200.611 490.253C199.568 490.656 198.169 490.858 196.415 490.858C194.661 490.858 193.256 490.656 192.202 490.253C191.147 489.85 190.619 489.21 190.619 488.333C190.619 487.456 191.141 486.822 192.184 486.431C193.239 486.028 194.649 485.827 196.415 485.827ZM196.415 487.32C195.277 487.32 194.365 487.403 193.677 487.569C193.002 487.735 192.664 487.99 192.664 488.333C192.664 488.689 193.002 488.95 193.677 489.116C194.365 489.281 195.277 489.364 196.415 489.364C197.553 489.364 198.459 489.281 199.135 489.116C199.811 488.95 200.148 488.689 200.148 488.333C200.148 487.99 199.811 487.735 199.135 487.569C198.459 487.403 197.553 487.32 196.415 487.32ZM189.891 493.08V491.551H202.922V493.08H189.891ZM192.646 497.276V498.129H202.282V499.498H190.744V496.138H200.202V495.302H190.708V493.969H202.104V497.276H192.646ZM220.515 499.018H207.484V497.133H213.031V494.449H208.284V486.324H210.187V488.493H217.813V486.324H219.715V494.449H214.969V497.133H220.515V499.018ZM217.813 492.618V490.289H210.187V492.618H217.813ZM228.087 493.347C226.914 493.347 225.882 493.204 224.994 492.92C224.117 492.624 223.435 492.197 222.949 491.64C222.475 491.083 222.238 490.425 222.238 489.667C222.238 488.908 222.475 488.256 222.949 487.711C223.435 487.154 224.117 486.733 224.994 486.449C225.882 486.153 226.914 486.004 228.087 486.004C229.26 486.004 230.285 486.153 231.162 486.449C232.051 486.733 232.733 487.154 233.207 487.711C233.693 488.256 233.936 488.908 233.936 489.667C233.936 490.425 233.693 491.083 233.207 491.64C232.733 492.197 232.051 492.624 231.162 492.92C230.285 493.204 229.26 493.347 228.087 493.347ZM228.087 487.8C226.937 487.8 226.007 487.966 225.296 488.298C224.597 488.618 224.247 489.074 224.247 489.667C224.247 490.259 224.597 490.721 225.296 491.053C226.007 491.385 226.937 491.551 228.087 491.551C229.237 491.551 230.161 491.385 230.86 491.053C231.559 490.721 231.909 490.259 231.909 489.667C231.909 489.074 231.554 488.618 230.842 488.298C230.143 487.966 229.225 487.8 228.087 487.8ZM231.589 496.316V499.924H229.669V496.316H226.505V499.924H224.585V496.316H221.562V494.449H234.594V496.316H231.589ZM235.587 488.724V487.107H239.001V485.702H240.974V487.107H244.423V488.724H235.587ZM249.276 491.427H247.569V496.173H245.649V485.951H247.569V489.453H249.276V491.427ZM239.996 494.947C238.87 494.947 237.94 494.698 237.205 494.2C236.47 493.702 236.103 493.015 236.103 492.138C236.103 491.261 236.47 490.573 237.205 490.076C237.94 489.578 238.87 489.329 239.996 489.329C241.122 489.329 242.052 489.578 242.787 490.076C243.534 490.573 243.907 491.261 243.907 492.138C243.907 493.015 243.534 493.702 242.787 494.2C242.052 494.698 241.122 494.947 239.996 494.947ZM239.996 490.84C239.368 490.84 238.864 490.964 238.485 491.213C238.118 491.45 237.934 491.759 237.934 492.138C237.934 492.517 238.118 492.831 238.485 493.08C238.864 493.317 239.368 493.436 239.996 493.436C240.624 493.436 241.122 493.317 241.489 493.08C241.869 492.831 242.058 492.517 242.058 492.138C242.058 491.759 241.869 491.45 241.489 491.213C241.122 490.964 240.624 490.84 239.996 490.84ZM247.872 497.72V499.498H236.476V495.587H238.432V497.72H247.872ZM133.494 507.951H135.414V518.084H133.494V512.822H131.272V511.062H133.494V507.951ZM127.628 513.356C127.142 514.185 126.526 514.855 125.779 515.364C125.032 515.862 124.203 516.147 123.29 516.218V514.387C124.262 514.256 125.05 513.788 125.654 512.982C126.259 512.176 126.609 511.169 126.703 509.96H123.45V508.218H131.734V509.96H128.641C128.629 510.505 128.54 511.092 128.374 511.72L132.179 514.653L131.094 516.111L127.628 513.356ZM135.646 521.498H124.143V516.982H126.099V519.684H135.646V521.498ZM137.99 513.64V508.058H149.261V513.64H137.99ZM139.893 509.676V512.004H147.341V509.676H139.893ZM150.133 516.484H144.586V518.636H142.648V516.484H137.101V514.796H150.133V516.484ZM149.51 519.809V521.498H137.955V517.516H139.91V519.809H149.51ZM167.353 521.604H165.54V507.951H167.353V521.604ZM164.153 508.022V521.373H162.357V514.671H159.264V512.769H162.357V508.022H164.153ZM158.375 519.062C158.909 519.062 159.448 519.021 159.993 518.938C160.538 518.843 161.006 518.719 161.397 518.564V520.342C161.03 520.508 160.55 520.639 159.957 520.733C159.365 520.816 158.766 520.858 158.162 520.858H155.051V508.342H156.917V519.062H158.375ZM169.591 517.267V508.378H181.022V510.156H171.511V511.951H180.827V513.658H171.511V515.471H181.182V517.267H169.591ZM181.804 521.018H168.773V519.169H181.804V521.018ZM195.26 521.604H193.323V520.289H189.643V518.547H193.323V507.951H195.26V521.604ZM187.42 514.796C186.662 514.796 185.986 514.659 185.394 514.387C184.801 514.114 184.339 513.729 184.007 513.231C183.675 512.721 183.509 512.141 183.509 511.489C183.509 510.825 183.675 510.244 184.007 509.747C184.339 509.237 184.801 508.846 185.394 508.573C185.986 508.301 186.662 508.164 187.42 508.164C188.179 508.164 188.854 508.301 189.447 508.573C190.04 508.846 190.502 509.237 190.834 509.747C191.166 510.244 191.331 510.825 191.331 511.489C191.331 512.141 191.166 512.721 190.834 513.231C190.502 513.729 190.04 514.114 189.447 514.387C188.854 514.659 188.179 514.796 187.42 514.796ZM187.42 509.782C186.804 509.782 186.3 509.942 185.909 510.262C185.53 510.57 185.34 510.979 185.34 511.489C185.34 511.987 185.53 512.39 185.909 512.698C186.3 513.006 186.804 513.16 187.42 513.16C188.037 513.16 188.534 513.006 188.914 512.698C189.293 512.39 189.483 511.987 189.483 511.489C189.483 510.979 189.293 510.57 188.914 510.262C188.534 509.942 188.037 509.782 187.42 509.782ZM192.38 516.964C191.563 517.308 190.253 517.48 188.451 517.48H188.185V521.604H186.265V517.48H182.851V515.702H188.469C190.294 515.702 191.598 515.53 192.38 515.187V516.964ZM197.73 515.187V513.302H207.17V510.262H197.73V508.378H209.107V518.013H207.17V515.187H197.73ZM209.961 521.018H196.93V519.133H209.961V521.018Z" fill="white"/>
<rect x="284.5" y="250.5" width="331" height="331" rx="165.5" stroke="#A523D0"/>
<path d="M450.5 377.652L464.692 398H486.312L472.12 377.652C466.889 370.113 455.731 370.113 450.5 377.652Z" fill="#A523D0"/>
<path d="M486.312 326.312H464.692L461.31 331.163C454.824 340.482 454.824 352.837 461.31 362.156L486.312 326.312Z" fill="#A523D0"/>
<path d="M450.5 346.659L436.308 326.312H414.688L439.69 362.156L414.688 398H436.308L450.5 377.652C456.986 368.333 456.986 355.978 450.5 346.659Z" fill="#A523D0"/>
<path d="M402.991 431.067C402.991 431.111 402.968 431.422 402.924 432H394.346C394.509 432.741 394.872 433.326 395.435 433.756C396.013 434.185 396.731 434.4 397.591 434.4C398.183 434.4 398.702 434.311 399.146 434.133C399.605 433.941 400.035 433.644 400.435 433.244L402.191 435.244C401.109 436.533 399.546 437.178 397.502 437.178C396.213 437.178 395.072 436.919 394.079 436.4C393.102 435.867 392.346 435.133 391.813 434.2C391.279 433.267 391.013 432.207 391.013 431.022C391.013 429.852 391.272 428.8 391.791 427.867C392.324 426.919 393.05 426.185 393.968 425.667C394.902 425.133 395.939 424.867 397.079 424.867C398.191 424.867 399.191 425.119 400.079 425.622C400.983 426.126 401.694 426.852 402.213 427.8C402.731 428.733 402.991 429.822 402.991 431.067ZM397.102 427.489C396.361 427.489 395.731 427.711 395.213 428.156C394.709 428.6 394.405 429.207 394.302 429.978H399.879C399.761 429.222 399.45 428.622 398.946 428.178C398.457 427.719 397.842 427.489 397.102 427.489ZM409.697 431.6L406.208 437H402.274L407.741 429.089L402.541 421.444H406.43L409.83 426.489L413.163 421.444H416.852L411.719 428.956L417.208 437H413.274L409.697 431.6ZM424.958 424.867C426.01 424.867 426.965 425.126 427.824 425.644C428.684 426.148 429.358 426.867 429.847 427.8C430.35 428.719 430.602 429.793 430.602 431.022C430.602 432.252 430.35 433.333 429.847 434.267C429.358 435.185 428.684 435.904 427.824 436.422C426.965 436.926 426.01 437.178 424.958 437.178C423.506 437.178 422.365 436.696 421.536 435.733V441.311H418.224V425.044H421.38V426.422C422.195 425.385 423.387 424.867 424.958 424.867ZM424.38 434.333C425.224 434.333 425.913 434.037 426.447 433.444C426.995 432.837 427.269 432.03 427.269 431.022C427.269 430.015 426.995 429.215 426.447 428.622C425.913 428.015 425.224 427.711 424.38 427.711C423.536 427.711 422.839 428.015 422.291 428.622C421.758 429.215 421.491 430.015 421.491 431.022C421.491 432.03 421.758 432.837 422.291 433.444C422.839 434.037 423.536 434.333 424.38 434.333ZM443.498 431.067C443.498 431.111 443.476 431.422 443.432 432H434.854C435.017 432.741 435.38 433.326 435.943 433.756C436.521 434.185 437.239 434.4 438.098 434.4C438.691 434.4 439.21 434.311 439.654 434.133C440.113 433.941 440.543 433.644 440.943 433.244L442.698 435.244C441.617 436.533 440.054 437.178 438.01 437.178C436.721 437.178 435.58 436.919 434.587 436.4C433.61 435.867 432.854 435.133 432.321 434.2C431.787 433.267 431.521 432.207 431.521 431.022C431.521 429.852 431.78 428.8 432.298 427.867C432.832 426.919 433.558 426.185 434.476 425.667C435.41 425.133 436.447 424.867 437.587 424.867C438.698 424.867 439.698 425.119 440.587 425.622C441.491 426.126 442.202 426.852 442.721 427.8C443.239 428.733 443.498 429.822 443.498 431.067ZM437.61 427.489C436.869 427.489 436.239 427.711 435.721 428.156C435.217 428.6 434.913 429.207 434.81 429.978H440.387C440.269 429.222 439.958 428.622 439.454 428.178C438.965 427.719 438.35 427.489 437.61 427.489ZM448.392 426.622C448.792 426.044 449.325 425.607 449.992 425.311C450.658 425.015 451.429 424.867 452.303 424.867V428.067C451.918 428.037 451.666 428.022 451.547 428.022C450.614 428.022 449.881 428.304 449.347 428.867C448.814 429.415 448.547 430.244 448.547 431.356V437H445.236V425.044H448.392V426.622ZM455.555 423.378C454.948 423.378 454.451 423.193 454.066 422.822C453.681 422.452 453.488 421.993 453.488 421.444C453.488 420.896 453.681 420.437 454.066 420.067C454.451 419.696 454.948 419.511 455.555 419.511C456.163 419.511 456.651 419.689 457.022 420.044C457.407 420.4 457.6 420.844 457.6 421.378C457.6 421.956 457.407 422.437 457.022 422.822C456.651 423.193 456.163 423.378 455.555 423.378ZM457.2 425.044V437H453.888V425.044H457.2ZM470.94 431.067C470.94 431.111 470.918 431.422 470.873 432H462.295C462.458 432.741 462.821 433.326 463.384 433.756C463.962 434.185 464.681 434.4 465.54 434.4C466.132 434.4 466.651 434.311 467.095 434.133C467.555 433.941 467.984 433.644 468.384 433.244L470.14 435.244C469.058 436.533 467.495 437.178 465.451 437.178C464.162 437.178 463.021 436.919 462.029 436.4C461.051 435.867 460.295 435.133 459.762 434.2C459.229 433.267 458.962 432.207 458.962 431.022C458.962 429.852 459.221 428.8 459.74 427.867C460.273 426.919 460.999 426.185 461.918 425.667C462.851 425.133 463.888 424.867 465.029 424.867C466.14 424.867 467.14 425.119 468.029 425.622C468.932 426.126 469.644 426.852 470.162 427.8C470.681 428.733 470.94 429.822 470.94 431.067ZM465.051 427.489C464.31 427.489 463.681 427.711 463.162 428.156C462.658 428.6 462.355 429.207 462.251 429.978H467.829C467.71 429.222 467.399 428.622 466.895 428.178C466.406 427.719 465.792 427.489 465.051 427.489ZM479.589 424.867C481.011 424.867 482.152 425.311 483.011 426.2C483.87 427.089 484.3 428.407 484.3 430.156V437H481.011V430.689C481.011 429.741 480.811 429.037 480.411 428.578C480.011 428.104 479.441 427.867 478.7 427.867C477.87 427.867 477.211 428.141 476.722 428.689C476.233 429.222 475.989 430.022 475.989 431.089V437H472.678V425.044H475.833V426.444C476.278 425.941 476.818 425.556 477.455 425.289C478.107 425.007 478.818 424.867 479.589 424.867ZM492.307 437.178C491.092 437.178 490.003 436.919 489.04 436.4C488.077 435.867 487.322 435.133 486.774 434.2C486.24 433.267 485.974 432.207 485.974 431.022C485.974 429.837 486.24 428.778 486.774 427.844C487.322 426.911 488.077 426.185 489.04 425.667C490.003 425.133 491.092 424.867 492.307 424.867C493.507 424.867 494.552 425.133 495.44 425.667C496.329 426.185 496.981 426.933 497.396 427.911L494.84 429.356C494.263 428.259 493.411 427.711 492.285 427.711C491.426 427.711 490.714 428.007 490.152 428.6C489.603 429.193 489.329 430 489.329 431.022C489.329 432.044 489.603 432.852 490.152 433.444C490.714 434.037 491.426 434.333 492.285 434.333C493.426 434.333 494.277 433.785 494.84 432.689L497.396 434.156C496.981 435.119 496.329 435.867 495.44 436.4C494.552 436.919 493.507 437.178 492.307 437.178ZM509.983 431.067C509.983 431.111 509.961 431.422 509.916 432H501.338C501.501 432.741 501.864 433.326 502.427 433.756C503.005 434.185 503.724 434.4 504.583 434.4C505.175 434.4 505.694 434.311 506.138 434.133C506.598 433.941 507.027 433.644 507.427 433.244L509.183 435.244C508.101 436.533 506.538 437.178 504.494 437.178C503.205 437.178 502.064 436.919 501.072 436.4C500.094 435.867 499.338 435.133 498.805 434.2C498.272 433.267 498.005 432.207 498.005 431.022C498.005 429.852 498.264 428.8 498.783 427.867C499.316 426.919 500.042 426.185 500.961 425.667C501.894 425.133 502.931 424.867 504.072 424.867C505.183 424.867 506.183 425.119 507.072 425.622C507.975 426.126 508.686 426.852 509.205 427.8C509.724 428.733 509.983 429.822 509.983 431.067ZM504.094 427.489C503.353 427.489 502.724 427.711 502.205 428.156C501.701 428.6 501.398 429.207 501.294 429.978H506.872C506.753 429.222 506.442 428.622 505.938 428.178C505.449 427.719 504.835 427.489 504.094 427.489Z" fill="#A523D0"/>
<path d="M376.172 466.707V465.124H379.567V463.702H381.541V465.124H384.581V466.707H376.172ZM384.972 471.773V470.067H386.661V468.484H384.972V466.778H386.661V463.951H388.563V474.156H386.661V471.773H384.972ZM380.563 472.947C379.461 472.947 378.548 472.698 377.825 472.2C377.102 471.702 376.741 471.015 376.741 470.138C376.741 469.249 377.096 468.561 377.807 468.076C378.53 467.578 379.449 467.329 380.563 467.329C381.677 467.329 382.59 467.578 383.301 468.076C384.024 468.561 384.385 469.249 384.385 470.138C384.385 471.015 384.024 471.702 383.301 472.2C382.578 472.698 381.665 472.947 380.563 472.947ZM380.563 468.822C379.947 468.822 379.461 468.947 379.105 469.196C378.75 469.444 378.572 469.759 378.572 470.138C378.572 470.517 378.75 470.831 379.105 471.08C379.461 471.317 379.947 471.436 380.563 471.436C381.167 471.436 381.647 471.317 382.003 471.08C382.358 470.831 382.536 470.517 382.536 470.138C382.536 469.759 382.358 469.444 382.003 469.196C381.647 468.947 381.167 468.822 380.563 468.822ZM388.812 477.498H377.292V473.498H379.23V475.72H388.812V477.498ZM402.552 477.604H400.632V463.951H402.552V477.604ZM396.028 466.227C395.992 467.791 395.868 469.119 395.654 470.209L399.708 475.578L398.197 476.769L395.032 472.467C394.546 473.806 393.918 474.855 393.148 475.613C392.377 476.36 391.506 476.775 390.534 476.858V474.831C391.234 474.713 391.844 474.28 392.365 473.533C392.899 472.775 393.314 471.767 393.61 470.511C393.906 469.255 394.066 467.827 394.09 466.227H390.854V464.378H399.157V466.227H396.028ZM408.644 472.716V464.324H410.546V466.689H418.173V464.324H420.075V472.716H408.644ZM418.173 468.467H410.546V470.902H418.173V468.467ZM420.875 477.018H407.844V475.133H420.875V477.018ZM429.264 474.173V464.022H431.06V467.436H432.766V463.951H434.58V474.404H432.766V469.249H431.06V474.173H429.264ZM428.5 472.022C427.717 472.354 426.562 472.52 425.033 472.52H422.26V467.542H426.1V465.889H422.26V464.218H427.877V469.124H424.037V470.849H425.157C426.627 470.849 427.741 470.689 428.5 470.369V472.022ZM434.846 477.498H423.006V473.462H424.962V475.684H434.846V477.498ZM446.382 471.489V463.951H448.302V471.489H446.382ZM438.471 465.907V469.107H441.902C442.661 469.107 443.366 469.059 444.018 468.964C444.67 468.858 445.185 468.716 445.564 468.538V470.227C445.185 470.404 444.67 470.547 444.018 470.653C443.378 470.748 442.661 470.796 441.867 470.796H436.533V464.218H444.711V465.907H438.471ZM442.72 471.827C444.462 471.827 445.855 472.064 446.898 472.538C447.941 473 448.462 473.735 448.462 474.742C448.462 475.761 447.941 476.508 446.898 476.982C445.855 477.444 444.462 477.676 442.72 477.676C440.978 477.676 439.579 477.444 438.524 476.982C437.481 476.508 436.96 475.761 436.96 474.742C436.96 473.735 437.481 473 438.524 472.538C439.579 472.064 440.978 471.827 442.72 471.827ZM442.72 473.48C441.63 473.48 440.741 473.587 440.053 473.8C439.378 474.001 439.04 474.316 439.04 474.742C439.04 475.169 439.378 475.489 440.053 475.702C440.741 475.916 441.63 476.022 442.72 476.022C443.81 476.022 444.693 475.916 445.369 475.702C446.056 475.489 446.4 475.169 446.4 474.742C446.4 474.316 446.056 474.001 445.369 473.8C444.693 473.587 443.81 473.48 442.72 473.48ZM462.447 475.613C461.345 476.644 459.964 477.16 458.305 477.16C457.451 477.16 456.681 477.024 455.994 476.751C455.318 476.467 454.785 476.076 454.394 475.578C454.014 475.068 453.825 474.493 453.825 473.853C453.825 473.095 454.05 472.425 454.5 471.844C454.951 471.252 455.697 470.659 456.74 470.067C456.243 469.545 455.881 469.071 455.656 468.644C455.443 468.218 455.336 467.767 455.336 467.293C455.336 466.44 455.656 465.753 456.296 465.231C456.936 464.698 457.789 464.431 458.856 464.431C459.851 464.431 460.64 464.674 461.22 465.16C461.813 465.634 462.109 466.28 462.109 467.098C462.109 467.726 461.908 468.289 461.505 468.787C461.114 469.284 460.456 469.794 459.531 470.316L462.34 473.107C462.66 472.467 462.897 471.744 463.051 470.938L464.705 471.453C464.468 472.603 464.1 473.551 463.603 474.298L465.22 475.88L464.065 477.196L462.447 475.613ZM458.856 465.871C458.346 465.871 457.943 466.001 457.647 466.262C457.363 466.511 457.22 466.849 457.22 467.276C457.22 467.584 457.297 467.88 457.451 468.164C457.617 468.437 457.926 468.799 458.376 469.249C459.123 468.822 459.638 468.455 459.923 468.147C460.219 467.839 460.367 467.501 460.367 467.133C460.367 466.754 460.231 466.452 459.958 466.227C459.697 465.99 459.33 465.871 458.856 465.871ZM458.447 475.524C459.549 475.524 460.48 475.175 461.238 474.476L457.896 471.151C457.126 471.601 456.586 472.016 456.278 472.396C455.982 472.763 455.834 473.178 455.834 473.64C455.834 474.197 456.071 474.653 456.545 475.009C457.031 475.353 457.665 475.524 458.447 475.524ZM481.476 471.222V477.604H479.556V463.951H481.476V469.267H483.182V471.222H481.476ZM477.458 464.378V476.858H470.098V464.378H477.458ZM475.52 474.973V466.262H472.018V474.973H475.52ZM496.283 477.604H494.469V463.951H496.283V477.604ZM493.012 464.022V477.373H491.234V471.169H489.349C489.065 472.935 488.437 474.316 487.465 475.311C486.493 476.295 485.302 476.804 483.892 476.84V475.009C484.899 474.961 485.711 474.594 486.327 473.907C486.955 473.207 487.37 472.253 487.572 471.044H483.892V469.249H487.714V468.164V466.173H483.892V464.378H489.527V468.093V469.267H491.234V464.022H493.012ZM508.085 472.076V463.951H510.005V472.076H508.085ZM507.196 470.973C506.817 471.151 506.29 471.293 505.614 471.4C504.95 471.495 504.21 471.542 503.392 471.542H498.236V464.218H506.325V465.782H500.156V467.133H506.076V468.609H500.156V469.978H503.534C504.293 469.978 504.992 469.93 505.632 469.836C506.284 469.729 506.805 469.593 507.196 469.427V470.973ZM504.423 472.413C506.177 472.413 507.57 472.621 508.601 473.036C509.644 473.45 510.165 474.12 510.165 475.044C510.165 475.969 509.644 476.639 508.601 477.053C507.57 477.468 506.177 477.676 504.423 477.676C502.669 477.676 501.27 477.468 500.227 477.053C499.185 476.639 498.663 475.969 498.663 475.044C498.663 474.12 499.185 473.45 500.227 473.036C501.27 472.621 502.669 472.413 504.423 472.413ZM504.423 476.093C505.537 476.093 506.432 476.01 507.108 475.844C507.783 475.679 508.121 475.412 508.121 475.044C508.121 474.677 507.783 474.41 507.108 474.244C506.432 474.067 505.537 473.978 504.423 473.978C503.309 473.978 502.414 474.067 501.739 474.244C501.063 474.41 500.725 474.677 500.725 475.044C500.725 475.412 501.057 475.679 501.721 475.844C502.396 476.01 503.297 476.093 504.423 476.093ZM518.306 463.827C520.06 463.827 521.458 464.028 522.501 464.431C523.544 464.822 524.066 465.456 524.066 466.333C524.066 467.21 523.544 467.85 522.501 468.253C521.458 468.656 520.06 468.858 518.306 468.858C516.552 468.858 515.147 468.656 514.092 468.253C513.037 467.85 512.51 467.21 512.51 466.333C512.51 465.456 513.032 464.822 514.075 464.431C515.129 464.028 516.54 463.827 518.306 463.827ZM518.306 465.32C517.168 465.32 516.255 465.403 515.568 465.569C514.892 465.735 514.555 465.99 514.555 466.333C514.555 466.689 514.892 466.95 515.568 467.116C516.255 467.281 517.168 467.364 518.306 467.364C519.443 467.364 520.35 467.281 521.026 467.116C521.701 466.95 522.039 466.689 522.039 466.333C522.039 465.99 521.701 465.735 521.026 465.569C520.35 465.403 519.443 465.32 518.306 465.32ZM511.781 471.08V469.551H524.812V471.08H511.781ZM514.537 475.276V476.129H524.172V477.498H512.635V474.138H522.092V473.302H512.599V471.969H523.995V475.276H514.537ZM401.732 494.093H399.812V485.951H401.732V494.093ZM394.105 491.142C393.631 491.889 393.015 492.493 392.256 492.956C391.498 493.418 390.656 493.69 389.732 493.773V491.942C390.727 491.824 391.533 491.403 392.15 490.68C392.766 489.945 393.121 489.033 393.216 487.942H389.91V486.218H398.319V487.942H395.172C395.16 488.476 395.065 489.009 394.887 489.542L398.745 492.173L397.732 493.667L394.105 491.142ZM401.732 494.733V499.676H399.776V496.476H390.39V494.733H401.732ZM415.899 493.169H413.979V489.969H411.757V488.262H413.979V485.951H415.899V493.169ZM408.077 490.698C407.603 491.397 406.992 491.96 406.246 492.387C405.511 492.813 404.687 493.062 403.774 493.133V491.356C404.711 491.237 405.481 490.864 406.086 490.236C406.69 489.607 407.051 488.831 407.17 487.907H403.934V486.218H412.219V487.907H409.126C409.09 488.321 409.007 488.748 408.877 489.187L412.663 491.498L411.757 493.009L408.077 490.698ZM415.899 493.72V499.498H404.628V493.72H406.512V494.947H413.997V493.72H415.899ZM413.997 496.511H406.512V497.898H413.997V496.511ZM429.101 492.209V490.467H431.573V489.009H429.617V487.267H431.573V485.951H433.493V493.489H431.573V492.209H429.101ZM428.995 487.853C428.995 489.643 428.325 490.976 426.986 491.853C425.647 492.719 423.81 493.151 421.475 493.151V491.409C423.205 491.397 424.562 491.119 425.546 490.573C426.53 490.028 427.021 489.252 427.021 488.244V487.924H421.475V486.218H428.995V487.853ZM427.875 493.827C429.605 493.827 430.998 494.064 432.053 494.538C433.119 495 433.653 495.735 433.653 496.742C433.653 497.761 433.125 498.508 432.07 498.982C431.016 499.444 429.617 499.676 427.875 499.676C426.144 499.676 424.752 499.444 423.697 498.982C422.654 498.508 422.133 497.761 422.133 496.742C422.133 495.735 422.654 495 423.697 494.538C424.752 494.064 426.144 493.827 427.875 493.827ZM427.875 498.022C428.965 498.022 429.854 497.916 430.541 497.702C431.241 497.489 431.59 497.169 431.59 496.742C431.59 496.316 431.241 496.001 430.541 495.8C429.854 495.587 428.965 495.48 427.875 495.48C426.796 495.48 425.907 495.587 425.208 495.8C424.521 496.001 424.177 496.316 424.177 496.742C424.177 497.169 424.521 497.489 425.208 497.702C425.907 497.916 426.796 498.022 427.875 498.022ZM435.18 488.493V486.964H438.629V485.702H440.584V486.964H444.033V488.493H435.18ZM447.571 494.058H445.651V491.676H443.873V489.898H445.651V485.951H447.571V494.058ZM439.606 494.022C438.504 494.022 437.586 493.803 436.851 493.364C436.128 492.926 435.766 492.321 435.766 491.551C435.766 490.781 436.128 490.17 436.851 489.72C437.586 489.27 438.504 489.044 439.606 489.044C440.709 489.044 441.621 489.27 442.344 489.72C443.079 490.17 443.446 490.781 443.446 491.551C443.446 492.321 443.079 492.926 442.344 493.364C441.621 493.803 440.709 494.022 439.606 494.022ZM439.606 490.502C438.99 490.502 438.498 490.603 438.131 490.804C437.775 490.994 437.597 491.243 437.597 491.551C437.597 491.847 437.775 492.096 438.131 492.298C438.498 492.487 438.99 492.582 439.606 492.582C440.223 492.582 440.714 492.487 441.082 492.298C441.449 492.096 441.633 491.847 441.633 491.551C441.633 491.243 441.449 490.994 441.082 490.804C440.714 490.603 440.223 490.502 439.606 490.502ZM447.535 494.716V499.498H436.3V494.716H447.535ZM445.633 497.916V496.298H438.202V497.916H445.633ZM449.204 488.28V486.822H452.618V485.684H454.591V486.822H458.04V488.28H449.204ZM462.893 490.378H461.187V493.062H459.267V485.951H461.187V488.547H462.893V490.378ZM453.613 493.098C452.487 493.098 451.563 492.914 450.84 492.547C450.117 492.167 449.756 491.634 449.756 490.947C449.756 490.247 450.117 489.714 450.84 489.347C451.563 488.979 452.487 488.796 453.613 488.796C454.739 488.796 455.664 488.979 456.387 489.347C457.11 489.714 457.471 490.247 457.471 490.947C457.471 491.634 457.11 492.167 456.387 492.547C455.664 492.914 454.739 493.098 453.613 493.098ZM453.613 490.147C452.985 490.147 452.487 490.218 452.12 490.36C451.753 490.502 451.569 490.698 451.569 490.947C451.569 491.196 451.753 491.391 452.12 491.533C452.487 491.676 452.985 491.747 453.613 491.747C454.241 491.747 454.739 491.676 455.107 491.533C455.474 491.391 455.658 491.196 455.658 490.947C455.658 490.698 455.474 490.502 455.107 490.36C454.739 490.218 454.241 490.147 453.613 490.147ZM461.436 498.129V499.498H450.111V495.96H459.302V495.071H450.076V493.684H461.187V497.222H452.013V498.129H461.436ZM473.234 490.004C472.499 491 471.592 491.788 470.514 492.369C469.447 492.95 468.327 493.246 467.154 493.258V491.338C468.043 491.338 468.902 491.101 469.731 490.627C470.561 490.141 471.26 489.477 471.829 488.636C472.398 487.782 472.766 486.84 472.931 485.809L474.905 486.129C474.763 486.959 474.514 487.735 474.158 488.458L479.687 491.551L478.763 493.24L473.234 490.004ZM474.354 496.404V499.924H472.38V496.404H466.851V494.52H479.883V496.404H474.354ZM494.827 493.524V485.951H496.747V493.524H494.827ZM492.819 489.649C492.819 490.36 492.647 490.988 492.303 491.533C491.971 492.079 491.491 492.505 490.863 492.813C490.247 493.11 489.524 493.258 488.694 493.258C487.876 493.258 487.153 493.11 486.525 492.813C485.909 492.505 485.429 492.079 485.085 491.533C484.742 490.988 484.57 490.36 484.57 489.649C484.57 488.938 484.742 488.31 485.085 487.764C485.429 487.219 485.909 486.799 486.525 486.502C487.153 486.194 487.876 486.04 488.694 486.04C489.524 486.04 490.247 486.194 490.863 486.502C491.491 486.799 491.971 487.219 492.303 487.764C492.647 488.31 492.819 488.938 492.819 489.649ZM486.49 489.649C486.49 490.241 486.691 490.71 487.094 491.053C487.509 491.397 488.042 491.569 488.694 491.569C489.37 491.569 489.909 491.397 490.312 491.053C490.715 490.71 490.916 490.241 490.916 489.649C490.916 489.044 490.715 488.57 490.312 488.227C489.909 487.883 489.37 487.711 488.694 487.711C488.03 487.711 487.497 487.889 487.094 488.244C486.691 488.588 486.49 489.056 486.49 489.649ZM494.259 497.542C493.844 498.147 493.346 498.621 492.765 498.964C492.185 499.296 491.568 499.474 490.916 499.498L488.765 497.596C488.339 498.176 487.841 498.633 487.272 498.964C486.715 499.296 486.122 499.474 485.494 499.498V497.667C485.933 497.643 486.347 497.459 486.739 497.116C487.142 496.772 487.473 496.321 487.734 495.764C487.995 495.207 488.149 494.603 488.196 493.951L490.063 494.253C489.992 494.941 489.85 495.557 489.636 496.102L491.379 497.578C491.959 497.4 492.457 496.973 492.872 496.298C493.299 495.622 493.547 494.84 493.619 493.951L495.467 494.253C495.42 494.846 495.29 495.45 495.076 496.067L497.725 498.164L496.623 499.587L494.259 497.542ZM510.808 489.596V491.302H499.412V485.916H501.35V489.596H510.808ZM498.523 494.342V492.618H511.554V494.342H498.523ZM510.914 497.791V499.498H499.377V495.373H501.332V497.791H510.914ZM417.406 514.653V507.951H419.326V514.653H417.406ZM411.646 512.093C411.136 512.781 410.502 513.344 409.743 513.782C408.985 514.209 408.143 514.476 407.219 514.582V512.787C408.369 512.597 409.287 512.07 409.974 511.204C410.662 510.327 411.017 509.273 411.041 508.04L412.979 508.164C412.979 509.041 412.819 509.865 412.499 510.636L416.392 512.858L415.503 514.351L411.646 512.093ZM419.574 521.498H408.09V517.747H417.423V516.751H408.054V515.293H419.326V519.044H409.992V520.058H419.574V521.498ZM420.853 510.493V509H423.413V507.738H425.333V509H427.786V510.493H420.853ZM428.55 515.916V508.022H430.328V510.973H431.981V507.951H433.759V516.396H431.981V512.787H430.328V515.916H428.55ZM427.519 513.604C427.519 514.375 427.223 514.991 426.63 515.453C426.038 515.916 425.297 516.147 424.408 516.147C423.507 516.147 422.761 515.916 422.168 515.453C421.576 514.991 421.279 514.375 421.279 513.604C421.279 512.834 421.576 512.224 422.168 511.773C422.761 511.311 423.507 511.08 424.408 511.08C425.297 511.08 426.038 511.311 426.63 511.773C427.223 512.224 427.519 512.834 427.519 513.604ZM422.986 513.604C422.986 513.924 423.116 514.191 423.377 514.404C423.638 514.606 423.981 514.707 424.408 514.707C424.823 514.707 425.161 514.606 425.421 514.404C425.682 514.191 425.813 513.924 425.813 513.604C425.813 513.284 425.682 513.024 425.421 512.822C425.161 512.621 424.823 512.52 424.408 512.52C423.981 512.52 423.638 512.621 423.377 512.822C423.116 513.024 422.986 513.284 422.986 513.604ZM427.964 516.573C429.765 516.573 431.199 516.775 432.266 517.178C433.344 517.581 433.884 518.227 433.884 519.116C433.884 520.016 433.344 520.668 432.266 521.071C431.199 521.474 429.765 521.676 427.964 521.676C426.162 521.676 424.722 521.474 423.644 521.071C422.577 520.668 422.044 520.016 422.044 519.116C422.044 518.227 422.577 517.581 423.644 517.178C424.722 516.775 426.162 516.573 427.964 516.573ZM427.964 520.129C429.101 520.129 430.032 520.046 430.755 519.88C431.49 519.702 431.857 519.447 431.857 519.116C431.857 518.784 431.49 518.535 430.755 518.369C430.032 518.191 429.101 518.102 427.964 518.102C426.826 518.102 425.89 518.191 425.155 518.369C424.42 518.535 424.053 518.784 424.053 519.116C424.053 519.447 424.42 519.702 425.155 519.88C425.89 520.046 426.826 520.129 427.964 520.129ZM439.353 516.609V514.742H441.522V510.298H439.477V508.431H450.962V510.298H448.917V514.742H451.086V516.609H439.353ZM446.997 514.742V510.298H443.442V514.742H446.997ZM451.726 521.018H438.695V519.116H451.726V521.018ZM465.804 521.018H452.773V519.169H458.302V517H453.591V511.827H463.12V510.156H453.591V508.378H465.022V513.533H455.511V515.204H465.182V517H460.258V519.169H465.804V521.018ZM479.509 521.604H477.696V507.951H479.509V521.604ZM476.185 508.022V521.373H474.371V514.351H472.576V512.431H474.371V508.022H476.185ZM471.331 508.324C471.331 510.47 471.237 512.319 471.047 513.871L474.105 519.862L472.523 520.698L470.46 516.627C469.761 519.187 468.582 520.597 466.923 520.858V518.813C468.629 518.327 469.494 514.807 469.518 508.253L471.331 508.324ZM487.312 512.751C486.553 513.936 485.635 514.873 484.556 515.56C483.49 516.236 482.37 516.579 481.196 516.591V514.671C482.085 514.671 482.939 514.375 483.756 513.782C484.586 513.19 485.291 512.384 485.872 511.364C486.453 510.345 486.838 509.213 487.027 507.969L489.001 508.307C488.811 509.385 488.533 510.333 488.165 511.151L493.801 515.027L492.77 516.644L487.312 512.751ZM493.961 519.133V521.018H480.93V519.133H493.961Z" fill="#A523D0"/>
</g>
<defs>
<clipPath id="clip0_102_139">
<rect width="616" height="582" fill="white"/>
</clipPath>
</defs>
</svg>
