<svg width="1077" height="355" viewBox="0 0 1077 355" fill="none" xmlns="http://www.w3.org/2000/svg">
<g clip-path="url(#clip0_123_67)">
<path d="M575.896 0H398.604V355.158H486.301V87.8384H575.55H576.241C605.07 87.8384 630.619 101.671 647.019 122.939C658.586 137.982 665.491 157.002 665.491 177.579V355.158H753.187V177.579C753.187 79.5387 673.777 0 575.896 0Z" fill="#BAFF00"/>
<path d="M177.291 0C79.4099 0 0 79.5387 0 177.579C0 275.619 79.4099 355.158 177.291 355.158H354.582V267.319H177.291C127.746 267.319 87.6961 227.204 87.6961 177.579C87.6961 127.954 127.746 87.8384 177.291 87.8384H354.582V0H177.291Z" fill="#BAFF00"/>
<path d="M899.23 254.351L969.491 355.157H1076.52L1006.26 254.351C980.367 217.002 925.125 217.002 899.23 254.351Z" fill="white"/>
<path d="M1076.52 0H969.494L952.749 24.0345C920.64 70.2015 920.64 131.412 952.749 177.579L1076.52 0Z" fill="white"/>
<path d="M899.233 100.807L828.972 0H721.941L845.717 177.579L721.941 355.158H828.972L899.233 254.351C931.342 208.184 931.342 146.974 899.233 100.807Z" fill="white"/>
</g>
<defs>
<clipPath id="clip0_123_67">
<rect width="1077" height="355" fill="white"/>
</clipPath>
</defs>
</svg>
