<svg width="124" height="124" viewBox="0 0 124 124" fill="none" xmlns="http://www.w3.org/2000/svg">
<g clip-path="url(#clip0_126_134)">
<circle cx="62" cy="62" r="62" fill="#FFB837"/>
<path d="M64.3281 30.2734L72.8828 47.1484L91.6328 50.1953C92.6875 50.3125 93.5078 51.0156 93.8594 52.0703C94.2109 53.125 93.9766 54.1797 93.1562 54.8828L79.7969 68.3594L82.7266 87.1094C82.8438 88.1641 82.4922 89.2188 81.5547 89.8047C80.7344 90.3906 79.5625 90.5078 78.625 90.0391L61.75 81.4844L44.875 90.0391C43.9375 90.5078 42.7656 90.3906 41.9453 89.8047C41.0078 89.2188 40.6562 88.1641 40.7734 87.1094L43.7031 68.3594L30.3438 54.8828C29.6406 54.1797 29.2891 53.125 29.6406 52.0703C29.9922 51.0156 30.8125 50.3125 31.8672 50.1953L50.6172 47.1484L59.2891 30.2734C59.7578 29.3359 60.6953 28.75 61.75 28.75C62.8047 28.75 63.7422 29.3359 64.3281 30.2734Z" fill="white"/>
</g>
<defs>
<clipPath id="clip0_126_134">
<rect width="124" height="124" fill="white"/>
</clipPath>
</defs>
</svg>
