<svg width="124" height="124" viewBox="0 0 124 124" fill="none" xmlns="http://www.w3.org/2000/svg">
<g clip-path="url(#clip0_127_174)">
<circle cx="62" cy="62" r="62" fill="#F44E64"/>
<path d="M60.2422 42.6953L62 45.1562L63.7578 42.6953C66.6875 38.7109 71.375 36.25 76.4141 36.25C84.9688 36.25 92 43.2812 92 51.8359V52.1875C92 65.3125 75.5938 80.5469 67.0391 87.1094C65.6328 88.1641 63.875 88.75 62 88.75C60.2422 88.75 58.3672 88.1641 56.9609 87.1094C48.4062 80.5469 32 65.3125 32 52.1875V51.8359C32 43.2812 39.0312 36.25 47.5859 36.25C52.625 36.25 57.3125 38.7109 60.2422 42.6953Z" fill="white"/>
</g>
<defs>
<clipPath id="clip0_127_174">
<rect width="124" height="124" fill="white"/>
</clipPath>
</defs>
</svg>
