<svg width="124" height="124" viewBox="0 0 124 124" fill="none" xmlns="http://www.w3.org/2000/svg">
<g clip-path="url(#clip0_127_196)">
<circle cx="62" cy="62" r="62" fill="#538DFB"/>
<path d="M41.375 51.25C43.4844 51.25 45.125 52.8906 45.125 55V85C45.125 87.1094 43.4844 88.75 41.375 88.75H35.75C33.6406 88.75 32 87.1094 32 85V55C32 52.8906 33.6406 51.25 35.75 51.25H41.375ZM63.7578 34.375C66.9219 34.375 69.5 36.9531 69.5 40.1172V40.7031C69.5 41.4062 69.3828 42.2266 69.0312 43.0469L65.75 51.25H84.5C87.6641 51.25 90.125 53.8281 90.125 56.875C90.125 59.2188 88.7188 61.2109 86.7266 62.0312C88.7188 62.8516 90.125 64.8438 90.125 67.1875C90.125 69.8828 88.1328 72.2266 85.5547 72.6953C86.0234 73.5156 86.375 74.5703 86.375 75.625C86.375 78.2031 84.6172 80.4297 82.2734 81.0156C82.5078 81.7188 82.625 82.4219 82.625 83.125C82.625 86.2891 80.1641 88.75 77 88.75H66.6875C62.4688 88.75 58.3672 87.3438 54.9688 84.6484L53.5625 83.4766C51.8047 82.0703 50.75 79.9609 50.75 77.6172V55.8203C50.75 54.0625 51.2188 52.3047 51.9219 50.7812L58.4844 37.5391C59.5391 35.6641 61.5312 34.375 63.7578 34.375Z" fill="white"/>
</g>
<defs>
<clipPath id="clip0_127_196">
<rect width="124" height="124" fill="white"/>
</clipPath>
</defs>
</svg>
