<svg width="255" height="701" viewBox="0 0 255 701" fill="none" xmlns="http://www.w3.org/2000/svg">
<rect x="0.384037" y="0.384037" width="254.232" height="254.232" rx="127.116" stroke="#BAFF00" stroke-width="0.768074"/>
<path d="M127.48 47.8826C112.298 47.8826 99.9805 59.976 99.9805 74.8826C99.9805 89.7891 112.298 101.883 127.48 101.883H154.98V88.5272H127.48C119.795 88.5272 113.583 82.4278 113.583 74.8826C113.583 67.3373 119.795 61.238 127.48 61.238H154.98V47.8826H127.48Z" fill="#BAFF00"/>
<path d="M41.2091 132.457C40.0002 132.457 38.9098 132.185 37.938 131.64C36.9661 131.083 36.2017 130.318 35.6446 129.346C35.0876 128.363 34.8091 127.254 34.8091 126.022C34.8091 124.789 35.0876 123.687 35.6446 122.715C36.2017 121.731 36.9661 120.967 37.938 120.422C38.9217 119.865 40.018 119.586 41.2269 119.586C42.2461 119.586 43.1706 119.776 44.0002 120.155C44.8417 120.534 45.5409 121.08 46.098 121.791L44.338 123.497C43.532 122.525 42.5424 122.04 41.3691 122.04C40.6343 122.04 39.9765 122.211 39.3957 122.555C38.8269 122.887 38.3824 123.355 38.0624 123.96C37.7424 124.564 37.5824 125.251 37.5824 126.022C37.5824 126.792 37.7424 127.48 38.0624 128.084C38.3824 128.688 38.8269 129.163 39.3957 129.506C39.9765 129.838 40.6343 130.004 41.3691 130.004C42.5424 130.004 43.532 129.512 44.338 128.528L46.098 130.235C45.5409 130.958 44.8417 131.509 44.0002 131.888C43.1706 132.268 42.2402 132.457 41.2091 132.457ZM51.2712 132.386C50.3112 132.386 49.452 132.179 48.6935 131.764C47.9349 131.337 47.3364 130.751 46.8979 130.004C46.4712 129.257 46.2579 128.41 46.2579 127.462C46.2579 126.514 46.4712 125.666 46.8979 124.92C47.3364 124.173 47.9349 123.592 48.6935 123.177C49.452 122.751 50.3112 122.537 51.2712 122.537C52.2194 122.537 53.0727 122.751 53.8312 123.177C54.5898 123.592 55.1823 124.173 55.609 124.92C56.0357 125.666 56.249 126.514 56.249 127.462C56.249 128.41 56.0357 129.257 55.609 130.004C55.1823 130.751 54.5898 131.337 53.8312 131.764C53.0727 132.179 52.2194 132.386 51.2712 132.386ZM51.2712 130.111C51.9468 130.111 52.4979 129.874 52.9246 129.4C53.3631 128.914 53.5823 128.268 53.5823 127.462C53.5823 126.656 53.3631 126.016 52.9246 125.542C52.4979 125.056 51.9468 124.813 51.2712 124.813C50.5957 124.813 50.0386 125.056 49.6001 125.542C49.1616 126.016 48.9423 126.656 48.9423 127.462C48.9423 128.268 49.1616 128.914 49.6001 129.4C50.0386 129.874 50.5957 130.111 51.2712 130.111ZM69.281 122.537C70.4188 122.537 71.3195 122.893 71.9832 123.604C72.6588 124.303 72.9966 125.358 72.9966 126.768V132.244H70.3655V127.195C70.3655 126.437 70.2114 125.874 69.9032 125.506C69.607 125.127 69.1862 124.937 68.641 124.937C68.0247 124.937 67.5329 125.151 67.1655 125.577C66.8099 125.992 66.6321 126.614 66.6321 127.444V132.244H64.001V127.195C64.001 126.437 63.8529 125.874 63.5566 125.506C63.2603 125.127 62.8336 124.937 62.2766 124.937C61.6721 124.937 61.1862 125.151 60.8188 125.577C60.4632 125.992 60.2855 126.614 60.2855 127.444V132.244H57.6366V122.68H60.161V123.782C60.4929 123.379 60.9018 123.071 61.3877 122.857C61.8855 122.644 62.4307 122.537 63.0232 122.537C63.6632 122.537 64.2381 122.674 64.7477 122.946C65.2692 123.207 65.6899 123.592 66.0099 124.102C66.3773 123.604 66.8455 123.219 67.4144 122.946C67.9832 122.674 68.6055 122.537 69.281 122.537ZM86.656 122.537C87.7938 122.537 88.6945 122.893 89.3582 123.604C90.0338 124.303 90.3716 125.358 90.3716 126.768V132.244H87.7405V127.195C87.7405 126.437 87.5864 125.874 87.2782 125.506C86.982 125.127 86.5612 124.937 86.016 124.937C85.3997 124.937 84.9079 125.151 84.5405 125.577C84.1849 125.992 84.0071 126.614 84.0071 127.444V132.244H81.376V127.195C81.376 126.437 81.2279 125.874 80.9316 125.506C80.6353 125.127 80.2086 124.937 79.6516 124.937C79.0471 124.937 78.5612 125.151 78.1938 125.577C77.8382 125.992 77.6605 126.614 77.6605 127.444V132.244H75.0116V122.68H77.536V123.782C77.8679 123.379 78.2768 123.071 78.7627 122.857C79.2605 122.644 79.8057 122.537 80.3982 122.537C81.0382 122.537 81.6131 122.674 82.1227 122.946C82.6442 123.207 83.0649 123.592 83.3849 124.102C83.7523 123.604 84.2205 123.219 84.7894 122.946C85.3582 122.674 85.9805 122.537 86.656 122.537ZM101.293 127.497C101.293 127.533 101.275 127.782 101.24 128.244H94.3777C94.5081 128.837 94.7984 129.305 95.2488 129.648C95.711 129.992 96.2858 130.164 96.9732 130.164C97.4473 130.164 97.8621 130.093 98.2177 129.951C98.5851 129.797 98.9288 129.56 99.2488 129.24L100.653 130.84C99.7881 131.871 98.5377 132.386 96.9021 132.386C95.871 132.386 94.9584 132.179 94.1644 131.764C93.3821 131.337 92.7777 130.751 92.351 130.004C91.9244 129.257 91.711 128.41 91.711 127.462C91.711 126.525 91.9184 125.684 92.3332 124.937C92.7599 124.179 93.3407 123.592 94.0755 123.177C94.8221 122.751 95.6518 122.537 96.5644 122.537C97.4532 122.537 98.2532 122.739 98.9644 123.142C99.6873 123.545 100.256 124.125 100.671 124.884C101.086 125.631 101.293 126.502 101.293 127.497ZM96.5821 124.635C95.9895 124.635 95.4858 124.813 95.071 125.168C94.6681 125.524 94.4251 126.01 94.3421 126.626H98.8044C98.7095 126.022 98.4607 125.542 98.0577 125.186C97.6666 124.819 97.1747 124.635 96.5821 124.635ZM105.208 123.942C105.528 123.48 105.955 123.13 106.488 122.893C107.021 122.656 107.638 122.537 108.337 122.537V125.097C108.029 125.074 107.827 125.062 107.732 125.062C106.986 125.062 106.399 125.287 105.972 125.737C105.546 126.176 105.332 126.84 105.332 127.728V132.244H102.683V122.68H105.208V123.942ZM113.996 132.386C113.025 132.386 112.153 132.179 111.383 131.764C110.613 131.337 110.008 130.751 109.57 130.004C109.143 129.257 108.93 128.41 108.93 127.462C108.93 126.514 109.143 125.666 109.57 124.92C110.008 124.173 110.613 123.592 111.383 123.177C112.153 122.751 113.025 122.537 113.996 122.537C114.956 122.537 115.792 122.751 116.503 123.177C117.214 123.592 117.736 124.191 118.068 124.973L116.023 126.128C115.561 125.251 114.879 124.813 113.979 124.813C113.291 124.813 112.722 125.05 112.272 125.524C111.833 125.998 111.614 126.644 111.614 127.462C111.614 128.28 111.833 128.925 112.272 129.4C112.722 129.874 113.291 130.111 113.979 130.111C114.891 130.111 115.573 129.672 116.023 128.795L118.068 129.968C117.736 130.739 117.214 131.337 116.503 131.764C115.792 132.179 114.956 132.386 113.996 132.386ZM128.137 127.497C128.137 127.533 128.119 127.782 128.084 128.244H121.221C121.352 128.837 121.642 129.305 122.093 129.648C122.555 129.992 123.13 130.164 123.817 130.164C124.291 130.164 124.706 130.093 125.061 129.951C125.429 129.797 125.773 129.56 126.093 129.24L127.497 130.84C126.632 131.871 125.381 132.386 123.746 132.386C122.715 132.386 121.802 132.179 121.008 131.764C120.226 131.337 119.621 130.751 119.195 130.004C118.768 129.257 118.555 128.41 118.555 127.462C118.555 126.525 118.762 125.684 119.177 124.937C119.604 124.179 120.184 123.592 120.919 123.177C121.666 122.751 122.496 122.537 123.408 122.537C124.297 122.537 125.097 122.739 125.808 123.142C126.531 123.545 127.1 124.125 127.515 124.884C127.93 125.631 128.137 126.502 128.137 127.497ZM123.426 124.635C122.833 124.635 122.33 124.813 121.915 125.168C121.512 125.524 121.269 126.01 121.186 126.626H125.648C125.553 126.022 125.304 125.542 124.901 125.186C124.51 124.819 124.018 124.635 123.426 124.635ZM141.558 131.071C140.373 131.995 138.987 132.457 137.398 132.457C136.498 132.457 135.686 132.315 134.963 132.031C134.24 131.734 133.671 131.326 133.256 130.804C132.853 130.283 132.652 129.696 132.652 129.044C132.652 128.274 132.865 127.598 133.292 127.017C133.73 126.425 134.429 125.862 135.389 125.328C134.939 124.866 134.613 124.428 134.412 124.013C134.21 123.586 134.109 123.148 134.109 122.697C134.109 122.093 134.269 121.56 134.589 121.097C134.909 120.635 135.36 120.28 135.941 120.031C136.533 119.77 137.215 119.64 137.985 119.64C139.064 119.64 139.929 119.9 140.581 120.422C141.232 120.931 141.558 121.625 141.558 122.502C141.558 123.142 141.363 123.711 140.972 124.208C140.592 124.706 139.976 125.186 139.123 125.648L141.398 127.764C141.671 127.195 141.878 126.549 142.021 125.826L144.243 126.52C144.006 127.622 143.627 128.564 143.105 129.346L144.563 130.697L143.052 132.457L141.558 131.071ZM137.985 121.524C137.57 121.524 137.238 121.631 136.989 121.844C136.752 122.057 136.634 122.33 136.634 122.662C136.634 122.911 136.699 123.148 136.829 123.373C136.96 123.586 137.215 123.877 137.594 124.244C138.198 123.924 138.619 123.64 138.856 123.391C139.093 123.13 139.212 122.851 139.212 122.555C139.212 122.247 139.105 121.998 138.892 121.808C138.678 121.619 138.376 121.524 137.985 121.524ZM137.594 130.288C138.459 130.288 139.235 130.046 139.923 129.56L136.918 126.751C136.361 127.071 135.964 127.385 135.727 127.693C135.49 128.001 135.372 128.351 135.372 128.742C135.372 129.204 135.573 129.577 135.976 129.862C136.379 130.146 136.918 130.288 137.594 130.288ZM155.256 132.457C154.047 132.457 152.957 132.185 151.985 131.64C151.013 131.083 150.249 130.318 149.692 129.346C149.134 128.363 148.856 127.254 148.856 126.022C148.856 124.789 149.134 123.687 149.692 122.715C150.249 121.731 151.013 120.967 151.985 120.422C152.969 119.865 154.065 119.586 155.274 119.586C156.293 119.586 157.217 119.776 158.047 120.155C158.889 120.534 159.588 121.08 160.145 121.791L158.385 123.497C157.579 122.525 156.589 122.04 155.416 122.04C154.681 122.04 154.023 122.211 153.443 122.555C152.874 122.887 152.429 123.355 152.109 123.96C151.789 124.564 151.629 125.251 151.629 126.022C151.629 126.792 151.789 127.48 152.109 128.084C152.429 128.688 152.874 129.163 153.443 129.506C154.023 129.838 154.681 130.004 155.416 130.004C156.589 130.004 157.579 129.512 158.385 128.528L160.145 130.235C159.588 130.958 158.889 131.509 158.047 131.888C157.217 132.268 156.287 132.457 155.256 132.457ZM165.318 132.386C164.358 132.386 163.499 132.179 162.74 131.764C161.982 131.337 161.383 130.751 160.945 130.004C160.518 129.257 160.305 128.41 160.305 127.462C160.305 126.514 160.518 125.666 160.945 124.92C161.383 124.173 161.982 123.592 162.74 123.177C163.499 122.751 164.358 122.537 165.318 122.537C166.266 122.537 167.12 122.751 167.878 123.177C168.637 123.592 169.229 124.173 169.656 124.92C170.083 125.666 170.296 126.514 170.296 127.462C170.296 128.41 170.083 129.257 169.656 130.004C169.229 130.751 168.637 131.337 167.878 131.764C167.12 132.179 166.266 132.386 165.318 132.386ZM165.318 130.111C165.994 130.111 166.545 129.874 166.971 129.4C167.41 128.914 167.629 128.268 167.629 127.462C167.629 126.656 167.41 126.016 166.971 125.542C166.545 125.056 165.994 124.813 165.318 124.813C164.643 124.813 164.086 125.056 163.647 125.542C163.208 126.016 162.989 126.656 162.989 127.462C162.989 128.268 163.208 128.914 163.647 129.4C164.086 129.874 164.643 130.111 165.318 130.111ZM177.212 122.537C178.35 122.537 179.263 122.893 179.95 123.604C180.638 124.315 180.981 125.37 180.981 126.768V132.244H178.35V127.195C178.35 126.437 178.19 125.874 177.87 125.506C177.55 125.127 177.094 124.937 176.501 124.937C175.838 124.937 175.31 125.157 174.919 125.595C174.528 126.022 174.332 126.662 174.332 127.515V132.244H171.683V122.68H174.208V123.8C174.563 123.397 174.996 123.088 175.506 122.875C176.027 122.65 176.596 122.537 177.212 122.537ZM188.525 122.537C189.663 122.537 190.575 122.893 191.263 123.604C191.95 124.315 192.294 125.37 192.294 126.768V132.244H189.663V127.195C189.663 126.437 189.503 125.874 189.183 125.506C188.863 125.127 188.406 124.937 187.814 124.937C187.15 124.937 186.623 125.157 186.232 125.595C185.84 126.022 185.645 126.662 185.645 127.515V132.244H182.996V122.68H185.52V123.8C185.876 123.397 186.309 123.088 186.818 122.875C187.34 122.65 187.909 122.537 188.525 122.537ZM203.215 127.497C203.215 127.533 203.197 127.782 203.162 128.244H196.3C196.43 128.837 196.72 129.305 197.171 129.648C197.633 129.992 198.208 130.164 198.895 130.164C199.369 130.164 199.784 130.093 200.14 129.951C200.507 129.797 200.851 129.56 201.171 129.24L202.575 130.84C201.71 131.871 200.46 132.386 198.824 132.386C197.793 132.386 196.88 132.179 196.086 131.764C195.304 131.337 194.7 130.751 194.273 130.004C193.846 129.257 193.633 128.41 193.633 127.462C193.633 126.525 193.84 125.684 194.255 124.937C194.682 124.179 195.263 123.592 195.997 123.177C196.744 122.751 197.574 122.537 198.486 122.537C199.375 122.537 200.175 122.739 200.886 123.142C201.609 123.545 202.178 124.125 202.593 124.884C203.008 125.631 203.215 126.502 203.215 127.497ZM198.504 124.635C197.911 124.635 197.408 124.813 196.993 125.168C196.59 125.524 196.347 126.01 196.264 126.626H200.726C200.631 126.022 200.383 125.542 199.98 125.186C199.588 124.819 199.097 124.635 198.504 124.635ZM208.996 132.386C208.025 132.386 207.153 132.179 206.383 131.764C205.613 131.337 205.008 130.751 204.57 130.004C204.143 129.257 203.93 128.41 203.93 127.462C203.93 126.514 204.143 125.666 204.57 124.92C205.008 124.173 205.613 123.592 206.383 123.177C207.153 122.751 208.025 122.537 208.996 122.537C209.956 122.537 210.792 122.751 211.503 123.177C212.214 123.592 212.736 124.191 213.068 124.973L211.023 126.128C210.561 125.251 209.879 124.813 208.979 124.813C208.291 124.813 207.722 125.05 207.272 125.524C206.833 125.998 206.614 126.644 206.614 127.462C206.614 128.28 206.833 128.925 207.272 129.4C207.722 129.874 208.291 130.111 208.979 130.111C209.891 130.111 210.573 129.672 211.023 128.795L213.068 129.968C212.736 130.739 212.214 131.337 211.503 131.764C210.792 132.179 209.956 132.386 208.996 132.386ZM220.456 131.782C220.196 131.983 219.876 132.137 219.496 132.244C219.129 132.339 218.732 132.386 218.305 132.386C217.227 132.386 216.391 132.096 215.799 131.515C215.206 130.934 214.91 130.081 214.91 128.955V125.026H213.523V122.893H214.91V120.564H217.559V122.893H219.816V125.026H217.559V128.92C217.559 129.323 217.653 129.637 217.843 129.862C218.045 130.075 218.323 130.182 218.679 130.182C219.093 130.182 219.449 130.063 219.745 129.826L220.456 131.782Z" fill="#BAFF00"/>
<path d="M89.3919 156.614V155.199H92.3785V153.97H94.1052V155.199H97.123V156.614H89.3919ZM101.37 158.979H99.8763V163.132H98.1963V154.188H99.8763V157.252H101.37V158.979ZM93.2496 162.059C92.2645 162.059 91.4504 161.841 90.8074 161.406C90.1645 160.97 89.843 160.368 89.843 159.601C89.843 158.834 90.1645 158.232 90.8074 157.797C91.4504 157.361 92.2645 157.143 93.2496 157.143C94.2348 157.143 95.0489 157.361 95.6919 157.797C96.3452 158.232 96.6719 158.834 96.6719 159.601C96.6719 160.368 96.3452 160.97 95.6919 161.406C95.0489 161.841 94.2348 162.059 93.2496 162.059ZM93.2496 158.466C92.7 158.466 92.2593 158.574 91.9274 158.792C91.6059 159 91.4452 159.269 91.4452 159.601C91.4452 159.933 91.6059 160.208 91.9274 160.426C92.2593 160.633 92.7 160.737 93.2496 160.737C93.7993 160.737 94.2348 160.633 94.5563 160.426C94.8882 160.208 95.0541 159.933 95.0541 159.601C95.0541 159.269 94.8882 159 94.5563 158.792C94.2348 158.574 93.7993 158.466 93.2496 158.466ZM100.141 164.486V166.041H90.1696V162.619H91.8808V164.486H100.141ZM102.504 155.79V154.281H112.381V158.31H110.67V155.79H102.504ZM108.306 162.106H112.428V166.197H110.717V163.614H102.426V162.106H106.61V160.426H101.757V158.917H113.159V160.426H108.306V162.106ZM117.851 161.857V154.514H119.516V156.583H126.189V154.514H127.854V161.857H117.851ZM126.189 158.139H119.516V160.27H126.189V158.139ZM128.554 165.621H117.151V163.972H128.554V165.621ZM135.894 163.132V154.25H137.465V157.237H138.959V154.188H140.545V163.334H138.959V158.823H137.465V163.132H135.894ZM135.225 161.25C134.541 161.54 133.53 161.686 132.192 161.686H129.765V157.33H133.125V155.883H129.765V154.421H134.681V158.714H131.321V160.223H132.301C133.587 160.223 134.562 160.083 135.225 159.803V161.25ZM140.779 166.041H130.419V162.51H132.13V164.454H140.779V166.041ZM144.215 156.21V160.114H152.63V161.748H142.488V154.561H152.506V156.21H144.215ZM141.788 165.621V163.972H153.19V165.621H141.788ZM164.575 160.441V166.134H162.895V154.188H164.575V158.73H166.038V160.441H164.575ZM158.695 163.832C160.22 163.832 161.345 163.666 162.071 163.334V164.999C161.687 165.154 161.195 165.274 160.593 165.357C160.002 165.44 159.349 165.481 158.633 165.481H154.107V163.832H157V161.717C156.212 161.54 155.574 161.126 155.087 160.472C154.609 159.819 154.371 159.026 154.371 158.092C154.371 157.366 154.516 156.723 154.807 156.163C155.107 155.593 155.522 155.152 156.051 154.841C156.58 154.53 157.181 154.374 157.855 154.374C158.519 154.374 159.115 154.53 159.644 154.841C160.184 155.152 160.604 155.593 160.904 156.163C161.205 156.723 161.355 157.366 161.355 158.092C161.355 159.026 161.112 159.819 160.624 160.472C160.137 161.126 159.494 161.54 158.695 161.717V163.832ZM157.855 155.961C157.285 155.961 156.829 156.163 156.487 156.568C156.155 156.962 155.989 157.47 155.989 158.092C155.989 158.714 156.155 159.228 156.487 159.632C156.829 160.026 157.285 160.223 157.855 160.223C158.415 160.223 158.867 160.021 159.209 159.617C159.561 159.212 159.738 158.704 159.738 158.092C159.738 157.48 159.561 156.972 159.209 156.568C158.867 156.163 158.415 155.961 157.855 155.961ZM81.011 176.408C80.4406 176.833 79.7251 177.165 78.8643 177.403C78.0139 177.631 77.1117 177.756 76.1576 177.777V176.377C77.1117 176.356 78.0036 176.195 78.8332 175.894C79.6732 175.583 80.2176 175.174 80.4665 174.666H76.3132V173.281H86.2688V174.666H82.3176C82.3073 174.873 82.2399 175.08 82.1154 175.288L86.5643 176.47L86.1599 177.823L81.011 176.408ZM82.131 180.763C83.4273 180.826 84.4539 181.033 85.211 181.386C85.9784 181.728 86.3621 182.257 86.3621 182.972C86.3621 183.76 85.9006 184.331 84.9776 184.683C84.0651 185.036 82.8362 185.212 81.291 185.212C79.7458 185.212 78.5117 185.036 77.5888 184.683C76.6762 184.331 76.2199 183.76 76.2199 182.972C76.2199 182.257 76.5984 181.728 77.3554 181.386C78.1228 181.033 79.1547 180.826 80.451 180.763V179.861H75.5821V178.461H86.9843V179.861H82.131V180.763ZM84.5576 182.972C84.5576 182.661 84.2569 182.438 83.6554 182.303C83.0643 182.168 82.2762 182.101 81.291 182.101C79.1028 182.101 78.0088 182.391 78.0088 182.972C78.0088 183.283 78.3095 183.511 78.911 183.657C79.5125 183.791 80.3058 183.859 81.291 183.859C82.2658 183.859 83.0539 183.791 83.6554 183.657C84.2569 183.511 84.5576 183.283 84.5576 182.972ZM88.6471 174.79V173.281H98.5249V177.31H96.8138V174.79H88.6471ZM94.4493 181.106H98.5716V185.197H96.8605V182.614H88.5693V181.106H92.7538V179.426H87.9005V177.917H99.3027V179.426H94.4493V181.106ZM108.879 177.31C108.226 178.316 107.428 179.109 106.484 179.69C105.551 180.271 104.565 180.561 103.528 180.561V178.881C104.316 178.881 105.068 178.637 105.784 178.15C106.499 177.652 107.111 176.973 107.619 176.112C108.128 175.241 108.465 174.271 108.631 173.203L110.357 173.499C110.191 174.422 109.958 175.226 109.657 175.91L114.542 179.161L113.655 180.592L108.879 177.31ZM114.697 182.972V184.621H103.295V182.972H108.148V179.892H109.844V182.972H114.697ZM126.378 185.134H124.698V173.188H126.378V185.134ZM122.769 173.514V184.481H116.22V173.514H117.884V177.388H121.104V173.514H122.769ZM121.104 179.006H117.884V182.863H121.104V179.006ZM138.369 179.55V185.134H136.689V173.188H138.369V177.839H139.863V179.55H138.369ZM132.816 175.179C132.785 176.465 132.676 177.631 132.489 178.679L135.989 183.361L134.652 184.403L131.929 180.67C131.515 181.831 130.975 182.739 130.312 183.392C129.648 184.046 128.896 184.408 128.056 184.481V182.708C128.668 182.604 129.202 182.226 129.658 181.572C130.115 180.908 130.467 180.027 130.716 178.928C130.965 177.828 131.095 176.579 131.105 175.179H128.336V173.561H135.476V175.179H132.816ZM142.677 176.066V176.797H151.03V177.87H141.043V175.086H149.272V174.354H141.028V173.281H150.906V176.066H142.677ZM140.25 179.783V178.57H151.652V179.783H140.25ZM142.63 183.237V183.968H151.092V185.041H140.997V182.272H149.303V181.572H140.966V180.483H150.937V183.237H142.63ZM164.729 181.354V173.188H166.409V181.354H164.729ZM159.347 180.001C158.631 180.001 157.999 179.856 157.449 179.566C156.899 179.275 156.474 178.876 156.173 178.368C155.873 177.86 155.722 177.279 155.722 176.626C155.722 175.983 155.873 175.407 156.173 174.899C156.474 174.391 156.899 173.991 157.449 173.701C157.999 173.411 158.631 173.266 159.347 173.266C160.062 173.266 160.695 173.411 161.245 173.701C161.794 173.991 162.219 174.391 162.52 174.899C162.821 175.407 162.971 175.983 162.971 176.626C162.971 177.279 162.821 177.86 162.52 178.368C162.219 178.876 161.794 179.275 161.245 179.566C160.695 179.856 160.062 180.001 159.347 180.001ZM159.347 174.743C158.776 174.743 158.31 174.914 157.947 175.257C157.584 175.599 157.402 176.055 157.402 176.626C157.402 177.206 157.584 177.668 157.947 178.01C158.31 178.352 158.776 178.523 159.347 178.523C159.928 178.523 160.399 178.352 160.762 178.01C161.125 177.668 161.307 177.206 161.307 176.626C161.307 176.055 161.125 175.599 160.762 175.257C160.399 174.914 159.928 174.743 159.347 174.743ZM161.447 183.05C160.856 183.683 160.13 184.175 159.269 184.528C158.408 184.87 157.511 185.041 156.578 185.041V183.377C157.293 183.366 157.968 183.242 158.6 183.003C159.233 182.754 159.772 182.402 160.218 181.946C160.664 181.479 160.959 180.934 161.105 180.312L162.785 180.623C162.681 181.059 162.551 181.443 162.396 181.774L166.922 183.641L166.3 185.197L161.447 183.05ZM178.712 176.377V177.87H168.741V173.157H170.436V176.377H178.712ZM167.963 180.53V179.021H179.365V180.53H167.963ZM178.805 183.548V185.041H168.71V181.432H170.421V183.548H178.805ZM106.44 204.134H104.76V198.519H102.147C101.898 199.556 101.473 200.448 100.871 201.194C100.28 201.931 99.5696 202.491 98.7399 202.874C97.9103 203.258 97.0133 203.455 96.0488 203.466V201.801C97.1481 201.801 98.0814 201.511 98.8488 200.93C99.6162 200.349 100.155 199.509 100.467 198.41H96.0488V196.792H100.731C100.741 196.647 100.747 196.419 100.747 196.108V194.179H96.0488V192.561H102.427V195.999C102.427 196.206 102.416 196.497 102.395 196.87H104.76V192.188H106.44V204.134ZM118.758 204.134H117.078V198.519H114.869V203.481H108.461V192.561H114.869V196.87H117.078V192.188H118.758V204.134ZM110.156 194.21V201.832H113.189V194.21H110.156ZM125.819 196.388C125.155 197.425 124.351 198.244 123.408 198.846C122.474 199.437 121.494 199.737 120.468 199.748V198.068C121.246 198.068 121.992 197.808 122.708 197.29C123.434 196.771 124.051 196.066 124.559 195.174C125.067 194.283 125.404 193.292 125.57 192.203L127.297 192.499C127.131 193.443 126.887 194.272 126.566 194.988L131.497 198.379L130.594 199.794L125.819 196.388ZM131.637 201.972V203.621H120.234V201.972H131.637ZM135.956 195.501V193.868H138.787V192.141H140.498V193.868H143.313V195.501H135.956ZM146.471 204.134H144.776V198.721H143.096V197.041H144.776V192.188H146.471V204.134ZM139.627 196.263C140.259 196.263 140.819 196.424 141.307 196.746C141.794 197.057 142.173 197.492 142.442 198.052C142.712 198.612 142.847 199.245 142.847 199.95C142.847 200.655 142.712 201.288 142.442 201.848C142.173 202.408 141.794 202.843 141.307 203.154C140.819 203.466 140.259 203.621 139.627 203.621C138.994 203.621 138.434 203.466 137.947 203.154C137.47 202.843 137.096 202.408 136.827 201.848C136.557 201.288 136.422 200.655 136.422 199.95C136.422 199.245 136.557 198.612 136.827 198.052C137.096 197.492 137.47 197.057 137.947 196.746C138.434 196.424 138.994 196.263 139.627 196.263ZM139.627 202.097C140.093 202.097 140.477 201.9 140.778 201.506C141.079 201.111 141.229 200.593 141.229 199.95C141.229 199.297 141.079 198.778 140.778 198.394C140.487 198 140.104 197.803 139.627 197.803C139.16 197.803 138.776 198 138.476 198.394C138.185 198.778 138.04 199.297 138.04 199.95C138.04 200.593 138.185 201.111 138.476 201.506C138.776 201.9 139.16 202.097 139.627 202.097ZM148.647 199.857V192.514H150.312V194.583H156.985V192.514H158.65V199.857H148.647ZM156.985 196.139H150.312V198.27H156.985V196.139ZM159.35 203.621H147.947V201.972H159.35V203.621Z" fill="#BAFF00"/>
<rect x="0.384037" y="223.385" width="254.232" height="254.232" rx="127.116" stroke="white" stroke-width="0.768074"/>
<path d="M127.48 270.978H99.9805V324.978H113.583V284.334H127.427H127.534C132.006 284.334 135.969 286.437 138.513 289.671C140.307 291.958 141.378 294.85 141.378 297.978V324.978H154.98V297.978C154.98 283.072 142.663 270.978 127.48 270.978Z" fill="white"/>
<path d="M102.314 355.34H100.056L94.172 347.784V355.34H91.4698V342.895H93.7276L99.612 350.451V342.895H102.314V355.34ZM113.035 350.593C113.035 350.629 113.018 350.877 112.982 351.34H106.12C106.25 351.932 106.541 352.4 106.991 352.744C107.453 353.088 108.028 353.26 108.715 353.26C109.19 353.26 109.604 353.189 109.96 353.046C110.327 352.892 110.671 352.655 110.991 352.335L112.395 353.935C111.53 354.966 110.28 355.482 108.644 355.482C107.613 355.482 106.701 355.274 105.907 354.86C105.124 354.433 104.52 353.846 104.093 353.1C103.667 352.353 103.453 351.506 103.453 350.557C103.453 349.621 103.661 348.78 104.075 348.033C104.502 347.274 105.083 346.688 105.818 346.273C106.564 345.846 107.394 345.633 108.307 345.633C109.195 345.633 109.995 345.834 110.707 346.237C111.43 346.64 111.998 347.221 112.413 347.98C112.828 348.726 113.035 349.597 113.035 350.593ZM108.324 347.731C107.732 347.731 107.228 347.909 106.813 348.264C106.41 348.62 106.167 349.106 106.084 349.722H110.547C110.452 349.117 110.203 348.637 109.8 348.282C109.409 347.914 108.917 347.731 108.324 347.731ZM120.292 354.877C120.032 355.079 119.712 355.233 119.332 355.34C118.965 355.434 118.568 355.482 118.141 355.482C117.063 355.482 116.227 355.192 115.635 354.611C115.042 354.03 114.746 353.177 114.746 352.051V348.122H113.359V345.989H114.746V343.66H117.395V345.989H119.652V348.122H117.395V352.015C117.395 352.418 117.489 352.732 117.679 352.957C117.88 353.171 118.159 353.277 118.515 353.277C118.929 353.277 119.285 353.159 119.581 352.922L120.292 354.877ZM133.076 355.34H130.534L128.507 349.402L126.392 355.34H123.849L120.578 345.775H123.067L125.201 352.246L127.441 345.775H129.663L131.832 352.246L134.036 345.775H136.365L133.076 355.34ZM141.576 355.482C140.616 355.482 139.757 355.274 138.998 354.86C138.24 354.433 137.641 353.846 137.203 353.1C136.776 352.353 136.563 351.506 136.563 350.557C136.563 349.609 136.776 348.762 137.203 348.015C137.641 347.269 138.24 346.688 138.998 346.273C139.757 345.846 140.616 345.633 141.576 345.633C142.524 345.633 143.377 345.846 144.136 346.273C144.894 346.688 145.487 347.269 145.914 348.015C146.34 348.762 146.554 349.609 146.554 350.557C146.554 351.506 146.34 352.353 145.914 353.1C145.487 353.846 144.894 354.433 144.136 354.86C143.377 355.274 142.524 355.482 141.576 355.482ZM141.576 353.206C142.251 353.206 142.803 352.969 143.229 352.495C143.668 352.009 143.887 351.363 143.887 350.557C143.887 349.752 143.668 349.112 143.229 348.637C142.803 348.152 142.251 347.909 141.576 347.909C140.9 347.909 140.343 348.152 139.905 348.637C139.466 349.112 139.247 349.752 139.247 350.557C139.247 351.363 139.466 352.009 139.905 352.495C140.343 352.969 140.9 353.206 141.576 353.206ZM150.466 347.037C150.786 346.575 151.212 346.226 151.746 345.989C152.279 345.752 152.895 345.633 153.595 345.633V348.193C153.286 348.169 153.085 348.157 152.99 348.157C152.243 348.157 151.657 348.383 151.23 348.833C150.803 349.272 150.59 349.935 150.59 350.824V355.34H147.941V345.775H150.466V347.037ZM157.512 352.904V355.34H154.863V342.149H157.512V349.615L161.352 345.775H164.499L160.712 349.829L164.836 355.34H161.636L158.774 351.589L157.512 352.904Z" fill="white"/>
<path d="M56.9337 379.695V378.31H59.9048V377.066H61.6314V378.31H64.2914V379.695H56.9337ZM64.6337 384.128V382.635H66.1114V381.25H64.6337V379.757H66.1114V377.283H67.7759V386.212H66.1114V384.128H64.6337ZM60.7759 385.155C59.8114 385.155 59.0129 384.937 58.3803 384.501C57.7477 384.066 57.4314 383.464 57.4314 382.697C57.4314 381.919 57.7425 381.317 58.3648 380.892C58.9974 380.457 59.8011 380.239 60.7759 380.239C61.7507 380.239 62.5492 380.457 63.1714 380.892C63.804 381.317 64.1203 381.919 64.1203 382.697C64.1203 383.464 63.804 384.066 63.1714 384.501C62.5388 384.937 61.7403 385.155 60.7759 385.155ZM60.7759 381.546C60.2366 381.546 59.8114 381.655 59.5003 381.872C59.1892 382.09 59.0337 382.365 59.0337 382.697C59.0337 383.029 59.1892 383.303 59.5003 383.521C59.8114 383.729 60.2366 383.832 60.7759 383.832C61.3048 383.832 61.7248 383.729 62.0359 383.521C62.347 383.303 62.5025 383.029 62.5025 382.697C62.5025 382.365 62.347 382.09 62.0359 381.872C61.7248 381.655 61.3048 381.546 60.7759 381.546ZM67.9937 389.137H57.9137V385.637H59.6092V387.581H67.9937V389.137ZM80.0165 389.23H78.3365V377.283H80.0165V389.23ZM74.3076 379.275C74.2765 380.643 74.1676 381.805 73.9809 382.759L77.5276 387.457L76.2053 388.499L73.4365 384.735C73.0113 385.906 72.4616 386.824 71.7876 387.488C71.1135 388.141 70.3513 388.504 69.5009 388.577V386.803C70.1128 386.7 70.6468 386.321 71.1031 385.668C71.5698 385.004 71.9328 384.123 72.192 383.023C72.4513 381.924 72.5913 380.675 72.612 379.275H69.7809V377.657H77.0453V379.275H74.3076ZM94.1354 383.366V377.283H95.7221V383.366H94.1354ZM89.531 380.223V378.668H91.2888V377.346H92.8443V383.241H91.2888V380.223H89.531ZM87.6332 381.297C86.9384 382.437 85.9377 383.101 84.631 383.288V381.732C86.1762 381.307 86.9488 379.86 86.9488 377.392L88.551 377.455C88.551 378.429 88.4525 379.238 88.2554 379.881L90.8843 381.966L89.9199 383.195L87.6332 381.297ZM95.9399 389.137H85.5954V385.995H94.0732V385.217H85.5643V383.926H95.7221V387.052H87.2443V387.846H95.9399V389.137ZM107.807 383.941H106.127V380.892H104.369V379.275H106.127V377.283H107.807V383.941ZM102.052 378.87H97.3538V377.517H103.716V381.281H99.0493V382.432H101.725C102.399 382.432 103.016 382.391 103.576 382.308C104.136 382.225 104.587 382.111 104.929 381.966V383.288C104.608 383.443 104.157 383.568 103.576 383.661C102.995 383.744 102.347 383.786 101.632 383.786H97.3849V380.006H102.052V378.87ZM107.776 384.423V389.137H97.9449V384.423H99.6093V385.403H106.112V384.423H107.776ZM106.112 386.741H99.6093V387.752H106.112V386.741ZM110.699 386.43C111.041 386.43 111.321 386.544 111.539 386.772C111.757 386.99 111.865 387.27 111.865 387.612C111.865 387.789 111.845 387.96 111.803 388.126C111.762 388.292 111.679 388.53 111.554 388.841L110.777 391.035H109.594L110.217 388.67C109.999 388.587 109.823 388.452 109.688 388.266C109.563 388.079 109.501 387.861 109.501 387.612C109.501 387.27 109.615 386.99 109.843 386.772C110.071 386.544 110.357 386.43 110.699 386.43ZM116.702 381.561V380.286H118.6V378.637H116.827V377.377H126.72V378.637H124.931V380.286H126.829V381.561H116.702ZM123.267 380.286V378.637H120.28V380.286H123.267ZM127.467 383.661H116.065V382.355H127.467V383.661ZM126.907 388.001V389.137H116.811V386.29H125.087V385.575H116.78V384.439H126.751V387.286H118.46V388.001H126.907ZM134.807 384.61V377.346H136.378V379.99H137.872V377.283H139.458V385.715H137.872V381.623H136.378V384.61H134.807ZM134.138 383.988C133.454 384.278 132.443 384.423 131.105 384.423H128.678V380.286H132.038V378.932H128.678V377.517H133.594V381.623H130.234V382.992H131.214C132.5 382.992 133.475 382.852 134.138 382.572V383.988ZM134.278 387.41C133.667 387.97 132.915 388.395 132.023 388.686C131.131 388.976 130.193 389.126 129.207 389.137V387.535C129.954 387.524 130.664 387.415 131.338 387.208C132.023 386.99 132.604 386.684 133.081 386.29C133.558 385.886 133.864 385.409 133.998 384.859L135.647 385.232C135.595 385.492 135.487 385.797 135.321 386.15L139.987 387.752L139.412 389.292L134.278 387.41ZM152.103 384.315H140.701V382.946H145.57V381.966H141.339V380.597H143.237V378.73H141.463V377.377H151.357V378.73H149.568V380.597H151.466V381.966H147.25V382.946H152.103V384.315ZM147.903 380.597V378.73H144.917V380.597H147.903ZM151.372 385.201V389.137H141.448V385.201H151.372ZM149.692 387.799V386.539H143.112V387.799H149.692ZM154.435 386.43C154.777 386.43 155.057 386.544 155.275 386.772C155.493 386.99 155.602 387.27 155.602 387.612C155.602 387.789 155.581 387.96 155.54 388.126C155.498 388.292 155.415 388.53 155.291 388.841L154.513 391.035H153.331L153.953 388.67C153.735 388.587 153.559 388.452 153.424 388.266C153.3 388.079 153.237 387.861 153.237 387.612C153.237 387.27 153.351 386.99 153.58 386.772C153.808 386.544 154.093 386.43 154.435 386.43ZM170.099 381.11L166.568 387.426H165.759L162.228 381.203V388.701H160.563V377.812H162.025L166.194 385.201L170.316 377.812H171.779L171.794 388.701H170.114L170.099 381.11ZM178.936 388.841C177.899 388.841 176.961 388.603 176.121 388.126C175.281 387.638 174.617 386.969 174.13 386.119C173.653 385.269 173.414 384.315 173.414 383.257C173.414 382.199 173.653 381.245 174.13 380.395C174.617 379.544 175.281 378.88 176.121 378.403C176.961 377.916 177.905 377.672 178.952 377.672C179.792 377.672 180.554 377.823 181.239 378.123C181.934 378.424 182.519 378.865 182.996 379.446L181.861 380.566C181.094 379.705 180.15 379.275 179.03 379.275C178.304 379.275 177.651 379.446 177.07 379.788C176.489 380.13 176.033 380.607 175.701 381.219C175.379 381.82 175.219 382.5 175.219 383.257C175.219 384.014 175.379 384.698 175.701 385.31C176.033 385.912 176.489 386.383 177.07 386.726C177.651 387.068 178.304 387.239 179.03 387.239C180.15 387.239 181.094 386.803 181.861 385.932L182.996 387.052C182.519 387.643 181.934 388.089 181.239 388.39C180.544 388.691 179.776 388.841 178.936 388.841ZM193.56 388.701H192.097L186.233 381.017V388.701H184.475V377.812H185.937L191.802 385.497V377.812H193.56V388.701ZM196.64 386.43C196.982 386.43 197.262 386.544 197.48 386.772C197.698 386.99 197.807 387.27 197.807 387.612C197.807 387.789 197.786 387.96 197.745 388.126C197.703 388.292 197.62 388.53 197.496 388.841L196.718 391.035H195.536L196.158 388.67C195.94 388.587 195.764 388.452 195.629 388.266C195.505 388.079 195.442 387.861 195.442 387.612C195.442 387.27 195.557 386.99 195.785 386.772C196.013 386.544 196.298 386.43 196.64 386.43ZM66.642 408.23H65.0554V396.283H66.642V408.23ZM63.7331 396.346V408.028H62.1465V402.381H60.4976V400.717H62.1465V396.346H63.7331ZM59.362 398.259C59.3517 399.503 59.2894 400.623 59.1754 401.619L61.8665 406.612L60.5287 407.406L58.6931 403.952C58.102 406.182 57.0805 407.39 55.6287 407.577V405.85C56.3028 405.684 56.8213 404.932 57.1842 403.595C57.5472 402.257 57.7391 400.478 57.7598 398.259H55.8309V396.657H61.1976V398.259H59.362ZM78.3226 400.328V403.408H76.6426V396.283H78.3226V398.632H79.8159V400.328H78.3226ZM71.8048 400.826C71.39 401.479 70.8559 402.008 70.2026 402.412C69.5596 402.817 68.8389 403.055 68.0404 403.128V401.526C68.9011 401.422 69.5908 401.054 70.1093 400.421C70.6382 399.778 70.9441 398.98 71.027 398.026H68.1959V396.517H75.4448V398.026H72.7382C72.707 398.565 72.6241 399.032 72.4893 399.426L75.787 401.728L74.9159 403.035L71.8048 400.826ZM78.3226 403.968V408.292H76.6115V405.492H68.5382V403.968H78.3226ZM92.3638 405.15V396.283H94.0438V405.15H92.3638ZM86.9816 396.361C87.7075 396.361 88.3453 396.512 88.8949 396.812C89.4549 397.103 89.8853 397.517 90.186 398.057C90.4868 398.586 90.6371 399.192 90.6371 399.877C90.6371 400.561 90.4868 401.173 90.186 401.712C89.8853 402.241 89.4549 402.656 88.8949 402.957C88.3453 403.247 87.7075 403.392 86.9816 403.392C86.2557 403.392 85.6127 403.247 85.0527 402.957C84.5031 402.656 84.0779 402.241 83.7771 401.712C83.4764 401.173 83.326 400.561 83.326 399.877C83.326 399.192 83.4764 398.586 83.7771 398.057C84.0779 397.517 84.5031 397.103 85.0527 396.812C85.6127 396.512 86.2557 396.361 86.9816 396.361ZM86.9816 397.855C86.4008 397.855 85.929 398.036 85.566 398.399C85.2031 398.752 85.0216 399.244 85.0216 399.877C85.0216 400.509 85.2031 401.007 85.566 401.37C85.929 401.733 86.4008 401.915 86.9816 401.915C87.5727 401.915 88.0497 401.733 88.4127 401.37C88.7757 401.007 88.9571 400.509 88.9571 399.877C88.9571 399.244 88.7757 398.752 88.4127 398.399C88.0497 398.036 87.5727 397.855 86.9816 397.855ZM94.2927 406.55V408.137H84.3371V404.123H86.0482V406.55H94.2927ZM96.1733 403.859V402.226H98.0711V398.337H96.2822V396.703H106.331V398.337H104.542V402.226H106.44V403.859H96.1733ZM102.862 402.226V398.337H99.7511V402.226H102.862ZM107 407.717H95.5977V406.052H107V407.717ZM118.354 402.646V408.23H116.674V396.283H118.354V400.935H119.847V402.646H118.354ZM112.941 405.99C113.48 405.99 114.019 405.938 114.558 405.835C115.098 405.731 115.538 405.591 115.881 405.415V407.001C115.538 407.177 115.092 407.317 114.543 407.421C113.993 407.525 113.438 407.577 112.878 407.577H108.398V401.261H113.065V398.259H108.367V396.657H114.745V402.848H110.063V405.99H112.941ZM132.473 396.283H134.153V405.15H132.473V400.546H130.528V399.006H132.473V396.283ZM127.339 401.012C126.914 401.738 126.375 402.324 125.722 402.77C125.068 403.206 124.342 403.455 123.544 403.517V401.915C124.394 401.8 125.084 401.391 125.613 400.686C126.142 399.98 126.448 399.099 126.531 398.041H123.684V396.517H130.933V398.041H128.226C128.216 398.518 128.138 399.032 127.993 399.581L131.322 402.148L130.373 403.423L127.339 401.012ZM134.355 408.137H124.291V404.186H126.002V406.55H134.355V408.137ZM147.56 400.686H146.067V405.15H144.387V396.283H146.067V398.975H147.56V400.686ZM135.971 403.299V396.47H137.636V398.321H141.073V396.47H142.722V403.299H135.971ZM141.073 399.783H137.636V401.79H141.073V399.783ZM146.331 406.55V408.137H136.36V404.201H138.071V406.55H146.331ZM153.656 396.175C155.191 396.175 156.415 396.351 157.327 396.703C158.24 397.046 158.696 397.6 158.696 398.368C158.696 399.135 158.24 399.695 157.327 400.048C156.415 400.4 155.191 400.577 153.656 400.577C152.121 400.577 150.893 400.4 149.97 400.048C149.047 399.695 148.585 399.135 148.585 398.368C148.585 397.6 149.041 397.046 149.954 396.703C150.877 396.351 152.111 396.175 153.656 396.175ZM153.656 397.481C152.661 397.481 151.862 397.554 151.261 397.699C150.67 397.844 150.374 398.067 150.374 398.368C150.374 398.679 150.67 398.907 151.261 399.052C151.862 399.197 152.661 399.27 153.656 399.27C154.652 399.27 155.445 399.197 156.036 399.052C156.627 398.907 156.923 398.679 156.923 398.368C156.923 398.067 156.627 397.844 156.036 397.699C155.445 397.554 154.652 397.481 153.656 397.481ZM147.947 402.521V401.183H159.35V402.521H147.947ZM150.358 406.192V406.939H158.79V408.137H148.694V405.197H156.97V404.466H148.663V403.299H158.634V406.192H150.358ZM174.744 407.717H163.342V406.068H168.195V403.719H164.042V396.61H165.706V398.508H172.38V396.61H174.044V403.719H169.891V406.068H174.744V407.717ZM172.38 402.117V400.079H165.706V402.117H172.38ZM181.369 402.755C180.342 402.755 179.44 402.63 178.662 402.381C177.895 402.122 177.299 401.749 176.874 401.261C176.459 400.774 176.251 400.198 176.251 399.535C176.251 398.871 176.459 398.3 176.874 397.823C177.299 397.336 177.895 396.968 178.662 396.719C179.44 396.46 180.342 396.33 181.369 396.33C182.396 396.33 183.293 396.46 184.06 396.719C184.838 396.968 185.434 397.336 185.849 397.823C186.274 398.3 186.487 398.871 186.487 399.535C186.487 400.198 186.274 400.774 185.849 401.261C185.434 401.749 184.838 402.122 184.06 402.381C183.293 402.63 182.396 402.755 181.369 402.755ZM181.369 397.901C180.363 397.901 179.549 398.046 178.927 398.337C178.315 398.617 178.009 399.016 178.009 399.535C178.009 400.053 178.315 400.457 178.927 400.748C179.549 401.038 180.363 401.183 181.369 401.183C182.375 401.183 183.184 401.038 183.796 400.748C184.408 400.457 184.714 400.053 184.714 399.535C184.714 399.016 184.402 398.617 183.78 398.337C183.168 398.046 182.365 397.901 181.369 397.901ZM184.434 405.352V408.51H182.754V405.352H179.985V408.51H178.305V405.352H175.66V403.719H187.062V405.352H184.434ZM187.932 398.71V397.295H190.919V396.066H192.645V397.295H195.663V398.71H187.932ZM199.91 401.075H198.416V405.228H196.736V396.283H198.416V399.348H199.91V401.075ZM191.79 404.155C190.805 404.155 189.99 403.937 189.347 403.501C188.705 403.066 188.383 402.464 188.383 401.697C188.383 400.929 188.705 400.328 189.347 399.892C189.99 399.457 190.805 399.239 191.79 399.239C192.775 399.239 193.589 399.457 194.232 399.892C194.885 400.328 195.212 400.929 195.212 401.697C195.212 402.464 194.885 403.066 194.232 403.501C193.589 403.937 192.775 404.155 191.79 404.155ZM191.79 400.561C191.24 400.561 190.799 400.67 190.467 400.888C190.146 401.095 189.985 401.365 189.985 401.697C189.985 402.029 190.146 402.303 190.467 402.521C190.799 402.729 191.24 402.832 191.79 402.832C192.339 402.832 192.775 402.729 193.096 402.521C193.428 402.303 193.594 402.029 193.594 401.697C193.594 401.365 193.428 401.095 193.096 400.888C192.775 400.67 192.339 400.561 191.79 400.561ZM198.681 406.581V408.137H188.71V404.715H190.421V406.581H198.681ZM98.6008 415.283H100.281V424.15H98.6008V419.546H96.6563V418.006H98.6008V415.283ZM93.4674 420.012C93.0422 420.738 92.503 421.324 91.8496 421.77C91.1963 422.206 90.4704 422.455 89.6719 422.517V420.915C90.5222 420.8 91.2119 420.391 91.7408 419.686C92.2696 418.98 92.5756 418.099 92.6585 417.041H89.8119V415.517H97.0608V417.041H94.3541C94.3437 417.518 94.2659 418.032 94.1208 418.581L97.4496 421.148L96.5008 422.423L93.4674 420.012ZM100.483 427.137H90.4185V423.186H92.1296V425.55H100.483V427.137ZM102.535 420.261V415.377H112.397V420.261H102.535ZM104.199 416.792V418.83H110.717V416.792H104.199ZM113.159 422.75H108.306V424.632H106.61V422.75H101.757V421.272H113.159V422.75ZM112.615 425.659V427.137H102.504V423.652H104.215V425.659H112.615ZM128.227 427.23H126.64V415.283H128.227V427.23ZM125.427 415.346V427.028H123.856V421.163H121.149V419.499H123.856V415.346H125.427ZM120.371 425.006C120.838 425.006 121.31 424.969 121.787 424.897C122.264 424.814 122.674 424.705 123.016 424.57V426.126C122.694 426.271 122.274 426.385 121.756 426.468C121.237 426.54 120.714 426.577 120.185 426.577H117.463V415.626H119.096V425.006H120.371ZM130.185 423.435V415.657H140.188V417.212H131.865V418.783H140.016V420.277H131.865V421.863H140.328V423.435H130.185ZM140.872 426.717H129.47V425.099H140.872V426.717ZM152.646 427.23H150.95V426.079H147.73V424.555H150.95V415.283H152.646V427.23ZM145.786 421.272C145.122 421.272 144.531 421.153 144.013 420.915C143.494 420.676 143.09 420.339 142.799 419.903C142.509 419.457 142.364 418.949 142.364 418.379C142.364 417.798 142.509 417.29 142.799 416.855C143.09 416.409 143.494 416.066 144.013 415.828C144.531 415.589 145.122 415.47 145.786 415.47C146.45 415.47 147.041 415.589 147.559 415.828C148.078 416.066 148.482 416.409 148.773 416.855C149.063 417.29 149.208 417.798 149.208 418.379C149.208 418.949 149.063 419.457 148.773 419.903C148.482 420.339 148.078 420.676 147.559 420.915C147.041 421.153 146.45 421.272 145.786 421.272ZM145.786 416.886C145.247 416.886 144.806 417.026 144.464 417.306C144.132 417.575 143.966 417.933 143.966 418.379C143.966 418.815 144.132 419.167 144.464 419.437C144.806 419.706 145.247 419.841 145.786 419.841C146.325 419.841 146.761 419.706 147.093 419.437C147.424 419.167 147.59 418.815 147.59 418.379C147.59 417.933 147.424 417.575 147.093 417.306C146.761 417.026 146.325 416.886 145.786 416.886ZM150.126 423.17C149.41 423.471 148.264 423.621 146.688 423.621H146.455V427.23H144.775V423.621H141.788V422.066H146.704C148.301 422.066 149.441 421.915 150.126 421.615V423.17ZM154.807 421.615V419.966H163.067V417.306H154.807V415.657H164.762V424.088H163.067V421.615H154.807ZM165.509 426.717H154.107V425.068H165.509V426.717Z" fill="white"/>
<rect x="0.384037" y="446.385" width="254.232" height="254.232" rx="127.116" stroke="#8423A4" stroke-width="0.768074"/>
<path d="M127.48 532.457L138.171 547.784H154.457L143.766 532.457C139.826 526.778 131.42 526.778 127.48 532.457Z" fill="#A523D0"/>
<path d="M154.457 493.784H138.171L135.623 497.438C130.738 504.458 130.738 513.764 135.623 520.784L154.457 493.784Z" fill="#A523D0"/>
<path d="M127.481 509.111L116.79 493.784H100.505L119.338 520.784L100.505 547.784H116.79L127.481 532.457C132.367 525.437 132.367 516.131 127.481 509.111Z" fill="#A523D0"/>
<path d="M89.4729 573.399C89.4729 573.434 89.4552 573.683 89.4196 574.145H82.5574C82.6877 574.738 82.9781 575.206 83.4285 575.55C83.8907 575.894 84.4655 576.065 85.1529 576.065C85.627 576.065 86.0418 575.994 86.3974 575.852C86.7648 575.698 87.1085 575.461 87.4285 575.141L88.8329 576.741C87.9677 577.772 86.7174 578.288 85.0818 578.288C84.0507 578.288 83.1381 578.08 82.344 577.665C81.5618 577.239 80.9574 576.652 80.5307 575.905C80.104 575.159 79.8907 574.311 79.8907 573.363C79.8907 572.427 80.0981 571.585 80.5129 570.839C80.9396 570.08 81.5203 569.494 82.2552 569.079C83.0018 568.652 83.8315 568.439 84.744 568.439C85.6329 568.439 86.4329 568.64 87.144 569.043C87.867 569.446 88.4359 570.027 88.8507 570.785C89.2655 571.532 89.4729 572.403 89.4729 573.399ZM84.7618 570.536C84.1692 570.536 83.6655 570.714 83.2507 571.07C82.8477 571.425 82.6048 571.911 82.5218 572.528H86.984C86.8892 571.923 86.6403 571.443 86.2374 571.088C85.8463 570.72 85.3544 570.536 84.7618 570.536ZM94.8377 573.825L92.0466 578.145H88.8999L93.2733 571.816L89.1133 565.701H92.2244L94.9444 569.736L97.6111 565.701H100.562L96.4555 571.71L100.847 578.145H97.6999L94.8377 573.825ZM107.047 568.439C107.888 568.439 108.653 568.646 109.34 569.061C110.027 569.464 110.567 570.039 110.958 570.785C111.361 571.52 111.562 572.379 111.562 573.363C111.562 574.347 111.361 575.212 110.958 575.959C110.567 576.694 110.027 577.268 109.34 577.683C108.653 578.086 107.888 578.288 107.047 578.288C105.885 578.288 104.973 577.902 104.309 577.132V581.594H101.66V568.581H104.184V569.683C104.836 568.854 105.79 568.439 107.047 568.439ZM106.584 576.012C107.26 576.012 107.811 575.775 108.238 575.301C108.676 574.815 108.896 574.169 108.896 573.363C108.896 572.557 108.676 571.917 108.238 571.443C107.811 570.957 107.26 570.714 106.584 570.714C105.909 570.714 105.352 570.957 104.913 571.443C104.487 571.917 104.273 572.557 104.273 573.363C104.273 574.169 104.487 574.815 104.913 575.301C105.352 575.775 105.909 576.012 106.584 576.012ZM121.879 573.399C121.879 573.434 121.861 573.683 121.826 574.145H114.964C115.094 574.738 115.384 575.206 115.835 575.55C116.297 575.894 116.872 576.065 117.559 576.065C118.033 576.065 118.448 575.994 118.804 575.852C119.171 575.698 119.515 575.461 119.835 575.141L121.239 576.741C120.374 577.772 119.124 578.288 117.488 578.288C116.457 578.288 115.544 578.08 114.75 577.665C113.968 577.239 113.364 576.652 112.937 575.905C112.51 575.159 112.297 574.311 112.297 573.363C112.297 572.427 112.504 571.585 112.919 570.839C113.346 570.08 113.927 569.494 114.661 569.079C115.408 568.652 116.238 568.439 117.15 568.439C118.039 568.439 118.839 568.64 119.55 569.043C120.273 569.446 120.842 570.027 121.257 570.785C121.672 571.532 121.879 572.403 121.879 573.399ZM117.168 570.536C116.575 570.536 116.072 570.714 115.657 571.07C115.254 571.425 115.011 571.911 114.928 572.528H119.39C119.295 571.923 119.047 571.443 118.644 571.088C118.253 570.72 117.761 570.536 117.168 570.536ZM125.794 569.843C126.114 569.381 126.541 569.031 127.074 568.794C127.607 568.557 128.223 568.439 128.923 568.439V570.999C128.615 570.975 128.413 570.963 128.318 570.963C127.572 570.963 126.985 571.188 126.558 571.639C126.132 572.077 125.918 572.741 125.918 573.63V578.145H123.269V568.581H125.794V569.843ZM131.525 567.248C131.039 567.248 130.642 567.099 130.333 566.803C130.025 566.507 129.871 566.139 129.871 565.701C129.871 565.262 130.025 564.895 130.333 564.599C130.642 564.302 131.039 564.154 131.525 564.154C132.011 564.154 132.402 564.296 132.698 564.581C133.006 564.865 133.16 565.221 133.16 565.648C133.16 566.11 133.006 566.495 132.698 566.803C132.402 567.099 132.011 567.248 131.525 567.248ZM132.84 568.581V578.145H130.191V568.581H132.84ZM143.832 573.399C143.832 573.434 143.815 573.683 143.779 574.145H136.917C137.047 574.738 137.337 575.206 137.788 575.55C138.25 575.894 138.825 576.065 139.512 576.065C139.986 576.065 140.401 575.994 140.757 575.852C141.124 575.698 141.468 575.461 141.788 575.141L143.192 576.741C142.327 577.772 141.077 578.288 139.441 578.288C138.41 578.288 137.497 578.08 136.703 577.665C135.921 577.239 135.317 576.652 134.89 575.905C134.463 575.159 134.25 574.311 134.25 573.363C134.25 572.427 134.457 571.585 134.872 570.839C135.299 570.08 135.88 569.494 136.615 569.079C137.361 568.652 138.191 568.439 139.103 568.439C139.992 568.439 140.792 568.64 141.503 569.043C142.226 569.446 142.795 570.027 143.21 570.785C143.625 571.532 143.832 572.403 143.832 573.399ZM139.121 570.536C138.529 570.536 138.025 570.714 137.61 571.07C137.207 571.425 136.964 571.911 136.881 572.528H141.343C141.249 571.923 141 571.443 140.597 571.088C140.206 570.72 139.714 570.536 139.121 570.536ZM150.751 568.439C151.889 568.439 152.802 568.794 153.489 569.505C154.177 570.216 154.52 571.271 154.52 572.67V578.145H151.889V573.096C151.889 572.338 151.729 571.775 151.409 571.408C151.089 571.028 150.633 570.839 150.04 570.839C149.377 570.839 148.849 571.058 148.458 571.496C148.067 571.923 147.871 572.563 147.871 573.416V578.145H145.223V568.581H147.747V569.701C148.103 569.298 148.535 568.99 149.045 568.776C149.566 568.551 150.135 568.439 150.751 568.439ZM160.926 578.288C159.954 578.288 159.083 578.08 158.313 577.665C157.542 577.239 156.938 576.652 156.499 575.905C156.073 575.159 155.859 574.311 155.859 573.363C155.859 572.415 156.073 571.568 156.499 570.821C156.938 570.074 157.542 569.494 158.313 569.079C159.083 568.652 159.954 568.439 160.926 568.439C161.886 568.439 162.722 568.652 163.433 569.079C164.144 569.494 164.665 570.092 164.997 570.874L162.953 572.03C162.491 571.153 161.809 570.714 160.908 570.714C160.221 570.714 159.652 570.951 159.202 571.425C158.763 571.899 158.544 572.545 158.544 573.363C158.544 574.181 158.763 574.827 159.202 575.301C159.652 575.775 160.221 576.012 160.908 576.012C161.821 576.012 162.502 575.574 162.953 574.696L164.997 575.87C164.665 576.64 164.144 577.239 163.433 577.665C162.722 578.08 161.886 578.288 160.926 578.288ZM175.067 573.399C175.067 573.434 175.049 573.683 175.013 574.145H168.151C168.281 574.738 168.572 575.206 169.022 575.55C169.484 575.894 170.059 576.065 170.747 576.065C171.221 576.065 171.636 575.994 171.991 575.852C172.359 575.698 172.702 575.461 173.022 575.141L174.427 576.741C173.561 577.772 172.311 578.288 170.676 578.288C169.644 578.288 168.732 578.08 167.938 577.665C167.156 577.239 166.551 576.652 166.124 575.905C165.698 575.159 165.484 574.311 165.484 573.363C165.484 572.427 165.692 571.585 166.107 570.839C166.533 570.08 167.114 569.494 167.849 569.079C168.596 568.652 169.425 568.439 170.338 568.439C171.227 568.439 172.027 568.64 172.738 569.043C173.461 569.446 174.03 570.027 174.444 570.785C174.859 571.532 175.067 572.403 175.067 573.399ZM170.356 570.536C169.763 570.536 169.259 570.714 168.844 571.07C168.441 571.425 168.199 571.911 168.116 572.528H172.578C172.483 571.923 172.234 571.443 171.831 571.088C171.44 570.72 170.948 570.536 170.356 570.536Z" fill="#8423A4"/>
<path d="M62.4434 602.5V601.116H65.4145V599.871H67.1412V601.116H69.8012V602.5H62.4434ZM70.1434 606.934V605.44H71.6212V604.056H70.1434V602.562H71.6212V600.089H73.2856V609.018H71.6212V606.934H70.1434ZM66.2856 607.96C65.3212 607.96 64.5227 607.742 63.8901 607.307C63.2575 606.871 62.9412 606.27 62.9412 605.502C62.9412 604.725 63.2523 604.123 63.8745 603.698C64.5071 603.262 65.3108 603.045 66.2856 603.045C67.2605 603.045 68.059 603.262 68.6812 603.698C69.3138 604.123 69.6301 604.725 69.6301 605.502C69.6301 606.27 69.3138 606.871 68.6812 607.307C68.0486 607.742 67.2501 607.96 66.2856 607.96ZM66.2856 604.351C65.7464 604.351 65.3212 604.46 65.0101 604.678C64.699 604.896 64.5434 605.171 64.5434 605.502C64.5434 605.834 64.699 606.109 65.0101 606.327C65.3212 606.534 65.7464 606.638 66.2856 606.638C66.8145 606.638 67.2345 606.534 67.5456 606.327C67.8568 606.109 68.0123 605.834 68.0123 605.502C68.0123 605.171 67.8568 604.896 67.5456 604.678C67.2345 604.46 66.8145 604.351 66.2856 604.351ZM73.5034 611.942H63.4234V608.442H65.119V610.387H73.5034V611.942ZM85.5262 612.036H83.8462V600.089H85.5262V612.036ZM79.8173 602.08C79.7862 603.449 79.6773 604.611 79.4907 605.565L83.0373 610.262L81.7151 611.305L78.9462 607.54C78.521 608.712 77.9714 609.63 77.2973 610.294C76.6233 610.947 75.861 611.31 75.0107 611.382V609.609C75.6225 609.505 76.1566 609.127 76.6129 608.474C77.0796 607.81 77.4425 606.928 77.7018 605.829C77.961 604.73 78.101 603.48 78.1218 602.08H75.2907V600.462H82.5551V602.08H79.8173ZM90.8563 607.758V600.416H92.5208V602.485H99.1941V600.416H100.859V607.758H90.8563ZM99.1941 604.04H92.5208V606.171H99.1941V604.04ZM101.559 611.522H90.1563V609.874H101.559V611.522ZM108.899 609.034V600.151H110.47V603.138H111.964V600.089H113.55V609.236H111.964V604.725H110.47V609.034H108.899ZM108.23 607.151C107.546 607.442 106.535 607.587 105.197 607.587H102.77V603.231H106.13V601.785H102.77V600.322H107.686V604.616H104.326V606.125H105.306C106.592 606.125 107.567 605.985 108.23 605.705V607.151ZM113.784 611.942H103.424V608.411H105.135V610.356H113.784V611.942ZM123.877 606.685V600.089H125.557V606.685H123.877ZM116.955 601.8V604.6H119.957C120.621 604.6 121.238 604.559 121.809 604.476C122.379 604.382 122.83 604.258 123.162 604.102V605.58C122.83 605.736 122.379 605.86 121.809 605.954C121.249 606.036 120.621 606.078 119.926 606.078H115.26V600.322H122.415V601.8H116.955ZM120.673 606.98C122.197 606.98 123.416 607.188 124.329 607.602C125.241 608.007 125.697 608.65 125.697 609.531C125.697 610.423 125.241 611.076 124.329 611.491C123.416 611.896 122.197 612.098 120.673 612.098C119.149 612.098 117.925 611.896 117.002 611.491C116.089 611.076 115.633 610.423 115.633 609.531C115.633 608.65 116.089 608.007 117.002 607.602C117.925 607.188 119.149 606.98 120.673 606.98ZM120.673 608.427C119.719 608.427 118.941 608.52 118.34 608.707C117.749 608.883 117.453 609.158 117.453 609.531C117.453 609.905 117.749 610.185 118.34 610.371C118.941 610.558 119.719 610.651 120.673 610.651C121.627 610.651 122.4 610.558 122.991 610.371C123.592 610.185 123.893 609.905 123.893 609.531C123.893 609.158 123.592 608.883 122.991 608.707C122.4 608.52 121.627 608.427 120.673 608.427ZM137.934 610.294C136.97 611.196 135.762 611.647 134.31 611.647C133.563 611.647 132.889 611.528 132.288 611.289C131.696 611.04 131.23 610.698 130.888 610.262C130.556 609.816 130.39 609.314 130.39 608.754C130.39 608.09 130.587 607.504 130.981 606.996C131.375 606.477 132.028 605.959 132.941 605.44C132.505 604.984 132.189 604.569 131.992 604.196C131.805 603.822 131.712 603.428 131.712 603.014C131.712 602.267 131.992 601.665 132.552 601.209C133.112 600.742 133.859 600.509 134.792 600.509C135.663 600.509 136.353 600.722 136.861 601.147C137.379 601.562 137.639 602.127 137.639 602.842C137.639 603.392 137.462 603.885 137.11 604.32C136.768 604.756 136.192 605.202 135.383 605.658L137.841 608.1C138.121 607.54 138.328 606.908 138.463 606.202L139.91 606.654C139.702 607.659 139.381 608.489 138.945 609.142L140.361 610.527L139.35 611.678L137.934 610.294ZM134.792 601.769C134.346 601.769 133.993 601.883 133.734 602.111C133.485 602.329 133.361 602.625 133.361 602.998C133.361 603.268 133.428 603.527 133.563 603.776C133.708 604.014 133.978 604.331 134.372 604.725C135.025 604.351 135.476 604.03 135.725 603.76C135.985 603.491 136.114 603.195 136.114 602.874C136.114 602.542 135.995 602.277 135.756 602.08C135.528 601.873 135.207 601.769 134.792 601.769ZM134.434 610.216C135.399 610.216 136.213 609.91 136.876 609.298L133.952 606.389C133.278 606.783 132.806 607.146 132.536 607.478C132.277 607.799 132.148 608.162 132.148 608.567C132.148 609.054 132.355 609.454 132.77 609.765C133.195 610.065 133.75 610.216 134.434 610.216ZM154.584 606.451V612.036H152.904V600.089H154.584V604.74H156.078V606.451H154.584ZM151.069 600.462V611.382H144.629V600.462H151.069ZM149.373 609.734V602.111H146.309V609.734H149.373ZM167.54 612.036H165.954V600.089H167.54V612.036ZM164.678 600.151V611.834H163.123V606.405H161.474C161.225 607.95 160.675 609.158 159.825 610.029C158.975 610.89 157.932 611.336 156.698 611.367V609.765C157.58 609.723 158.29 609.402 158.829 608.8C159.379 608.188 159.742 607.354 159.918 606.296H156.698V604.725H160.043V603.776V602.034H156.698V600.462H161.629V603.714V604.74H163.123V600.151H164.678ZM177.868 607.198V600.089H179.548V607.198H177.868ZM177.09 606.234C176.758 606.389 176.297 606.514 175.705 606.607C175.125 606.69 174.477 606.731 173.761 606.731H169.25V600.322H176.328V601.691H170.93V602.874H176.11V604.165H170.93V605.362H173.885C174.549 605.362 175.161 605.321 175.721 605.238C176.291 605.145 176.748 605.025 177.09 604.88V606.234ZM174.663 607.494C176.198 607.494 177.417 607.675 178.319 608.038C179.231 608.401 179.688 608.987 179.688 609.796C179.688 610.605 179.231 611.191 178.319 611.554C177.417 611.916 176.198 612.098 174.663 612.098C173.128 612.098 171.905 611.916 170.992 611.554C170.08 611.191 169.623 610.605 169.623 609.796C169.623 608.987 170.08 608.401 170.992 608.038C171.905 607.675 173.128 607.494 174.663 607.494ZM174.663 610.714C175.638 610.714 176.421 610.641 177.012 610.496C177.603 610.351 177.899 610.117 177.899 609.796C177.899 609.474 177.603 609.241 177.012 609.096C176.421 608.94 175.638 608.862 174.663 608.862C173.688 608.862 172.905 608.94 172.314 609.096C171.723 609.241 171.428 609.474 171.428 609.796C171.428 610.117 171.718 610.351 172.299 610.496C172.89 610.641 173.678 610.714 174.663 610.714ZM186.811 599.98C188.345 599.98 189.569 600.156 190.482 600.509C191.394 600.851 191.851 601.406 191.851 602.174C191.851 602.941 191.394 603.501 190.482 603.854C189.569 604.206 188.345 604.382 186.811 604.382C185.276 604.382 184.047 604.206 183.124 603.854C182.201 603.501 181.739 602.941 181.739 602.174C181.739 601.406 182.196 600.851 183.108 600.509C184.031 600.156 185.265 599.98 186.811 599.98ZM186.811 601.287C185.815 601.287 185.016 601.359 184.415 601.505C183.824 601.65 183.528 601.873 183.528 602.174C183.528 602.485 183.824 602.713 184.415 602.858C185.016 603.003 185.815 603.076 186.811 603.076C187.806 603.076 188.599 603.003 189.191 602.858C189.782 602.713 190.077 602.485 190.077 602.174C190.077 601.873 189.782 601.65 189.191 601.505C188.599 601.359 187.806 601.287 186.811 601.287ZM181.102 606.327V604.989H192.504V606.327H181.102ZM183.513 609.998V610.745H191.944V611.942H181.848V609.002H190.124V608.271H181.817V607.105H191.788V609.998H183.513ZM84.8085 626.214H83.1285V619.089H84.8085V626.214ZM78.1351 623.631C77.7203 624.285 77.181 624.814 76.5173 625.218C75.8536 625.622 75.1173 625.861 74.3085 625.934V624.331C75.1796 624.228 75.8847 623.859 76.424 623.227C76.9633 622.584 77.2744 621.785 77.3573 620.831H74.464V619.322H81.8218V620.831H79.0685C79.0581 621.298 78.9751 621.765 78.8196 622.231L82.1951 624.534L81.3085 625.84L78.1351 623.631ZM84.8085 626.774V631.098H83.0973V628.298H74.884V626.774H84.8085ZM97.2046 625.405H95.5246V622.605H93.5801V621.111H95.5246V619.089H97.2046V625.405ZM90.3601 623.242C89.9453 623.854 89.4113 624.347 88.7579 624.72C88.115 625.094 87.3942 625.311 86.5957 625.374V623.818C87.415 623.714 88.089 623.388 88.6179 622.838C89.1468 622.288 89.4631 621.609 89.5668 620.8H86.7357V619.322H93.9846V620.8H91.2779C91.2468 621.163 91.1742 621.536 91.0601 621.92L94.3735 623.942L93.5801 625.265L90.3601 623.242ZM97.2046 625.887V630.942H87.3424V625.887H88.9913V626.96H95.5401V625.887H97.2046ZM95.5401 628.329H88.9913V629.542H95.5401V628.329ZM108.757 624.565V623.04H110.919V621.765H109.208V620.24H110.919V619.089H112.599V625.685H110.919V624.565H108.757ZM108.664 620.754C108.664 622.319 108.078 623.486 106.906 624.254C105.734 625.011 104.127 625.389 102.084 625.389V623.865C103.598 623.854 104.785 623.611 105.646 623.134C106.507 622.656 106.937 621.977 106.937 621.096V620.816H102.084V619.322H108.664V620.754ZM107.684 625.98C109.198 625.98 110.416 626.188 111.339 626.602C112.272 627.007 112.739 627.65 112.739 628.531C112.739 629.423 112.278 630.076 111.355 630.491C110.432 630.896 109.208 631.098 107.684 631.098C106.169 631.098 104.951 630.896 104.028 630.491C103.115 630.076 102.659 629.423 102.659 628.531C102.659 627.65 103.115 627.007 104.028 626.602C104.951 626.188 106.169 625.98 107.684 625.98ZM107.684 629.651C108.638 629.651 109.415 629.558 110.017 629.371C110.629 629.185 110.935 628.905 110.935 628.531C110.935 628.158 110.629 627.883 110.017 627.707C109.415 627.52 108.638 627.427 107.684 627.427C106.74 627.427 105.962 627.52 105.35 627.707C104.749 627.883 104.448 628.158 104.448 628.531C104.448 628.905 104.749 629.185 105.35 629.371C105.962 629.558 106.74 629.651 107.684 629.651ZM114.075 621.314V619.976H117.093V618.871H118.804V619.976H121.822V621.314H114.075ZM124.917 626.182H123.237V624.098H121.682V622.542H123.237V619.089H124.917V626.182ZM117.949 626.151C116.984 626.151 116.18 625.959 115.537 625.576C114.905 625.192 114.589 624.663 114.589 623.989C114.589 623.315 114.905 622.781 115.537 622.387C116.18 621.993 116.984 621.796 117.949 621.796C118.913 621.796 119.712 621.993 120.344 622.387C120.987 622.781 121.309 623.315 121.309 623.989C121.309 624.663 120.987 625.192 120.344 625.576C119.712 625.959 118.913 626.151 117.949 626.151ZM117.949 623.071C117.409 623.071 116.979 623.159 116.657 623.336C116.346 623.502 116.191 623.719 116.191 623.989C116.191 624.248 116.346 624.466 116.657 624.642C116.979 624.808 117.409 624.891 117.949 624.891C118.488 624.891 118.918 624.808 119.24 624.642C119.561 624.466 119.722 624.248 119.722 623.989C119.722 623.719 119.561 623.502 119.24 623.336C118.918 623.159 118.488 623.071 117.949 623.071ZM124.886 626.758V630.942H115.055V626.758H124.886ZM123.222 629.558V628.142H116.72V629.558H123.222ZM126.347 621.127V619.851H129.334V618.856H131.06V619.851H134.078V621.127H126.347ZM138.325 622.962H136.831V625.311H135.151V619.089H136.831V621.36H138.325V622.962ZM130.205 625.342C129.22 625.342 128.411 625.182 127.778 624.86C127.145 624.528 126.829 624.062 126.829 623.46C126.829 622.848 127.145 622.382 127.778 622.06C128.411 621.739 129.22 621.578 130.205 621.578C131.19 621.578 131.999 621.739 132.631 622.06C133.264 622.382 133.58 622.848 133.58 623.46C133.58 624.062 133.264 624.528 132.631 624.86C131.999 625.182 131.19 625.342 130.205 625.342ZM130.205 622.76C129.655 622.76 129.22 622.822 128.898 622.947C128.577 623.071 128.416 623.242 128.416 623.46C128.416 623.678 128.577 623.849 128.898 623.974C129.22 624.098 129.655 624.16 130.205 624.16C130.754 624.16 131.19 624.098 131.511 623.974C131.833 623.849 131.994 623.678 131.994 623.46C131.994 623.242 131.833 623.071 131.511 622.947C131.19 622.822 130.754 622.76 130.205 622.76ZM137.049 629.745V630.942H127.14V627.847H135.183V627.069H127.109V625.856H136.831V628.951H128.805V629.745H137.049ZM147.373 622.636C146.73 623.507 145.936 624.196 144.993 624.705C144.059 625.213 143.079 625.472 142.053 625.482V623.802C142.83 623.802 143.582 623.595 144.308 623.18C145.034 622.755 145.646 622.174 146.144 621.438C146.641 620.691 146.963 619.867 147.108 618.965L148.835 619.245C148.71 619.971 148.493 620.65 148.181 621.282L153.019 623.989L152.21 625.467L147.373 622.636ZM148.353 628.236V631.316H146.626V628.236H141.788V626.587H153.19V628.236H148.353ZM166.267 625.716V619.089H167.947V625.716H166.267ZM164.509 622.325C164.509 622.947 164.359 623.496 164.058 623.974C163.768 624.451 163.348 624.824 162.798 625.094C162.259 625.353 161.626 625.482 160.9 625.482C160.185 625.482 159.552 625.353 159.003 625.094C158.463 624.824 158.043 624.451 157.743 623.974C157.442 623.496 157.292 622.947 157.292 622.325C157.292 621.702 157.442 621.153 157.743 620.676C158.043 620.199 158.463 619.831 159.003 619.571C159.552 619.302 160.185 619.167 160.9 619.167C161.626 619.167 162.259 619.302 162.798 619.571C163.348 619.831 163.768 620.199 164.058 620.676C164.359 621.153 164.509 621.702 164.509 622.325ZM158.972 622.325C158.972 622.843 159.148 623.253 159.5 623.554C159.863 623.854 160.33 624.005 160.9 624.005C161.492 624.005 161.963 623.854 162.316 623.554C162.669 623.253 162.845 622.843 162.845 622.325C162.845 621.796 162.669 621.381 162.316 621.08C161.963 620.779 161.492 620.629 160.9 620.629C160.32 620.629 159.853 620.785 159.5 621.096C159.148 621.396 158.972 621.806 158.972 622.325ZM165.769 629.231C165.406 629.76 164.971 630.175 164.463 630.476C163.955 630.766 163.415 630.922 162.845 630.942L160.963 629.278C160.589 629.786 160.154 630.185 159.656 630.476C159.169 630.766 158.65 630.922 158.1 630.942V629.34C158.484 629.319 158.847 629.159 159.189 628.858C159.542 628.557 159.832 628.163 160.06 627.676C160.289 627.188 160.423 626.659 160.465 626.089L162.098 626.354C162.036 626.955 161.912 627.494 161.725 627.971L163.249 629.262C163.757 629.107 164.193 628.734 164.556 628.142C164.929 627.551 165.147 626.867 165.209 626.089L166.827 626.354C166.786 626.872 166.672 627.401 166.485 627.94L168.803 629.776L167.838 631.02L165.769 629.231ZM180.25 622.278V623.771H170.279V619.058H171.974V622.278H180.25ZM169.501 626.431V624.922H180.903V626.431H169.501ZM180.343 629.449V630.942H170.248V627.334H171.959V629.449H180.343ZM98.523 643.954V638.089H100.203V643.954H98.523ZM93.483 641.714C93.0371 642.315 92.4822 642.808 91.8185 643.191C91.1548 643.565 90.4185 643.798 89.6096 643.891V642.32C90.6156 642.154 91.4193 641.693 92.0208 640.936C92.6222 640.168 92.9334 639.245 92.9541 638.167L94.6496 638.276C94.6496 639.043 94.5096 639.764 94.2296 640.438L97.6363 642.382L96.8585 643.689L93.483 641.714ZM100.421 649.942H90.3719V646.66H98.5385V645.789H90.3408V644.514H100.203V647.796H92.0363V648.682H100.421V649.942ZM101.539 640.314V639.007H103.779V637.902H105.459V639.007H107.606V640.314H101.539ZM108.275 645.058V638.151H109.83V640.734H111.277V638.089H112.832V645.478H111.277V642.32H109.83V645.058H108.275ZM107.372 643.036C107.372 643.71 107.113 644.249 106.595 644.654C106.076 645.058 105.428 645.26 104.65 645.26C103.862 645.26 103.209 645.058 102.69 644.654C102.172 644.249 101.912 643.71 101.912 643.036C101.912 642.362 102.172 641.828 102.69 641.434C103.209 641.029 103.862 640.827 104.65 640.827C105.428 640.827 106.076 641.029 106.595 641.434C107.113 641.828 107.372 642.362 107.372 643.036ZM103.406 643.036C103.406 643.316 103.52 643.549 103.748 643.736C103.976 643.912 104.277 644 104.65 644C105.013 644 105.309 643.912 105.537 643.736C105.765 643.549 105.879 643.316 105.879 643.036C105.879 642.756 105.765 642.528 105.537 642.351C105.309 642.175 105.013 642.087 104.65 642.087C104.277 642.087 103.976 642.175 103.748 642.351C103.52 642.528 103.406 642.756 103.406 643.036ZM107.761 645.634C109.338 645.634 110.592 645.81 111.526 646.162C112.469 646.515 112.941 647.08 112.941 647.858C112.941 648.646 112.469 649.216 111.526 649.569C110.592 649.922 109.338 650.098 107.761 650.098C106.185 650.098 104.925 649.922 103.981 649.569C103.048 649.216 102.581 648.646 102.581 647.858C102.581 647.08 103.048 646.515 103.981 646.162C104.925 645.81 106.185 645.634 107.761 645.634ZM107.761 648.745C108.757 648.745 109.571 648.672 110.204 648.527C110.847 648.371 111.168 648.148 111.168 647.858C111.168 647.568 110.847 647.35 110.204 647.205C109.571 647.049 108.757 646.971 107.761 646.971C106.766 646.971 105.947 647.049 105.304 647.205C104.661 647.35 104.339 647.568 104.339 647.858C104.339 648.148 104.661 648.371 105.304 648.527C105.947 648.672 106.766 648.745 107.761 648.745ZM117.727 645.665V644.031H119.625V640.142H117.836V638.509H127.885V640.142H126.096V644.031H127.994V645.665H117.727ZM124.416 644.031V640.142H121.305V644.031H124.416ZM128.554 649.522H117.151V647.858H128.554V649.522ZM140.872 649.522H129.47V647.905H134.308V646.007H130.185V641.48H138.523V640.018H130.185V638.462H140.188V642.974H131.865V644.436H140.328V646.007H136.019V647.905H140.872V649.522ZM152.864 650.036H151.277V638.089H152.864V650.036ZM149.955 638.151V649.834H148.368V643.689H146.797V642.009H148.368V638.151H149.955ZM145.708 638.416C145.708 640.293 145.625 641.911 145.459 643.269L148.135 648.511L146.75 649.242L144.946 645.68C144.334 647.92 143.302 649.154 141.85 649.382V647.594C143.344 647.168 144.101 644.088 144.121 638.354L145.708 638.416ZM159.691 642.289C159.027 643.326 158.224 644.145 157.28 644.747C156.347 645.338 155.367 645.639 154.34 645.649V643.969C155.118 643.969 155.864 643.71 156.58 643.191C157.306 642.673 157.923 641.968 158.431 641.076C158.939 640.184 159.276 639.194 159.442 638.105L161.169 638.4C161.003 639.344 160.759 640.174 160.438 640.889L165.369 644.28L164.467 645.696L159.691 642.289ZM165.509 647.874V649.522H154.107V647.874H165.509Z" fill="#8423A4"/>
</svg>
